SplineFontDB: 3.2
FontName: IRZar-Bold
FullName: IRZar-Bold
FamilyName: IRZar
Weight: Bold
Copyright: Copyright (c) 2022, Information Technology Organization of Iran (ito.gov.ir)
Version: 1.000
ItalicAngle: 0
UnderlinePosition: -100
UnderlineWidth: 60
Ascent: 1638
Descent: 410
InvalidEm: 0
sfntRevision: 0x00010000
LayerCount: 2
Layer: 0 1 "Back" 1
Layer: 1 1 "Fore" 0
XUID: [1021 420 722297922 8045534]
StyleMap: 0x0020
FSType: 0
OS2Version: 3
OS2_WeightWidthSlopeOnly: 0
OS2_UseTypoMetrics: 0
CreationTime: 1356427528
ModificationTime: 1662631218
PfmFamily: 17
TTFWeight: 700
TTFWidth: 5
LineGap: 100
VLineGap: 0
Panose: 2 0 5 6 0 0 0 2 0 2
OS2TypoAscent: 2100
OS2TypoAOffset: 0
OS2TypoDescent: -1057
OS2TypoDOffset: 0
OS2TypoLinegap: 300
OS2WinAscent: 2100
OS2WinAOffset: 0
OS2WinDescent: 1057
OS2WinDOffset: 0
HheadAscent: 2100
HheadAOffset: 0
HheadDescent: -1057
HheadDOffset: 0
OS2SubXSize: 1434
OS2SubYSize: 1331
OS2SubXOff: 0
OS2SubYOff: 293
OS2SupXSize: 1434
OS2SupYSize: 1331
OS2SupXOff: 0
OS2SupYOff: 928
OS2StrikeYSize: 50
OS2StrikeYPos: 250
OS2CapHeight: 2108
OS2XHeight: 707
OS2FamilyClass: 2048
OS2Vendor: 'PARS'
OS2CodePages: 20000041.00000000
OS2UnicodeRanges: 00002003.00000000.00000000.00000000
Lookup: 1 1 0 "'init' Initial Forms in Arabic lookup 0" { "'init' Initial Forms in Arabic lookup 0 subtable"  } ['init' ('arab' <'dflt' > ) ]
Lookup: 1 1 0 "'isol' Isolated Forms in Arabic lookup 1" { "'isol' Isolated Forms in Arabic lookup 1 subtable"  } ['isol' ('arab' <'dflt' > ) ]
Lookup: 1 1 0 "'medi' Medial Forms in Arabic lookup 2" { "'medi' Medial Forms in Arabic lookup 2 subtable"  } ['medi' ('arab' <'dflt' > ) ]
Lookup: 1 1 0 "'fina' Terminal Forms in Arabic lookup 3" { "'fina' Terminal Forms in Arabic lookup 3 subtable"  } ['fina' ('arab' <'dflt' > ) ]
Lookup: 4 1 0 "'ccmp' Glyph Composition/Decomposition in Arabic lookup 4" { "'ccmp' Glyph Composition/Decomposition in Arabic lookup 4 subtable"  } ['ccmp' ('arab' <'dflt' > ) ]

StartChar: quotedbl
Encoding: 34 34 1
Width: 432
Flags: W
LayerCount: 2
Fore
SplineSet
70 1192 m 1,0,-1
 162 1192 l 1,1,-1
 142 903 l 1,2,-1
 81 903 l 1,3,-1
 70 1192 l 1,0,-1
262 1192 m 1,4,-1
 353 1192 l 1,5,-1
 333 903 l 1,6,-1
 273 903 l 1,7,-1
 262 1192 l 1,4,-1
EndSplineSet
EndChar

StartChar: numbersign
Encoding: 35 35 2
Width: 865
Flags: W
LayerCount: 2
Fore
SplineSet
76 -23 m 1,0,-1
 149 335 l 1,1,-1
 34 335 l 1,2,-1
 34 446 l 1,3,-1
 171 446 l 1,4,-1
 221 694 l 1,5,-1
 34 694 l 1,6,-1
 34 804 l 1,7,-1
 243 804 l 1,8,-1
 316 1169 l 1,9,-1
 428 1169 l 1,10,-1
 352 804 l 1,11,-1
 602 804 l 1,12,-1
 675 1169 l 1,13,-1
 787 1169 l 1,14,-1
 711 804 l 1,15,-1
 830 804 l 1,16,-1
 830 694 l 1,17,-1
 690 694 l 1,18,-1
 640 446 l 1,19,-1
 830 446 l 1,20,-1
 830 335 l 1,21,-1
 619 335 l 1,22,-1
 547 -23 l 1,23,-1
 434 -23 l 1,24,-1
 507 335 l 1,25,-1
 261 335 l 1,26,-1
 185 -23 l 1,27,-1
 76 -23 l 1,0,-1
283 446 m 1,28,-1
 531 446 l 1,29,-1
 581 694 l 1,30,-1
 331 694 l 1,31,-1
 283 446 l 1,28,-1
EndSplineSet
EndChar

StartChar: dollar
Encoding: 36 36 3
Width: 865
Flags: W
LayerCount: 2
Fore
SplineSet
478 706 m 1,0,1
 680 578 680 578 736 514 c 0,2,3
 810 424 810 424 810 306 c 0,4,5
 810 176 810 176 722.5 86 c 128,-1,6
 635 -4 635 -4 478 -18 c 1,7,-1
 478 -116 l 1,8,-1
 404 -116 l 1,9,-1
 404 -23 l 1,10,11
 315 -22 315 -22 246 -9 c 128,-1,12
 177 4 177 4 86 39 c 1,13,-1
 86 311 l 1,14,-1
 123 311 l 1,15,16
 139 219 139 219 175.5 161.5 c 128,-1,17
 212 104 212 104 268 74.5 c 128,-1,18
 324 45 324 45 404 39 c 1,19,-1
 404 456 l 1,20,21
 201 584 201 584 133.5 660.5 c 128,-1,22
 66 737 66 737 66 838 c 0,23,24
 66 948 66 948 150.5 1032 c 128,-1,25
 235 1116 235 1116 404 1138 c 1,26,-1
 404 1176 l 1,27,-1
 478 1176 l 1,28,-1
 478 1138 l 1,29,30
 622 1127 622 1127 767 1048 c 1,31,-1
 767 804 l 1,32,-1
 734 804 l 1,33,34
 709 887 709 887 675 940.5 c 128,-1,35
 641 994 641 994 588 1032 c 0,36,37
 546 1059 546 1059 478 1078 c 1,38,-1
 478 706 l 1,0,1
404 1080 m 1,39,40
 344 1075 344 1075 306 1046 c 0,41,42
 247 1002 247 1002 247 939 c 0,43,44
 247 900 247 900 274.5 860.5 c 128,-1,45
 302 821 302 821 404 752 c 1,46,-1
 404 1080 l 1,39,40
478 39 m 1,47,48
 551 56 551 56 585 96.5 c 128,-1,49
 619 137 619 137 619 200 c 0,50,51
 619 252 619 252 589 299 c 128,-1,52
 559 346 559 346 478 404 c 1,53,-1
 478 39 l 1,47,48
EndSplineSet
EndChar

StartChar: percent
Encoding: 37 37 4
Width: 1730
Flags: W
LayerCount: 2
Fore
SplineSet
1329 1172 m 1,0,-1
 516 -49 l 1,1,-1
 402 -49 l 1,2,-1
 1214 1172 l 1,3,-1
 1329 1172 l 1,0,-1
403 1172 m 0,4,5
 524 1172 524 1172 606 1087 c 128,-1,6
 688 1002 688 1002 688 868 c 0,7,8
 688 730 688 730 605 644.5 c 128,-1,9
 522 559 522 559 400 559 c 0,10,11
 279 559 279 559 199.5 642 c 128,-1,12
 120 725 120 725 120 859 c 0,13,14
 120 999 120 999 202 1085.5 c 128,-1,15
 284 1172 284 1172 403 1172 c 0,4,5
403 1127 m 0,16,17
 386 1127 386 1127 373 1116 c 0,18,19
 352 1096 352 1096 341.5 1048.5 c 128,-1,20
 331 1001 331 1001 331 852 c 0,21,22
 331 732 331 732 346 667 c 0,23,24
 354 631 354 631 373 612 c 0,25,26
 387 601 387 601 403 601 c 0,27,28
 422 601 422 601 433 611 c 0,29,30
 453 628 453 628 463 668 c 0,31,32
 476 732 476 732 476 848 c 0,33,34
 476 991 476 991 463 1054 c 0,35,36
 454 1097 454 1097 433 1117 c 0,37,38
 422 1127 422 1127 403 1127 c 0,16,17
1323 567 m 0,39,40
 1446 567 1446 567 1528.5 483 c 128,-1,41
 1611 399 1611 399 1611 263 c 0,42,43
 1611 125 1611 125 1527 38.5 c 128,-1,44
 1443 -48 1443 -48 1324 -48 c 0,45,46
 1207 -48 1207 -48 1125 38.5 c 128,-1,47
 1043 125 1043 125 1043 260 c 0,48,49
 1043 396 1043 396 1123 481.5 c 128,-1,50
 1203 567 1203 567 1323 567 c 0,39,40
1325 522 m 0,51,52
 1308 522 1308 522 1297 514 c 0,53,54
 1277 494 1277 494 1266 448 c 128,-1,55
 1255 402 1255 402 1255 273 c 0,56,57
 1255 133 1255 133 1267 73 c 0,58,59
 1277 30 1277 30 1299 11 c 0,60,61
 1309 0 1309 0 1328 0 c 0,62,63
 1343 0 1343 0 1354 10 c 0,64,65
 1375 29 1375 29 1384 73 c 0,66,67
 1400 134 1400 134 1400 260 c 0,68,69
 1400 391 1400 391 1385 452 c 0,70,71
 1375 496 1375 496 1355 514 c 0,72,73
 1345 522 1345 522 1325 522 c 0,51,52
EndSplineSet
EndChar

StartChar: ampersand
Encoding: 38 38 5
Width: 1442
Flags: W
LayerCount: 2
Fore
SplineSet
985 685 m 1,0,-1
 1337 685 l 1,1,-1
 1337 653 l 1,2,3
 1278 644 1278 644 1244.5 617 c 128,-1,4
 1211 590 1211 590 1156 493 c 128,-1,5
 1101 396 1101 396 1003 276 c 1,6,7
 1090 199 1090 199 1143 168 c 0,8,9
 1182 147 1182 147 1218 147 c 0,10,11
 1281 147 1281 147 1332 229 c 1,12,-1
 1366 210 l 1,13,14
 1297 74 1297 74 1218 17 c 0,15,16
 1159 -27 1159 -27 1081 -27 c 0,17,18
 1016 -27 1016 -27 956.5 2 c 128,-1,19
 897 31 897 31 811 108 c 1,20,21
 706 36 706 36 612.5 4.5 c 128,-1,22
 519 -27 519 -27 420 -27 c 0,23,24
 258 -27 258 -27 164 60.5 c 128,-1,25
 70 148 70 148 70 265 c 0,26,27
 70 392 70 392 160.5 486 c 128,-1,28
 251 580 251 580 422 648 c 1,29,30
 400 704 400 704 389 756 c 128,-1,31
 378 808 378 808 378 856 c 0,32,33
 378 992 378 992 473 1082 c 128,-1,34
 568 1172 568 1172 716 1172 c 0,35,36
 835 1172 835 1172 904.5 1112.5 c 128,-1,37
 974 1053 974 1053 974 973 c 0,38,39
 974 877 974 877 903 809 c 128,-1,40
 832 741 832 741 678 685 c 1,41,42
 773 517 773 517 957 324 c 1,43,44
 1081 463 1081 463 1081 562 c 0,45,46
 1081 598 1081 598 1057 622.5 c 128,-1,47
 1033 647 1033 647 985 653 c 1,48,-1
 985 685 l 1,0,-1
648 736 m 1,49,50
 737 769 737 769 768 806.5 c 128,-1,51
 799 844 799 844 799 898 c 0,52,53
 799 992 799 992 749 1057 c 0,54,55
 716 1100 716 1100 667 1100 c 0,56,57
 627 1100 627 1100 599 1068.5 c 128,-1,58
 571 1037 571 1037 571 984 c 0,59,60
 571 943 571 943 584.5 895.5 c 128,-1,61
 598 848 598 848 648 736 c 1,49,50
445 593 m 1,62,63
 378 564 378 564 350 533 c 0,64,65
 310 486 310 486 310 428 c 0,66,67
 310 348 310 348 356.5 269.5 c 128,-1,68
 403 191 403 191 468 148 c 128,-1,69
 533 105 533 105 598 105 c 0,70,71
 631 105 631 105 670.5 119 c 128,-1,72
 710 133 710 133 758 160 c 1,73,74
 554 370 554 370 445 593 c 1,62,63
EndSplineSet
EndChar

StartChar: quotesingle
Encoding: 39 39 6
Width: 346
Flags: W
LayerCount: 2
Fore
SplineSet
128 1192 m 1,0,-1
 219 1192 l 1,1,-1
 199 903 l 1,2,-1
 139 903 l 1,3,-1
 128 1192 l 1,0,-1
EndSplineSet
EndChar

StartChar: asterisk
Encoding: 42 42 7
Width: 774
Flags: W
LayerCount: 2
Fore
SplineSet
430 713 m 1,0,-1
 430 569 l 2,1,2
 430 555 430 555 422 545 c 128,-1,3
 414 535 414 535 399 535 c 2,4,-1
 348 535 l 2,5,6
 340 535 340 535 329.5 545 c 128,-1,7
 319 555 319 555 319 569 c 2,8,-1
 319 713 l 1,9,-1
 221 612 l 1,10,11
 193 594 193 594 164 612 c 1,12,-1
 133 645 l 2,13,14
 115 668 115 668 139 694 c 2,15,-1
 240 797 l 1,16,-1
 96 797 l 2,17,18
 82 797 82 797 69.5 806 c 128,-1,19
 57 815 57 815 57 831 c 2,20,-1
 57 881 l 2,21,22
 57 891 57 891 69.5 900 c 128,-1,23
 82 909 82 909 96 909 c 2,24,-1
 231 909 l 1,25,-1
 133 1010 l 2,26,27
 119 1022 119 1022 118 1036.5 c 128,-1,28
 117 1051 117 1051 127 1065 c 1,29,-1
 164 1096 l 2,30,31
 174 1106 174 1106 186.5 1105 c 128,-1,32
 199 1104 199 1104 211 1090 c 2,33,-1
 319 985 l 1,34,-1
 319 1141 l 2,35,36
 319 1153 319 1153 329.5 1164.5 c 128,-1,37
 340 1176 340 1176 348 1176 c 2,38,-1
 399 1176 l 2,39,40
 414 1176 414 1176 422 1164.5 c 128,-1,41
 430 1153 430 1153 430 1141 c 2,42,-1
 430 991 l 1,43,-1
 537 1096 l 2,44,45
 549 1110 549 1110 561 1111 c 128,-1,46
 573 1112 573 1112 592 1104 c 1,47,-1
 618 1065 l 1,48,49
 629 1057 629 1057 629 1044.5 c 128,-1,50
 629 1032 629 1032 616 1016 c 2,51,-1
 512 909 l 1,52,-1
 668 909 l 2,53,54
 678 909 678 909 690 900 c 128,-1,55
 702 891 702 891 702 881 c 2,56,-1
 702 831 l 2,57,58
 702 815 702 815 690 806 c 128,-1,59
 678 797 678 797 668 797 c 2,60,-1
 504 797 l 1,61,-1
 616 694 l 1,62,63
 635 668 635 668 616 637 c 1,64,-1
 586 606 l 1,65,66
 563 588 563 588 537 612 c 2,67,-1
 430 713 l 1,0,-1
EndSplineSet
EndChar

StartChar: plus
Encoding: 43 43 8
Width: 1074
Flags: W
LayerCount: 2
Fore
SplineSet
480 528 m 1,0,-1
 191 528 l 1,1,-1
 191 676 l 1,2,-1
 480 676 l 1,3,-1
 480 970 l 1,4,-1
 629 970 l 1,5,-1
 629 676 l 1,6,-1
 934 676 l 1,7,-1
 934 528 l 1,8,-1
 629 528 l 1,9,-1
 629 235 l 1,10,-1
 480 235 l 1,11,-1
 480 528 l 1,0,-1
EndSplineSet
EndChar

StartChar: hyphen
Encoding: 45 45 9
Width: 1114
Flags: W
LayerCount: 2
Fore
SplineSet
191 528 m 1,0,-1
 191 676 l 1,1,-1
 934 676 l 1,2,-1
 934 528 l 1,3,-1
 191 528 l 1,0,-1
EndSplineSet
EndChar

StartChar: period
Encoding: 46 46 10
Width: 513
Flags: W
LayerCount: 2
Fore
SplineSet
270 244 m 0,0,1
 326 244 326 244 364 205 c 128,-1,2
 402 166 402 166 402 112 c 256,3,4
 402 58 402 58 363.5 19 c 128,-1,5
 325 -20 325 -20 270 -20 c 0,6,7
 216 -20 216 -20 177.5 19 c 128,-1,8
 139 58 139 58 139 112 c 256,9,10
 139 166 139 166 177.5 205 c 128,-1,11
 216 244 216 244 270 244 c 0,0,1
EndSplineSet
EndChar

StartChar: slash
Encoding: 47 47 11
Width: 781
Flags: W
LayerCount: 2
Fore
SplineSet
613 1069 m 1,0,-1
 216 -154 l 1,1,-1
 113 -154 l 1,2,-1
 510 1069 l 1,3,-1
 613 1069 l 1,0,-1
EndSplineSet
EndChar

StartChar: zero
Encoding: 48 48 12
Width: 865
Flags: W
LayerCount: 2
Fore
SplineSet
802 572 m 0,0,1
 802 401 802 401 754 252 c 0,2,3
 725 161 725 161 676 102.5 c 128,-1,4
 627 44 627 44 566 10.5 c 128,-1,5
 505 -23 505 -23 432 -23 c 0,6,7
 348 -23 348 -23 281.5 19 c 128,-1,8
 215 61 215 61 163 139 c 0,9,10
 127 197 127 197 99 293 c 0,11,12
 62 421 62 421 62 560 c 0,13,14
 62 746 62 746 115 901 c 0,15,16
 158 1032 158 1032 246 1100.5 c 128,-1,17
 334 1169 334 1169 432 1169 c 0,18,19
 531 1169 531 1169 618 1101 c 128,-1,20
 705 1033 705 1033 746 919 c 0,21,22
 802 760 802 760 802 572 c 0,0,1
541 574 m 2,23,24
 541 876 541 876 539 925 c 0,25,26
 530 1043 530 1043 497 1084 c 0,27,28
 476 1111 476 1111 429 1111 c 0,29,30
 393 1111 393 1111 372 1091 c 0,31,32
 340 1061 340 1061 329.5 986 c 128,-1,33
 319 911 319 911 319 465 c 0,34,35
 319 222 319 222 336 138 c 0,36,37
 348 78 348 78 371.5 58 c 128,-1,38
 395 38 395 38 434 38 c 0,39,40
 476 38 476 38 497 65 c 0,41,42
 533 112 533 112 539 211 c 1,43,-1
 541 574 l 2,23,24
EndSplineSet
EndChar

StartChar: one
Encoding: 49 49 13
Width: 865
Flags: W
LayerCount: 2
Fore
SplineSet
564 1169 m 1,0,-1
 564 232 l 2,1,2
 564 127 564 127 573 97.5 c 128,-1,3
 582 68 582 68 611.5 50 c 128,-1,4
 641 32 641 32 707 32 c 2,5,-1
 732 32 l 1,6,-1
 732 0 l 1,7,-1
 129 0 l 1,8,-1
 129 32 l 1,9,-1
 159 32 l 2,10,11
 233 32 233 32 264.5 48.5 c 128,-1,12
 296 65 296 65 307 95 c 128,-1,13
 318 125 318 125 318 232 c 2,14,-1
 318 826 l 2,15,16
 318 906 318 906 310 926 c 128,-1,17
 302 946 302 946 281.5 959.5 c 128,-1,18
 261 973 261 973 234 973 c 0,19,20
 191 973 191 973 129 947 c 1,21,-1
 114 977 l 1,22,-1
 536 1169 l 1,23,-1
 564 1169 l 1,0,-1
EndSplineSet
EndChar

StartChar: two
Encoding: 50 50 14
Width: 865
Flags: W
LayerCount: 2
Fore
SplineSet
716 0 m 1,0,-1
 42 0 l 1,1,-1
 42 19 l 1,2,3
 352 388 352 388 418.5 515.5 c 128,-1,4
 485 643 485 643 485 764 c 0,5,6
 485 853 485 853 430 912 c 128,-1,7
 375 971 375 971 296 971 c 0,8,9
 166 971 166 971 94 841 c 1,10,-1
 62 852 l 1,11,12
 108 1014 108 1014 201 1091.5 c 128,-1,13
 294 1169 294 1169 416 1169 c 0,14,15
 503 1169 503 1169 574.5 1128.5 c 128,-1,16
 646 1088 646 1088 687 1018 c 128,-1,17
 728 948 728 948 728 885 c 0,18,19
 728 773 728 773 665 657 c 0,20,21
 580 500 580 500 293 222 c 1,22,-1
 540 222 l 2,23,24
 632 222 632 222 659 229 c 128,-1,25
 686 236 686 236 703.5 254.5 c 128,-1,26
 721 273 721 273 750 331 c 1,27,-1
 780 331 l 1,28,-1
 716 0 l 1,0,-1
EndSplineSet
EndChar

StartChar: three
Encoding: 51 51 15
Width: 865
Flags: W
LayerCount: 2
Fore
SplineSet
255 574 m 1,0,-1
 255 604 l 1,1,2
 352 632 352 632 389 656 c 128,-1,3
 426 680 426 680 453.5 730 c 128,-1,4
 481 780 481 780 481 830 c 0,5,6
 481 900 481 900 429.5 950 c 128,-1,7
 378 1000 378 1000 302 1000 c 0,8,9
 183 1000 183 1000 102 876 c 1,10,-1
 70 886 l 1,11,12
 131 1027 131 1027 226 1098 c 128,-1,13
 321 1169 321 1169 437 1169 c 0,14,15
 557 1169 557 1169 634 1096.5 c 128,-1,16
 711 1024 711 1024 711 927 c 0,17,18
 711 864 711 864 675.5 805 c 128,-1,19
 640 746 640 746 563 701 c 1,20,21
 661 653 661 653 713.5 582.5 c 128,-1,22
 766 512 766 512 766 405 c 0,23,24
 766 226 766 226 636 101 c 128,-1,25
 506 -24 506 -24 288 -24 c 0,26,27
 142 -24 142 -24 76 23 c 0,28,29
 28 57 28 57 28 111 c 0,30,31
 28 150 28 150 56 177 c 128,-1,32
 84 204 84 204 120 204 c 0,33,34
 148 204 148 204 172 192 c 0,35,36
 186 186 186 186 268 119 c 128,-1,37
 350 52 350 52 422 52 c 0,38,39
 485 52 485 52 529.5 101 c 128,-1,40
 574 150 574 150 574 226 c 0,41,42
 574 342 574 342 493 440 c 128,-1,43
 412 538 412 538 255 574 c 1,0,-1
EndSplineSet
EndChar

StartChar: four
Encoding: 52 52 16
Width: 865
Flags: W
LayerCount: 2
Fore
SplineSet
43 432 m 1,0,-1
 588 1169 l 1,1,-1
 690 1169 l 1,2,-1
 690 432 l 1,3,-1
 795 432 l 1,4,-1
 795 256 l 1,5,-1
 690 256 l 1,6,-1
 690 0 l 1,7,-1
 458 0 l 1,8,-1
 458 256 l 1,9,-1
 43 256 l 1,10,-1
 43 432 l 1,0,-1
125 432 m 1,11,-1
 458 432 l 1,12,-1
 458 884 l 1,13,-1
 125 432 l 1,11,-1
EndSplineSet
EndChar

StartChar: five
Encoding: 53 53 17
Width: 865
Flags: W
LayerCount: 2
Fore
SplineSet
264 1145 m 1,0,-1
 801 1145 l 1,1,-1
 715 927 l 1,2,-1
 264 927 l 1,3,-1
 221 813 l 1,4,5
 512 803 512 803 669 668 c 0,6,7
 799 558 799 558 799 393 c 0,8,9
 799 287 799 287 738.5 186 c 128,-1,10
 678 85 678 85 569.5 31 c 128,-1,11
 461 -23 461 -23 330 -23 c 0,12,13
 190 -23 190 -23 115 29 c 0,14,15
 62 65 62 65 62 113 c 0,16,17
 62 150 62 150 89.5 177 c 128,-1,18
 117 204 117 204 155 204 c 0,19,20
 187 204 187 204 220.5 191.5 c 128,-1,21
 254 179 254 179 336 120 c 0,22,23
 388 85 388 85 424 72 c 0,24,25
 451 61 451 61 484 61 c 0,26,27
 553 61 553 61 602 111.5 c 128,-1,28
 651 162 651 162 651 234 c 0,29,30
 651 382 651 382 501.5 475 c 128,-1,31
 352 568 352 568 127 568 c 0,32,33
 104 568 104 568 59 568 c 1,34,-1
 264 1145 l 1,0,-1
EndSplineSet
EndChar

StartChar: six
Encoding: 54 54 18
Width: 865
Flags: W
LayerCount: 2
Fore
SplineSet
813 1145 m 1,0,1
 660 1107 660 1107 567.5 1045.5 c 128,-1,2
 475 984 475 984 421.5 896.5 c 128,-1,3
 368 809 368 809 338 680 c 1,4,5
 375 706 375 706 399 713 c 0,6,7
 454 730 454 730 510 730 c 0,8,9
 638 730 638 730 724 636 c 128,-1,10
 810 542 810 542 810 382 c 0,11,12
 810 268 810 268 763.5 173.5 c 128,-1,13
 717 79 717 79 632 28 c 128,-1,14
 547 -23 547 -23 450 -23 c 0,15,16
 345 -23 345 -23 255 34.5 c 128,-1,17
 165 92 165 92 114.5 203.5 c 128,-1,18
 64 315 64 315 64 445 c 0,19,20
 64 638 64 638 157 804.5 c 128,-1,21
 250 971 250 971 419.5 1069.5 c 128,-1,22
 589 1168 589 1168 813 1169 c 1,23,-1
 813 1145 l 1,0,1
327 612 m 1,24,25
 320 495 320 495 320 442 c 0,26,27
 320 324 320 324 343 215.5 c 128,-1,28
 366 107 366 107 403 62 c 0,29,30
 432 32 432 32 470 32 c 0,31,32
 509 32 509 32 539 77 c 128,-1,33
 569 122 569 122 569 260 c 0,34,35
 569 493 569 493 514 582 c 0,36,37
 476 640 476 640 415 640 c 0,38,39
 381 640 381 640 327 612 c 1,24,25
EndSplineSet
EndChar

StartChar: seven
Encoding: 55 55 19
Width: 865
Flags: W
LayerCount: 2
Fore
SplineSet
306 -23 m 1,0,-1
 619 922 l 1,1,-1
 381 922 l 2,2,3
 242 922 242 922 171 885 c 0,4,5
 123 859 123 859 91 790 c 1,6,-1
 59 790 l 1,7,-1
 141 1145 l 1,8,-1
 824 1145 l 1,9,-1
 440 -23 l 1,10,-1
 306 -23 l 1,0,-1
EndSplineSet
EndChar

StartChar: eight
Encoding: 56 56 20
Width: 865
Flags: W
LayerCount: 2
Fore
SplineSet
589 647 m 1,0,1
 710 559 710 559 757 482 c 128,-1,2
 804 405 804 405 804 306 c 0,3,4
 804 168 804 168 699.5 72.5 c 128,-1,5
 595 -23 595 -23 416 -23 c 0,6,7
 247 -23 247 -23 154 60.5 c 128,-1,8
 61 144 61 144 61 264 c 0,9,10
 61 357 61 357 114.5 426 c 128,-1,11
 168 495 168 495 294 552 c 1,12,13
 157 657 157 657 119 722.5 c 128,-1,14
 81 788 81 788 81 876 c 0,15,16
 81 991 81 991 178.5 1077.5 c 128,-1,17
 276 1164 276 1164 445 1164 c 0,18,19
 610 1164 610 1164 697.5 1087.5 c 128,-1,20
 785 1011 785 1011 785 901 c 0,21,22
 785 822 785 822 737.5 759.5 c 128,-1,23
 690 697 690 697 589 647 c 1,0,1
526 690 m 1,24,25
 557 732 557 732 572.5 784.5 c 128,-1,26
 588 837 588 837 588 900 c 0,27,28
 588 1010 588 1010 540 1068 c 0,29,30
 505 1113 505 1113 442 1113 c 0,31,32
 386 1113 386 1113 346 1072 c 128,-1,33
 306 1031 306 1031 306 970 c 0,34,35
 306 908 306 908 350.5 841.5 c 128,-1,36
 395 775 395 775 526 690 c 1,24,25
357 512 m 1,37,38
 330 488 330 488 319 468 c 0,39,40
 302 440 302 440 289 383 c 128,-1,41
 276 326 276 326 276 264 c 0,42,43
 276 185 276 185 296 131.5 c 128,-1,44
 316 78 316 78 353.5 54.5 c 128,-1,45
 391 31 391 31 431 31 c 0,46,47
 492 31 492 31 534.5 75.5 c 128,-1,48
 577 120 577 120 577 200 c 0,49,50
 577 363 577 363 357 512 c 1,37,38
EndSplineSet
EndChar

StartChar: nine
Encoding: 57 57 21
Width: 865
Flags: W
LayerCount: 2
Fore
SplineSet
53 0 m 1,0,1
 193 32 193 32 291 94.5 c 128,-1,2
 389 157 389 157 446 249 c 128,-1,3
 503 341 503 341 526 462 c 1,4,5
 473 434 473 434 436 423.5 c 128,-1,6
 399 413 399 413 359 413 c 0,7,8
 229 413 229 413 142.5 507 c 128,-1,9
 56 601 56 601 56 763 c 0,10,11
 56 876 56 876 103 971 c 128,-1,12
 150 1066 150 1066 237 1117.5 c 128,-1,13
 324 1169 324 1169 418 1169 c 0,14,15
 517 1169 517 1169 607 1111.5 c 128,-1,16
 697 1054 697 1054 750.5 945 c 128,-1,17
 804 836 804 836 804 697 c 0,18,19
 804 516 804 516 717.5 350.5 c 128,-1,20
 631 185 631 185 459 85.5 c 128,-1,21
 287 -14 287 -14 53 -23 c 1,22,-1
 53 0 l 1,0,1
539 532 m 1,23,24
 547 627 547 627 547 699 c 0,25,26
 547 852 547 852 511 985 c 0,27,28
 492 1058 492 1058 451 1092 c 0,29,30
 430 1112 430 1112 396 1112 c 0,31,32
 354 1112 354 1112 330 1075 c 0,33,34
 298 1025 298 1025 298 885 c 0,35,36
 298 652 298 652 352 563 c 0,37,38
 390 505 390 505 451 505 c 0,39,40
 484 505 484 505 539 532 c 1,23,24
EndSplineSet
EndChar

StartChar: less
Encoding: 60 60 22
Width: 1005
Flags: W
LayerCount: 2
Fore
SplineSet
859 52 m 1,0,-1
 135 400 l 1,1,-1
 135 481 l 1,2,-1
 859 826 l 1,3,-1
 859 706 l 1,4,-1
 298 440 l 1,5,-1
 859 173 l 1,6,-1
 859 52 l 1,0,-1
EndSplineSet
EndChar

StartChar: equal
Encoding: 61 61 23
Width: 1005
Flags: W
LayerCount: 2
Fore
SplineSet
876 605 m 1,0,-1
 130 605 l 1,1,-1
 130 713 l 1,2,-1
 876 713 l 1,3,-1
 876 605 l 1,0,-1
876 322 m 1,4,-1
 130 322 l 1,5,-1
 130 430 l 1,6,-1
 876 430 l 1,7,-1
 876 322 l 1,4,-1
EndSplineSet
EndChar

StartChar: greater
Encoding: 62 62 24
Width: 1005
Flags: W
LayerCount: 2
Fore
SplineSet
869 400 m 1,0,-1
 144 52 l 1,1,-1
 144 173 l 1,2,-1
 707 440 l 1,3,-1
 144 706 l 1,4,-1
 144 826 l 1,5,-1
 869 481 l 1,6,-1
 869 400 l 1,0,-1
EndSplineSet
EndChar

StartChar: question
Encoding: 63 63 25
Width: 865
Flags: W
LayerCount: 2
Fore
SplineSet
411 373 m 1,0,-1
 376 373 l 1,1,2
 373 467 373 467 384 513.5 c 128,-1,3
 395 560 395 560 439.5 642 c 128,-1,4
 484 724 484 724 498 773 c 128,-1,5
 512 822 512 822 512 895 c 0,6,7
 512 1007 512 1007 468 1060 c 128,-1,8
 424 1113 424 1113 365 1113 c 0,9,10
 319 1113 319 1113 287 1089 c 0,11,12
 264 1070 264 1070 264 1049 c 0,13,14
 264 1037 264 1037 279 1007 c 0,15,16
 316 943 316 943 316 898 c 0,17,18
 316 855 316 855 288 828 c 128,-1,19
 260 801 260 801 218 801 c 0,20,21
 170 801 170 801 138 834 c 128,-1,22
 106 867 106 867 106 922 c 0,23,24
 106 1021 106 1021 191.5 1096.5 c 128,-1,25
 277 1172 277 1172 433 1172 c 0,26,27
 596 1172 596 1172 682 1094 c 128,-1,28
 768 1016 768 1016 768 905 c 0,29,30
 768 825 768 825 724 756.5 c 128,-1,31
 680 688 680 688 554 606 c 0,32,33
 470 550 470 550 443 506.5 c 128,-1,34
 416 463 416 463 411 373 c 1,0,-1
401 251 m 0,35,36
 458 251 458 251 498 211 c 128,-1,37
 538 171 538 171 538 114 c 256,38,39
 538 57 538 57 498 17 c 128,-1,40
 458 -23 458 -23 401 -23 c 0,41,42
 345 -23 345 -23 305 17 c 128,-1,43
 265 57 265 57 265 114 c 256,44,45
 265 171 265 171 305 211 c 128,-1,46
 345 251 345 251 401 251 c 0,35,36
EndSplineSet
EndChar

StartChar: at
Encoding: 64 64 26
Width: 1609
Flags: W
LayerCount: 2
Fore
SplineSet
996 781 m 1,0,-1
 1202 790 l 1,1,-1
 1047 260 l 2,2,3
 1021 171 1021 171 1021 128 c 0,4,5
 1021 101 1021 101 1041 81 c 128,-1,6
 1061 61 1061 61 1090 61 c 0,7,8
 1148 61 1148 61 1240 128.5 c 128,-1,9
 1332 196 1332 196 1393 320 c 128,-1,10
 1454 444 1454 444 1454 585 c 0,11,12
 1454 819 1454 819 1304 968.5 c 128,-1,13
 1154 1118 1154 1118 914 1118 c 0,14,15
 706 1118 706 1118 536 1020.5 c 128,-1,16
 366 923 366 923 266.5 737 c 128,-1,17
 167 551 167 551 167 339 c 0,18,19
 167 46 167 46 353 -140 c 128,-1,20
 539 -326 539 -326 827 -326 c 0,21,22
 1065 -326 1065 -326 1253.5 -198.5 c 128,-1,23
 1442 -71 1442 -71 1520 139 c 1,24,-1
 1572 139 l 1,25,26
 1470 -108 1470 -108 1276 -240.5 c 128,-1,27
 1082 -373 1082 -373 826 -373 c 0,28,29
 500 -373 500 -373 289 -163.5 c 128,-1,30
 78 46 78 46 78 369 c 0,31,32
 78 589 78 589 182.5 778.5 c 128,-1,33
 287 968 287 968 476 1070 c 128,-1,34
 665 1172 665 1172 896 1172 c 0,35,36
 1082 1172 1082 1172 1222 1097 c 128,-1,37
 1362 1022 1362 1022 1431.5 887 c 128,-1,38
 1501 752 1501 752 1501 602 c 0,39,40
 1501 426 1501 426 1426 281.5 c 128,-1,41
 1351 137 1351 137 1238.5 68.5 c 128,-1,42
 1126 0 1126 0 995 0 c 0,43,44
 911 0 911 0 867.5 41.5 c 128,-1,45
 824 83 824 83 824 148 c 0,46,47
 824 193 824 193 844 267 c 1,48,49
 774 150 774 150 735 106 c 0,50,51
 683 45 683 45 630 18 c 0,52,53
 595 0 595 0 552 0 c 0,54,55
 492 0 492 0 451.5 47.5 c 128,-1,56
 411 95 411 95 411 188 c 0,57,58
 411 282 411 282 438.5 373 c 128,-1,59
 466 464 466 464 513 543.5 c 128,-1,60
 560 623 560 623 622 686.5 c 128,-1,61
 684 750 684 750 762 792 c 0,62,63
 802 813 802 813 847 813 c 0,64,65
 895 813 895 813 926 783.5 c 128,-1,66
 957 754 957 754 968 682 c 1,67,-1
 996 781 l 1,0,-1
868 753 m 0,68,69
 836 753 836 753 804 717 c 0,70,71
 762 669 762 669 715 557 c 0,72,73
 628 355 628 355 628 232 c 0,74,75
 628 196 628 196 644 175.5 c 128,-1,76
 660 155 660 155 678 155 c 0,77,78
 695 155 695 155 725 179 c 0,79,80
 768 211 768 211 817 290 c 128,-1,81
 866 369 866 369 897 464.5 c 128,-1,82
 928 560 928 560 928 641 c 0,83,84
 928 699 928 699 906 730 c 0,85,86
 890 753 890 753 868 753 c 0,68,69
EndSplineSet
EndChar

StartChar: A
Encoding: 65 65 27
Width: 1249
Flags: W
LayerCount: 2
Fore
SplineSet
720 326 m 1,0,-1
 315 326 l 1,1,-1
 267 214 l 2,2,3
 243 158 243 158 243 123 c 0,4,5
 243 74 243 74 282 52 c 0,6,7
 305 38 305 38 395 32 c 1,8,-1
 395 0 l 1,9,-1
 13 0 l 1,10,-1
 13 32 l 1,11,12
 75 40 75 40 115 82.5 c 128,-1,13
 155 125 155 125 213 255 c 2,14,-1
 623 1169 l 1,15,-1
 638 1169 l 1,16,-1
 1052 230 l 2,17,18
 1111 96 1111 96 1149 61 c 0,19,20
 1177 36 1177 36 1230 32 c 1,21,-1
 1230 0 l 1,22,-1
 676 0 l 1,23,-1
 676 32 l 1,24,-1
 699 32 l 2,25,26
 766 32 766 32 792 50 c 0,27,28
 811 63 811 63 811 88 c 0,29,30
 811 104 811 104 805 120 c 0,31,32
 804 128 804 128 780 183 c 2,33,-1
 720 326 l 1,0,-1
690 389 m 1,34,-1
 520 783 l 1,35,-1
 345 389 l 1,36,-1
 690 389 l 1,34,-1
EndSplineSet
EndChar

StartChar: B
Encoding: 66 66 28
Width: 1154
Flags: W
LayerCount: 2
Fore
SplineSet
770 607 m 1,0,1
 932 569 932 569 999 516 c 0,2,3
 1092 439 1092 439 1092 316 c 0,4,5
 1092 187 1092 187 990 103 c 0,6,7
 862 0 862 0 619 0 c 2,8,-1
 36 0 l 1,9,-1
 36 32 l 1,10,11
 116 32 116 32 144 46.5 c 128,-1,12
 172 61 172 61 184 84.5 c 128,-1,13
 196 108 196 108 196 201 c 2,14,-1
 196 944 l 2,15,16
 196 1037 196 1037 184 1061.5 c 128,-1,17
 172 1086 172 1086 143.5 1100 c 128,-1,18
 115 1114 115 1114 36 1114 c 1,19,-1
 36 1145 l 1,20,-1
 585 1145 l 2,21,22
 782 1145 782 1145 864.5 1110 c 128,-1,23
 947 1075 947 1075 994.5 1005.5 c 128,-1,24
 1042 936 1042 936 1042 857 c 0,25,26
 1042 775 1042 775 981.5 710 c 128,-1,27
 921 645 921 645 770 607 c 1,0,1
463 631 m 1,28,29
 582 631 582 631 639 657.5 c 128,-1,30
 696 684 696 684 726.5 733 c 128,-1,31
 757 782 757 782 757 858 c 0,32,33
 757 935 757 935 727 983.5 c 128,-1,34
 697 1032 697 1032 641 1057 c 128,-1,35
 585 1082 585 1082 463 1081 c 1,36,-1
 463 631 l 1,28,29
463 564 m 1,37,-1
 463 197 l 1,38,-1
 462 155 l 2,39,40
 462 108 462 108 485 85 c 128,-1,41
 508 62 508 62 553 62 c 0,42,43
 621 62 621 62 678 92.5 c 128,-1,44
 735 123 735 123 765.5 179.5 c 128,-1,45
 796 236 796 236 796 306 c 0,46,47
 796 387 796 387 758.5 451 c 128,-1,48
 721 515 721 515 656 539.5 c 128,-1,49
 591 564 591 564 463 564 c 1,37,-1
EndSplineSet
EndChar

StartChar: C
Encoding: 67 67 29
Width: 1249
Flags: W
LayerCount: 2
Fore
SplineSet
1155 1172 m 1,0,-1
 1155 775 l 1,1,-1
 1121 775 l 1,2,3
 1085 930 1085 930 983.5 1013 c 128,-1,4
 882 1096 882 1096 754 1096 c 0,5,6
 646 1096 646 1096 556.5 1034 c 128,-1,7
 467 972 467 972 425 873 c 0,8,9
 372 746 372 746 372 589 c 0,10,11
 372 435 372 435 411 308.5 c 128,-1,12
 450 182 450 182 532.5 117.5 c 128,-1,13
 615 53 615 53 748 53 c 0,14,15
 855 53 855 53 945.5 100.5 c 128,-1,16
 1036 148 1036 148 1135 264 c 1,17,-1
 1135 165 l 1,18,19
 1039 64 1039 64 934.5 18.5 c 128,-1,20
 830 -27 830 -27 690 -27 c 0,21,22
 508 -27 508 -27 365.5 46.5 c 128,-1,23
 223 120 223 120 145.5 258 c 128,-1,24
 68 396 68 396 68 551 c 0,25,26
 68 716 68 716 154 863 c 128,-1,27
 240 1010 240 1010 385.5 1091 c 128,-1,28
 531 1172 531 1172 695 1172 c 0,29,30
 816 1172 816 1172 950 1119 c 0,31,32
 1028 1089 1028 1089 1049 1089 c 0,33,34
 1076 1089 1076 1089 1096 1109 c 128,-1,35
 1116 1129 1116 1129 1121 1172 c 1,36,-1
 1155 1172 l 1,0,-1
EndSplineSet
EndChar

StartChar: D
Encoding: 68 68 30
Width: 1249
Flags: W
LayerCount: 2
Fore
SplineSet
23 0 m 1,0,-1
 23 32 l 1,1,-1
 61 32 l 2,2,3
 111 32 111 32 137 47 c 128,-1,4
 163 62 163 62 177 90 c 0,5,6
 183 108 183 108 183 197 c 2,7,-1
 183 949 l 2,8,9
 183 1037 183 1037 174.5 1059 c 128,-1,10
 166 1081 166 1081 137 1097.5 c 128,-1,11
 108 1114 108 1114 61 1114 c 2,12,-1
 23 1114 l 1,13,-1
 23 1145 l 1,14,-1
 536 1145 l 2,15,16
 741 1145 741 1145 866 1090 c 0,17,18
 1019 1021 1019 1021 1097.5 883 c 128,-1,19
 1176 745 1176 745 1176 569 c 0,20,21
 1176 449 1176 449 1137.5 347 c 128,-1,22
 1099 245 1099 245 1037 178.5 c 128,-1,23
 975 112 975 112 894.5 72 c 128,-1,24
 814 32 814 32 698 11 c 0,25,26
 646 0 646 0 536 0 c 2,27,-1
 23 0 l 1,0,-1
460 1080 m 1,28,-1
 460 187 l 2,29,30
 460 116 460 116 466.5 100 c 128,-1,31
 473 84 473 84 489 75 c 0,32,33
 512 62 512 62 556 62 c 0,34,35
 696 62 696 62 771 158 c 0,36,37
 873 289 873 289 873 563 c 0,38,39
 873 783 873 783 803 915 c 0,40,41
 748 1018 748 1018 661 1055 c 0,42,43
 601 1081 601 1081 460 1080 c 1,28,-1
EndSplineSet
EndChar

StartChar: E
Encoding: 69 69 31
Width: 1154
Flags: W
LayerCount: 2
Fore
SplineSet
471 1079 m 1,0,-1
 471 613 l 1,1,-1
 494 613 l 2,2,3
 603 613 603 613 652 681.5 c 128,-1,4
 701 750 701 750 715 884 c 1,5,-1
 747 884 l 1,6,-1
 747 284 l 1,7,-1
 715 284 l 1,8,9
 705 382 705 382 672.5 444.5 c 128,-1,10
 640 507 640 507 596.5 528.5 c 128,-1,11
 553 550 553 550 471 550 c 1,12,-1
 471 228 l 2,13,14
 471 133 471 133 479.5 112 c 128,-1,15
 488 91 488 91 509.5 77 c 128,-1,16
 531 63 531 63 581 63 c 2,17,-1
 648 63 l 2,18,19
 809 63 809 63 906 137.5 c 128,-1,20
 1003 212 1003 212 1045 365 c 1,21,-1
 1076 365 l 1,22,-1
 1024 0 l 1,23,-1
 35 0 l 1,24,-1
 35 32 l 1,25,-1
 73 32 l 2,26,27
 123 32 123 32 153 49 c 0,28,29
 176 61 176 61 187 90 c 0,30,31
 197 109 197 109 197 197 c 2,32,-1
 197 949 l 2,33,34
 197 1027 197 1027 192 1045 c 0,35,36
 183 1075 183 1075 160 1091 c 0,37,38
 129 1114 129 1114 73 1114 c 2,39,-1
 35 1114 l 1,40,-1
 35 1145 l 1,41,-1
 994 1145 l 1,42,-1
 994 806 l 1,43,-1
 961 806 l 1,44,45
 937 931 937 931 892.5 985 c 128,-1,46
 848 1039 848 1039 767 1065 c 0,47,48
 720 1079 720 1079 589 1079 c 2,49,-1
 471 1079 l 1,0,-1
EndSplineSet
EndChar

StartChar: F
Encoding: 70 70 32
Width: 1057
Flags: W
LayerCount: 2
Fore
SplineSet
475 1079 m 1,0,-1
 475 610 l 1,1,-1
 509 610 l 2,2,3
 585 610 585 610 633.5 632.5 c 128,-1,4
 682 655 682 655 715 708.5 c 128,-1,5
 748 762 748 762 758 855 c 1,6,-1
 788 855 l 1,7,-1
 788 279 l 1,8,-1
 758 279 l 1,9,10
 741 443 741 443 670 495 c 128,-1,11
 599 547 599 547 509 547 c 2,12,-1
 475 547 l 1,13,-1
 475 197 l 2,14,15
 475 108 475 108 485 86 c 128,-1,16
 495 64 495 64 523 48 c 128,-1,17
 551 32 551 32 600 32 c 2,18,-1
 637 32 l 1,19,-1
 637 0 l 1,20,-1
 39 0 l 1,21,-1
 39 32 l 1,22,-1
 77 32 l 2,23,24
 127 32 127 32 157 49 c 0,25,26
 180 61 180 61 191 90 c 0,27,28
 201 109 201 109 201 197 c 2,29,-1
 201 949 l 2,30,31
 201 1037 201 1037 191 1059 c 128,-1,32
 181 1081 181 1081 153 1097.5 c 128,-1,33
 125 1114 125 1114 77 1114 c 2,34,-1
 39 1114 l 1,35,-1
 39 1145 l 1,36,-1
 1005 1145 l 1,37,-1
 1005 817 l 1,38,-1
 971 817 l 1,39,40
 959 932 959 932 910.5 988 c 128,-1,41
 862 1044 862 1044 770 1067 c 0,42,43
 719 1079 719 1079 582 1079 c 2,44,-1
 475 1079 l 1,0,-1
EndSplineSet
EndChar

StartChar: G
Encoding: 71 71 33
Width: 1345
Flags: W
LayerCount: 2
Fore
SplineSet
1193 1172 m 1,0,-1
 1193 768 l 1,1,-1
 1163 768 l 1,2,3
 1106 933 1106 933 992.5 1019.5 c 128,-1,4
 879 1106 879 1106 746 1106 c 0,5,6
 616 1106 616 1106 530.5 1033.5 c 128,-1,7
 445 961 445 961 410 832.5 c 128,-1,8
 375 704 375 704 375 567 c 0,9,10
 375 402 375 402 414 278.5 c 128,-1,11
 453 155 453 155 539.5 95.5 c 128,-1,12
 626 36 626 36 746 36 c 0,13,14
 787 36 787 36 830.5 45.5 c 128,-1,15
 874 55 874 55 919 72 c 1,16,-1
 919 310 l 2,17,18
 919 378 919 378 909.5 398 c 128,-1,19
 900 418 900 418 871.5 434 c 128,-1,20
 843 450 843 450 801 450 c 2,21,-1
 771 450 l 1,22,-1
 771 481 l 1,23,-1
 1329 481 l 1,24,-1
 1329 450 l 1,25,26
 1265 445 1265 445 1239.5 432.5 c 128,-1,27
 1214 420 1214 420 1202 389 c 0,28,29
 1193 372 1193 372 1193 310 c 2,30,-1
 1193 72 l 1,31,32
 1084 23 1084 23 965.5 -2.5 c 128,-1,33
 847 -28 847 -28 719 -28 c 0,34,35
 556 -28 556 -28 448 16.5 c 128,-1,36
 340 61 340 61 258 133.5 c 128,-1,37
 176 206 176 206 129 297 c 0,38,39
 70 413 70 413 70 558 c 0,40,41
 70 816 70 816 251.5 994 c 128,-1,42
 433 1172 433 1172 708 1172 c 0,43,44
 794 1172 794 1172 863 1160 c 0,45,46
 900 1152 900 1152 983.5 1120.5 c 128,-1,47
 1067 1089 1067 1089 1081 1089 c 0,48,49
 1105 1089 1105 1089 1125 1106 c 128,-1,50
 1145 1123 1145 1123 1163 1172 c 1,51,-1
 1193 1172 l 1,0,-1
EndSplineSet
EndChar

StartChar: H
Encoding: 72 72 34
Width: 1345
Flags: W
LayerCount: 2
Fore
SplineSet
473 551 m 1,0,-1
 473 197 l 2,1,2
 473 108 473 108 482.5 86 c 128,-1,3
 492 64 492 64 520.5 48 c 128,-1,4
 549 32 549 32 598 32 c 2,5,-1
 636 32 l 1,6,-1
 636 0 l 1,7,-1
 36 0 l 1,8,-1
 36 32 l 1,9,-1
 74 32 l 2,10,11
 125 32 125 32 155 49 c 0,12,13
 177 61 177 61 188 90 c 0,14,15
 198 109 198 109 198 197 c 2,16,-1
 198 949 l 2,17,18
 198 1037 198 1037 189 1059 c 128,-1,19
 180 1081 180 1081 151.5 1097.5 c 128,-1,20
 123 1114 123 1114 74 1114 c 2,21,-1
 36 1114 l 1,22,-1
 36 1145 l 1,23,-1
 636 1145 l 1,24,-1
 636 1114 l 1,25,-1
 598 1114 l 2,26,27
 547 1114 547 1114 517 1096 c 0,28,29
 495 1085 495 1085 483 1056 c 0,30,31
 473 1036 473 1036 473 949 c 2,32,-1
 473 625 l 1,33,-1
 877 625 l 1,34,-1
 877 949 l 2,35,36
 877 1037 877 1037 868 1059 c 128,-1,37
 859 1081 859 1081 830.5 1097.5 c 128,-1,38
 802 1114 802 1114 754 1114 c 2,39,-1
 716 1114 l 1,40,-1
 716 1145 l 1,41,-1
 1314 1145 l 1,42,-1
 1314 1114 l 1,43,-1
 1278 1114 l 2,44,45
 1227 1114 1227 1114 1197 1096 c 0,46,47
 1175 1085 1175 1085 1163 1056 c 0,48,49
 1153 1036 1153 1036 1153 949 c 2,50,-1
 1153 197 l 2,51,52
 1153 108 1153 108 1162.5 86 c 128,-1,53
 1172 64 1172 64 1200.5 48 c 128,-1,54
 1229 32 1229 32 1278 32 c 2,55,-1
 1314 32 l 1,56,-1
 1314 0 l 1,57,-1
 716 0 l 1,58,-1
 716 32 l 1,59,-1
 754 32 l 2,60,61
 804 32 804 32 834 49 c 0,62,63
 855 61 855 61 868 90 c 0,64,65
 877 109 877 109 877 197 c 2,66,-1
 877 551 l 1,67,-1
 473 551 l 1,0,-1
EndSplineSet
EndChar

StartChar: I
Encoding: 73 73 35
Width: 674
Flags: W
LayerCount: 2
Fore
SplineSet
634 32 m 1,0,-1
 634 0 l 1,1,-1
 35 0 l 1,2,-1
 35 32 l 1,3,-1
 73 32 l 2,4,5
 123 32 123 32 153 49 c 0,6,7
 176 61 176 61 187 90 c 0,8,9
 197 109 197 109 197 197 c 2,10,-1
 197 949 l 2,11,12
 197 1037 197 1037 187.5 1059 c 128,-1,13
 178 1081 178 1081 149 1097.5 c 128,-1,14
 120 1114 120 1114 73 1114 c 2,15,-1
 35 1114 l 1,16,-1
 35 1145 l 1,17,-1
 634 1145 l 1,18,-1
 634 1114 l 1,19,-1
 595 1114 l 2,20,21
 546 1114 546 1114 516 1096 c 0,22,23
 493 1085 493 1085 481 1056 c 0,24,25
 471 1036 471 1036 471 949 c 2,26,-1
 471 197 l 2,27,28
 471 108 471 108 481.5 86 c 128,-1,29
 492 64 492 64 519.5 48 c 128,-1,30
 547 32 547 32 595 32 c 2,31,-1
 634 32 l 1,0,-1
EndSplineSet
EndChar

StartChar: J
Encoding: 74 74 36
Width: 865
Flags: W
LayerCount: 2
Fore
SplineSet
246 1114 m 1,0,-1
 246 1145 l 1,1,-1
 855 1145 l 1,2,-1
 855 1114 l 1,3,-1
 817 1114 l 2,4,5
 767 1114 767 1114 737 1096 c 0,6,7
 716 1085 716 1085 704 1056 c 0,8,9
 694 1036 694 1036 694 949 c 2,10,-1
 694 389 l 2,11,12
 694 224 694 224 660.5 149 c 128,-1,13
 627 74 627 74 543.5 23.5 c 128,-1,14
 460 -27 460 -27 341 -27 c 0,15,16
 197 -27 197 -27 108 49.5 c 128,-1,17
 19 126 19 126 19 218 c 0,18,19
 19 276 19 276 55 313 c 128,-1,20
 91 350 91 350 144 350 c 0,21,22
 196 350 196 350 230.5 317.5 c 128,-1,23
 265 285 265 285 265 236 c 0,24,25
 265 213 265 213 260 196 c 0,26,27
 255 187 255 187 232 152.5 c 128,-1,28
 209 118 209 118 209 104 c 0,29,30
 209 83 209 83 231 65 c 0,31,32
 264 42 264 42 315 42 c 0,33,34
 351 42 351 42 375 60.5 c 128,-1,35
 399 79 399 79 409 118.5 c 128,-1,36
 419 158 419 158 419 337 c 2,37,-1
 419 949 l 2,38,39
 419 1037 419 1037 409 1059 c 128,-1,40
 399 1081 399 1081 370.5 1097.5 c 128,-1,41
 342 1114 342 1114 294 1114 c 2,42,-1
 246 1114 l 1,0,-1
EndSplineSet
EndChar

StartChar: K
Encoding: 75 75 37
Width: 1345
Flags: W
LayerCount: 2
Fore
SplineSet
720 708 m 1,0,-1
 1123 203 l 2,1,2
 1209 96 1209 96 1270 59 c 0,3,4
 1316 32 1316 32 1365 32 c 1,5,-1
 1365 0 l 1,6,-1
 769 0 l 1,7,-1
 769 32 l 1,8,9
 826 36 826 36 842 48.5 c 128,-1,10
 858 61 858 61 858 81 c 0,11,12
 858 116 858 116 780 213 c 2,13,-1
 517 543 l 1,14,-1
 475 509 l 1,15,-1
 475 197 l 2,16,17
 475 107 475 107 485.5 84.5 c 128,-1,18
 496 62 496 62 524.5 47 c 128,-1,19
 553 32 553 32 616 32 c 1,20,-1
 616 0 l 1,21,-1
 39 0 l 1,22,-1
 39 32 l 1,23,-1
 77 32 l 2,24,25
 127 32 127 32 157 49 c 0,26,27
 180 61 180 61 191 90 c 0,28,29
 201 109 201 109 201 197 c 2,30,-1
 201 949 l 2,31,32
 201 1037 201 1037 191 1059 c 128,-1,33
 181 1081 181 1081 153 1097.5 c 128,-1,34
 125 1114 125 1114 77 1114 c 2,35,-1
 39 1114 l 1,36,-1
 39 1145 l 1,37,-1
 610 1145 l 1,38,-1
 610 1114 l 1,39,40
 551 1114 551 1114 520 1097 c 0,41,42
 498 1086 498 1086 486 1058 c 0,43,44
 475 1037 475 1037 475 949 c 2,45,-1
 475 593 l 1,46,-1
 900 937 l 2,47,48
 990 1008 990 1008 990 1052 c 0,49,50
 990 1084 990 1084 952 1102 c 0,51,52
 935 1112 935 1112 861 1114 c 1,53,-1
 861 1145 l 1,54,-1
 1308 1145 l 1,55,-1
 1308 1114 l 1,56,57
 1248 1110 1248 1110 1214 1092.5 c 128,-1,58
 1180 1075 1180 1075 1056 975 c 2,59,-1
 720 708 l 1,0,-1
EndSplineSet
EndChar

StartChar: L
Encoding: 76 76 38
Width: 1154
Flags: W
LayerCount: 2
Fore
SplineSet
1092 402 m 1,0,-1
 1049 0 l 1,1,-1
 32 0 l 1,2,-1
 32 32 l 1,3,-1
 70 32 l 2,4,5
 120 32 120 32 150 49 c 0,6,7
 172 61 172 61 183 90 c 0,8,9
 193 109 193 109 193 197 c 2,10,-1
 193 949 l 2,11,12
 193 1037 193 1037 184.5 1059 c 128,-1,13
 176 1081 176 1081 147 1097.5 c 128,-1,14
 118 1114 118 1114 70 1114 c 2,15,-1
 32 1114 l 1,16,-1
 32 1145 l 1,17,-1
 643 1145 l 1,18,-1
 643 1114 l 1,19,-1
 593 1114 l 2,20,21
 542 1114 542 1114 514 1096 c 0,22,23
 492 1085 492 1085 478 1056 c 0,24,25
 468 1036 468 1036 468 949 c 2,26,-1
 468 220 l 2,27,28
 468 132 468 132 478.5 108 c 128,-1,29
 489 84 489 84 518 72 c 0,30,31
 540 64 540 64 621 64 c 2,32,-1
 716 64 l 2,33,34
 808 64 808 64 868.5 96.5 c 128,-1,35
 929 129 929 129 973.5 198 c 128,-1,36
 1018 267 1018 267 1058 402 c 1,37,-1
 1092 402 l 1,0,-1
EndSplineSet
EndChar

StartChar: M
Encoding: 77 77 39
Width: 1633
Flags: W
LayerCount: 2
Fore
SplineSet
825 391 m 1,0,-1
 1135 1145 l 1,1,-1
 1602 1145 l 1,2,-1
 1602 1114 l 1,3,-1
 1565 1114 l 2,4,5
 1514 1114 1514 1114 1484 1096 c 0,6,7
 1463 1085 1463 1085 1450 1057 c 0,8,9
 1440 1037 1440 1037 1440 951 c 2,10,-1
 1440 197 l 2,11,12
 1440 108 1440 108 1449.5 86 c 128,-1,13
 1459 64 1459 64 1488 48 c 128,-1,14
 1517 32 1517 32 1565 32 c 2,15,-1
 1602 32 l 1,16,-1
 1602 0 l 1,17,-1
 1003 0 l 1,18,-1
 1003 32 l 1,19,-1
 1042 32 l 2,20,21
 1092 32 1092 32 1121 49 c 0,22,23
 1142 61 1142 61 1155 90 c 0,24,25
 1164 109 1164 109 1164 197 c 2,26,-1
 1164 1045 l 1,27,-1
 726 0 l 1,28,-1
 706 0 l 1,29,-1
 260 1037 l 1,30,-1
 260 230 l 2,31,32
 260 146 260 146 264 127 c 0,33,34
 275 84 275 84 311.5 58 c 128,-1,35
 348 32 348 32 426 32 c 1,36,-1
 426 0 l 1,37,-1
 35 0 l 1,38,-1
 35 32 l 1,39,-1
 46 32 l 2,40,41
 84 31 84 31 117 44 c 128,-1,42
 150 57 150 57 166.5 79 c 128,-1,43
 183 101 183 101 193 140 c 0,44,45
 196 150 196 150 196 226 c 2,46,-1
 196 951 l 2,47,48
 196 1038 196 1038 186.5 1059.5 c 128,-1,49
 177 1081 177 1081 148 1097.5 c 128,-1,50
 119 1114 119 1114 71 1114 c 2,51,-1
 35 1114 l 1,52,-1
 35 1145 l 1,53,-1
 503 1145 l 1,54,-1
 825 391 l 1,0,-1
EndSplineSet
EndChar

StartChar: N
Encoding: 78 78 40
Width: 1249
Flags: W
LayerCount: 2
Fore
SplineSet
431 1145 m 1,0,-1
 996 435 l 1,1,-1
 996 927 l 2,2,3
 996 1031 996 1031 967 1067 c 0,4,5
 926 1116 926 1116 830 1114 c 1,6,-1
 830 1145 l 1,7,-1
 1209 1145 l 1,8,-1
 1209 1114 l 1,9,10
 1137 1105 1137 1105 1112 1090 c 128,-1,11
 1087 1075 1087 1075 1072.5 1041.5 c 128,-1,12
 1058 1008 1058 1008 1058 927 c 2,13,-1
 1058 -27 l 1,14,-1
 1029 -27 l 1,15,-1
 255 927 l 1,16,-1
 255 200 l 2,17,18
 255 101 255 101 300.5 66.5 c 128,-1,19
 346 32 346 32 403 32 c 2,20,-1
 431 32 l 1,21,-1
 431 0 l 1,22,-1
 24 0 l 1,23,-1
 24 32 l 1,24,25
 119 32 119 32 156 70 c 128,-1,26
 193 108 193 108 193 200 c 2,27,-1
 193 1007 l 1,28,-1
 169 1038 l 2,29,30
 133 1084 133 1084 105 1098.5 c 128,-1,31
 77 1113 77 1113 24 1114 c 1,32,-1
 24 1145 l 1,33,-1
 431 1145 l 1,0,-1
EndSplineSet
EndChar

StartChar: O
Encoding: 79 79 41
Width: 1345
Flags: W
LayerCount: 2
Fore
SplineSet
668 1162 m 1,0,1
 942 1172 942 1172 1113 1002 c 128,-1,2
 1284 832 1284 832 1284 577 c 0,3,4
 1284 359 1284 359 1156 193 c 0,5,6
 987 -27 987 -27 679 -27 c 0,7,8
 370 -27 370 -27 201 183 c 0,9,10
 67 348 67 348 67 577 c 0,11,12
 67 831 67 831 241 1001.5 c 128,-1,13
 415 1172 415 1172 668 1162 c 1,0,1
678 1108 m 0,14,15
 521 1108 521 1108 440 948 c 0,16,17
 372 815 372 815 372 568 c 0,18,19
 372 276 372 276 475 135 c 0,20,21
 547 36 547 36 677 36 c 0,22,23
 763 36 763 36 822 79 c 0,24,25
 897 133 897 133 938 252 c 128,-1,26
 979 371 979 371 979 562 c 0,27,28
 979 789 979 789 937 902 c 128,-1,29
 895 1015 895 1015 829 1061.5 c 128,-1,30
 763 1108 763 1108 678 1108 c 0,14,15
EndSplineSet
EndChar

StartChar: P
Encoding: 80 80 42
Width: 1057
Flags: W
LayerCount: 2
Fore
SplineSet
467 518 m 1,0,-1
 467 201 l 2,1,2
 467 108 467 108 478.5 84 c 128,-1,3
 490 60 490 60 519 46 c 128,-1,4
 548 32 548 32 626 32 c 1,5,-1
 626 0 l 1,6,-1
 44 0 l 1,7,-1
 44 32 l 1,8,9
 124 32 124 32 152 46.5 c 128,-1,10
 180 61 180 61 191.5 84.5 c 128,-1,11
 203 108 203 108 203 201 c 2,12,-1
 203 944 l 2,13,14
 203 1037 203 1037 191.5 1061.5 c 128,-1,15
 180 1086 180 1086 151.5 1100 c 128,-1,16
 123 1114 123 1114 44 1114 c 1,17,-1
 44 1145 l 1,18,-1
 542 1145 l 2,19,20
 790 1145 790 1145 897 1057.5 c 128,-1,21
 1004 970 1004 970 1004 838 c 0,22,23
 1004 727 1004 727 935 647.5 c 128,-1,24
 866 568 866 568 745 539 c 0,25,26
 662 518 662 518 467 518 c 1,0,-1
467 1079 m 1,27,-1
 467 585 l 1,28,29
 495 583 495 583 509 583 c 0,30,31
 612 583 612 583 668.5 644.5 c 128,-1,32
 725 706 725 706 725 834 c 0,33,34
 725 961 725 961 668.5 1020 c 128,-1,35
 612 1079 612 1079 501 1079 c 2,36,-1
 467 1079 l 1,27,-1
EndSplineSet
EndChar

StartChar: Q
Encoding: 81 81 43
Width: 1345
Flags: W
LayerCount: 2
Fore
SplineSet
827 -11 m 1,0,1
 866 -123 866 -123 947.5 -179 c 128,-1,2
 1029 -235 1029 -235 1153 -235 c 0,3,4
 1187 -235 1187 -235 1225 -229 c 1,5,-1
 1225 -281 l 1,6,7
 1097 -313 1097 -313 996 -313 c 0,8,9
 840 -313 840 -313 716 -235.5 c 128,-1,10
 592 -158 592 -158 530 -11 c 1,11,12
 322 34 322 34 194.5 193 c 128,-1,13
 67 352 67 352 67 574 c 0,14,15
 67 831 67 831 239.5 1001.5 c 128,-1,16
 412 1172 412 1172 678 1172 c 0,17,18
 942 1172 942 1172 1113.5 1001 c 128,-1,19
 1285 830 1285 830 1285 574 c 0,20,21
 1285 351 1285 351 1150.5 186.5 c 128,-1,22
 1016 22 1016 22 827 -11 c 1,0,1
677 1108 m 0,23,24
 525 1108 525 1108 442 949 c 0,25,26
 372 817 372 817 372 572 c 0,27,28
 372 277 372 277 476 136 c 0,29,30
 549 36 549 36 677 36 c 0,31,32
 804 36 804 36 876 134 c 0,33,34
 981 274 981 274 981 553 c 0,35,36
 981 829 981 829 916 952 c 0,37,38
 834 1108 834 1108 677 1108 c 0,23,24
EndSplineSet
EndChar

StartChar: R
Encoding: 82 82 44
Width: 1249
Flags: W
LayerCount: 2
Fore
SplineSet
460 521 m 1,0,-1
 460 201 l 2,1,2
 460 108 460 108 471.5 84 c 128,-1,3
 483 60 483 60 511.5 46 c 128,-1,4
 540 32 540 32 619 32 c 1,5,-1
 619 0 l 1,6,-1
 32 0 l 1,7,-1
 32 32 l 1,8,9
 112 32 112 32 140 46.5 c 128,-1,10
 168 61 168 61 179.5 84.5 c 128,-1,11
 191 108 191 108 191 201 c 2,12,-1
 191 944 l 2,13,14
 191 1037 191 1037 179.5 1061.5 c 128,-1,15
 168 1086 168 1086 139.5 1100 c 128,-1,16
 111 1114 111 1114 32 1114 c 1,17,-1
 32 1145 l 1,18,-1
 564 1145 l 2,19,20
 772 1145 772 1145 868.5 1116.5 c 128,-1,21
 965 1088 965 1088 1026 1010.5 c 128,-1,22
 1087 933 1087 933 1087 830 c 0,23,24
 1087 704 1087 704 995 620 c 0,25,26
 937 568 937 568 832 541 c 1,27,-1
 1108 155 l 2,28,29
 1162 78 1162 78 1185 60 c 0,30,31
 1218 34 1218 34 1265 32 c 1,32,-1
 1265 0 l 1,33,-1
 904 0 l 1,34,-1
 535 521 l 1,35,-1
 460 521 l 1,0,-1
460 1084 m 1,36,-1
 460 582 l 1,37,-1
 508 582 l 2,38,39
 625 582 625 582 683 603.5 c 128,-1,40
 741 625 741 625 775 681 c 128,-1,41
 809 737 809 737 809 828 c 0,42,43
 809 959 809 959 747.5 1021.5 c 128,-1,44
 686 1084 686 1084 550 1084 c 2,45,-1
 460 1084 l 1,36,-1
EndSplineSet
EndChar

StartChar: S
Encoding: 83 83 45
Width: 962
Flags: W
LayerCount: 2
Fore
SplineSet
813 1172 m 1,0,-1
 822 790 l 1,1,-1
 788 790 l 1,2,3
 762 933 762 933 666.5 1021 c 128,-1,4
 571 1109 571 1109 460 1109 c 0,5,6
 373 1109 373 1109 323 1062.5 c 128,-1,7
 273 1016 273 1016 273 957 c 0,8,9
 273 919 273 919 290 889 c 0,10,11
 315 849 315 849 370 810 c 0,12,13
 409 782 409 782 552 711 c 0,14,15
 754 612 754 612 824 525 c 0,16,17
 894 437 894 437 894 324 c 0,18,19
 894 180 894 180 781.5 76 c 128,-1,20
 669 -28 669 -28 496 -28 c 0,21,22
 443 -28 443 -28 395 -17 c 128,-1,23
 347 -6 347 -6 274 25 c 0,24,25
 233 42 233 42 207 42 c 0,26,27
 185 42 185 42 160.5 25.5 c 128,-1,28
 136 9 136 9 120 -27 c 1,29,-1
 90 -27 l 1,30,-1
 90 407 l 1,31,-1
 120 407 l 1,32,33
 158 224 158 224 264 128 c 128,-1,34
 370 32 370 32 492 32 c 0,35,36
 588 32 588 32 643.5 83.5 c 128,-1,37
 699 135 699 135 699 204 c 0,38,39
 699 244 699 244 678 282 c 128,-1,40
 657 320 657 320 612.5 354.5 c 128,-1,41
 568 389 568 389 457 444 c 0,42,43
 300 520 300 520 231.5 574 c 128,-1,44
 163 628 163 628 127 695 c 128,-1,45
 91 762 91 762 91 843 c 0,46,47
 91 979 91 979 191.5 1075.5 c 128,-1,48
 292 1172 292 1172 444 1172 c 0,49,50
 500 1172 500 1172 552 1159 c 0,51,52
 592 1148 592 1148 649.5 1120 c 128,-1,53
 707 1092 707 1092 729 1092 c 256,54,55
 751 1092 751 1092 764 1106 c 128,-1,56
 777 1120 777 1120 788 1172 c 1,57,-1
 813 1172 l 1,0,-1
EndSplineSet
EndChar

StartChar: T
Encoding: 84 84 46
Width: 1154
Flags: W
LayerCount: 2
Fore
SplineSet
1092 1145 m 1,0,-1
 1092 835 l 1,1,-1
 1061 835 l 1,2,3
 1034 943 1034 943 1001.5 990 c 128,-1,4
 969 1037 969 1037 910 1065 c 0,5,6
 878 1079 878 1079 799 1079 c 2,7,-1
 713 1079 l 1,8,-1
 713 197 l 2,9,10
 713 108 713 108 722.5 86 c 128,-1,11
 732 64 732 64 760.5 48 c 128,-1,12
 789 32 789 32 838 32 c 2,13,-1
 876 32 l 1,14,-1
 876 0 l 1,15,-1
 276 0 l 1,16,-1
 276 32 l 1,17,-1
 315 32 l 2,18,19
 365 32 365 32 395 49 c 0,20,21
 416 61 416 61 429 90 c 0,22,23
 439 109 439 109 439 197 c 2,24,-1
 439 1079 l 1,25,-1
 356 1079 l 2,26,27
 240 1079 240 1079 188 1031 c 0,28,29
 114 962 114 962 95 835 c 1,30,-1
 62 835 l 1,31,-1
 62 1145 l 1,32,-1
 1092 1145 l 1,0,-1
EndSplineSet
EndChar

StartChar: U
Encoding: 85 85 47
Width: 1249
Flags: W
LayerCount: 2
Fore
SplineSet
40 1145 m 1,0,-1
 632 1145 l 1,1,-1
 632 1114 l 1,2,-1
 602 1114 l 2,3,4
 536 1114 536 1114 511 1100.5 c 128,-1,5
 486 1087 486 1087 475.5 1062 c 128,-1,6
 465 1037 465 1037 465 940 c 2,7,-1
 465 378 l 2,8,9
 465 225 465 225 488 175 c 128,-1,10
 511 125 511 125 564 92.5 c 128,-1,11
 617 60 617 60 699 60 c 0,12,13
 792 60 792 60 857.5 101 c 128,-1,14
 923 142 923 142 955 215.5 c 128,-1,15
 987 289 987 289 987 472 c 2,16,-1
 987 940 l 2,17,18
 987 1016 987 1016 971.5 1049 c 128,-1,19
 956 1082 956 1082 931 1095 c 0,20,21
 894 1114 894 1114 824 1114 c 1,22,-1
 824 1145 l 1,23,-1
 1219 1145 l 1,24,-1
 1219 1114 l 1,25,-1
 1196 1114 l 2,26,27
 1148 1114 1148 1114 1116 1094.5 c 128,-1,28
 1084 1075 1084 1075 1069 1037 c 0,29,30
 1058 1010 1058 1010 1058 940 c 2,31,-1
 1058 505 l 2,32,33
 1058 302 1058 302 1031.5 213 c 128,-1,34
 1005 124 1005 124 902.5 48 c 128,-1,35
 800 -28 800 -28 621 -28 c 0,36,37
 472 -28 472 -28 391 12 c 0,38,39
 281 66 281 66 235 150.5 c 128,-1,40
 189 235 189 235 189 378 c 2,41,-1
 189 940 l 2,42,43
 189 1038 189 1038 178 1062.5 c 128,-1,44
 167 1087 167 1087 140 1101.5 c 128,-1,45
 113 1116 113 1116 40 1114 c 1,46,-1
 40 1145 l 1,0,-1
EndSplineSet
EndChar

StartChar: V
Encoding: 86 86 48
Width: 1249
Flags: W
LayerCount: 2
Fore
SplineSet
1232 1145 m 1,0,-1
 1232 1114 l 1,1,2
 1169 1105 1169 1105 1120 1047 c 0,3,4
 1085 1005 1085 1005 1015 849 c 2,5,-1
 620 -27 l 1,6,-1
 592 -27 l 1,7,-1
 200 885 l 2,8,9
 129 1049 129 1049 105 1078 c 128,-1,10
 81 1107 81 1107 13 1114 c 1,11,-1
 13 1145 l 1,12,-1
 563 1145 l 1,13,-1
 563 1114 l 1,14,-1
 543 1114 l 2,15,16
 470 1114 470 1114 443 1096 c 0,17,18
 423 1084 423 1084 423 1058 c 0,19,20
 423 1044 423 1044 430 1023 c 128,-1,21
 437 1002 437 1002 475 911 c 2,22,-1
 720 341 l 1,23,-1
 947 849 l 2,24,25
 986 941 986 941 995.5 972 c 128,-1,26
 1005 1003 1005 1003 1005 1025 c 0,27,28
 1005 1050 1005 1050 991.5 1070 c 128,-1,29
 978 1090 978 1090 952 1100 c 0,30,31
 916 1114 916 1114 855 1114 c 1,32,-1
 855 1145 l 1,33,-1
 1232 1145 l 1,0,-1
EndSplineSet
EndChar

StartChar: W
Encoding: 87 87 49
Width: 1730
Flags: W
LayerCount: 2
Fore
SplineSet
1715 1145 m 1,0,-1
 1715 1114 l 1,1,2
 1683 1112 1683 1112 1661 1096.5 c 128,-1,3
 1639 1081 1639 1081 1622 1049 c 0,4,5
 1617 1040 1617 1040 1570 919 c 2,6,-1
 1211 -27 l 1,7,-1
 1176 -27 l 1,8,-1
 894 711 l 1,9,-1
 581 -27 l 1,10,-1
 549 -27 l 1,11,-1
 172 909 l 2,12,13
 115 1049 115 1049 92.5 1079 c 128,-1,14
 70 1109 70 1109 14 1114 c 1,15,-1
 14 1145 l 1,16,-1
 512 1145 l 1,17,-1
 512 1114 l 1,18,19
 452 1113 452 1113 432 1096 c 128,-1,20
 412 1079 412 1079 412 1055 c 0,21,22
 412 1023 412 1023 454 919 c 2,23,-1
 678 363 l 1,24,-1
 858 798 l 1,25,-1
 811 919 l 2,26,27
 772 1019 772 1019 751 1052.5 c 128,-1,28
 730 1086 730 1086 702.5 1100 c 128,-1,29
 675 1114 675 1114 622 1114 c 1,30,-1
 622 1145 l 1,31,-1
 1176 1145 l 1,32,-1
 1176 1114 l 1,33,34
 1118 1113 1118 1113 1092 1105 c 0,35,36
 1075 1099 1075 1099 1065 1084.5 c 128,-1,37
 1055 1070 1055 1070 1055 1054 c 0,38,39
 1055 1034 1055 1034 1092 935 c 2,40,-1
 1302 392 l 1,41,-1
 1489 883 l 2,42,43
 1519 959 1519 959 1525 987 c 128,-1,44
 1531 1015 1531 1015 1531 1038 c 0,45,46
 1531 1073 1531 1073 1508 1093 c 128,-1,47
 1485 1113 1485 1113 1417 1114 c 1,48,-1
 1417 1145 l 1,49,-1
 1715 1145 l 1,0,-1
EndSplineSet
EndChar

StartChar: X
Encoding: 88 88 50
Width: 1249
Flags: W
LayerCount: 2
Fore
SplineSet
731 672 m 1,0,-1
 1046 203 l 2,1,2
 1126 86 1126 86 1159 61 c 128,-1,3
 1192 36 1192 36 1237 32 c 1,4,-1
 1237 0 l 1,5,-1
 679 0 l 1,6,-1
 679 32 l 1,7,8
 746 36 746 36 765 51 c 128,-1,9
 784 66 784 66 784 88 c 0,10,11
 784 104 784 104 780 116 c 0,12,13
 767 141 767 141 720 210 c 2,14,-1
 552 458 l 1,15,-1
 378 244 l 2,16,17
 299 147 299 147 299 112 c 0,18,19
 299 87 299 87 319.5 66 c 128,-1,20
 340 45 340 45 379 36 c 0,21,22
 397 32 397 32 452 32 c 1,23,-1
 452 0 l 1,24,-1
 12 0 l 1,25,-1
 12 32 l 1,26,27
 86 42 86 42 130 72 c 0,28,29
 187 111 187 111 288 234 c 2,30,-1
 516 511 l 1,31,-1
 224 940 l 2,32,33
 152 1045 152 1045 141 1057 c 0,34,35
 119 1085 119 1085 97 1097 c 128,-1,36
 75 1109 75 1109 36 1114 c 1,37,-1
 36 1145 l 1,38,-1
 605 1145 l 1,39,-1
 605 1114 l 1,40,-1
 577 1114 l 2,41,42
 527 1114 527 1114 507.5 1099 c 128,-1,43
 488 1084 488 1084 488 1059 c 0,44,45
 488 1042 488 1042 494 1027 c 2,46,-1
 552 940 l 1,47,-1
 695 724 l 1,48,-1
 815 872 l 2,49,50
 908 985 908 985 908 1031 c 0,51,52
 908 1054 908 1054 895 1073 c 128,-1,53
 882 1092 882 1092 857.5 1103 c 128,-1,54
 833 1114 833 1114 781 1114 c 1,55,-1
 781 1145 l 1,56,-1
 1203 1145 l 1,57,-1
 1203 1114 l 1,58,59
 1153 1113 1153 1113 1122.5 1102 c 128,-1,60
 1092 1091 1092 1091 1058 1059 c 0,61,62
 1036 1039 1036 1039 948 933 c 2,63,-1
 731 672 l 1,0,-1
EndSplineSet
EndChar

StartChar: Y
Encoding: 89 89 51
Width: 1249
Flags: W
LayerCount: 2
Fore
SplineSet
1230 1145 m 1,0,-1
 1230 1114 l 1,1,2
 1173 1107 1173 1107 1142 1081 c 0,3,4
 1100 1045 1100 1045 1010 888 c 2,5,-1
 761 473 l 1,6,-1
 761 197 l 2,7,8
 761 108 761 108 770.5 86 c 128,-1,9
 780 64 780 64 807 48 c 128,-1,10
 834 32 834 32 880 32 c 2,11,-1
 944 32 l 1,12,-1
 944 0 l 1,13,-1
 302 0 l 1,14,-1
 302 32 l 1,15,-1
 361 32 l 2,16,17
 412 32 412 32 442 49 c 0,18,19
 464 61 464 61 476 90 c 0,20,21
 486 109 486 109 486 197 c 2,22,-1
 486 425 l 1,23,-1
 217 917 l 2,24,25
 136 1063 136 1063 103 1088 c 128,-1,26
 70 1113 70 1113 14 1114 c 1,27,-1
 14 1145 l 1,28,-1
 564 1145 l 1,29,-1
 564 1114 l 1,30,-1
 540 1114 l 2,31,32
 490 1114 490 1114 470 1100 c 128,-1,33
 450 1086 450 1086 450 1069 c 0,34,35
 450 1039 450 1039 517 917 c 2,36,-1
 725 538 l 1,37,-1
 931 883 l 2,38,39
 1007 1010 1007 1010 1007 1050 c 0,40,41
 1007 1074 1007 1074 986 1089 c 0,42,43
 957 1110 957 1110 880 1114 c 1,44,-1
 880 1145 l 1,45,-1
 1230 1145 l 1,0,-1
EndSplineSet
EndChar

StartChar: Z
Encoding: 90 90 52
Width: 1154
Flags: W
LayerCount: 2
Fore
SplineSet
1056 1145 m 1,0,-1
 382 64 l 1,1,-1
 601 64 l 2,2,3
 756 64 756 64 817 84 c 0,4,5
 918 114 918 114 990.5 195 c 128,-1,6
 1063 276 1063 276 1091 414 c 1,7,-1
 1123 414 l 1,8,-1
 1077 0 l 1,9,-1
 28 0 l 1,10,-1
 703 1084 l 1,11,-1
 532 1084 l 2,12,13
 433 1084 433 1084 402 1077 c 0,14,15
 344 1067 344 1067 291.5 1034 c 128,-1,16
 239 1001 239 1001 205 947.5 c 128,-1,17
 171 894 171 894 151 810 c 1,18,-1
 120 810 l 1,19,-1
 151 1145 l 1,20,-1
 1056 1145 l 1,0,-1
EndSplineSet
EndChar

StartChar: bracketleft
Encoding: 91 91 53
Width: 577
Flags: W
LayerCount: 2
Fore
SplineSet
180 -316 m 1,0,-1
 180 1145 l 1,1,-1
 520 1145 l 1,2,-1
 520 1110 l 1,3,-1
 483 1110 l 2,4,5
 426 1110 426 1110 407.5 1099 c 128,-1,6
 389 1088 389 1088 379.5 1065.5 c 128,-1,7
 370 1043 370 1043 370 957 c 2,8,-1
 370 -133 l 2,9,10
 370 -214 370 -214 372 -226 c 0,11,12
 380 -256 380 -256 400.5 -270.5 c 128,-1,13
 421 -285 421 -285 483 -285 c 2,14,-1
 520 -285 l 1,15,-1
 520 -316 l 1,16,-1
 180 -316 l 1,0,-1
EndSplineSet
EndChar

StartChar: backslash
Encoding: 92 92 54
Width: 481
Flags: W
LayerCount: 2
Fore
SplineSet
2 1172 m 1,0,-1
 108 1172 l 1,1,-1
 486 -27 l 1,2,-1
 377 -27 l 1,3,-1
 2 1172 l 1,0,-1
EndSplineSet
EndChar

StartChar: bracketright
Encoding: 93 93 55
Width: 577
Flags: W
LayerCount: 2
Fore
SplineSet
396 1145 m 1,0,-1
 396 -316 l 1,1,-1
 57 -316 l 1,2,-1
 57 -284 l 1,3,-1
 95 -284 l 2,4,5
 150 -284 150 -284 169 -273 c 128,-1,6
 188 -262 188 -262 198 -239.5 c 128,-1,7
 208 -217 208 -217 208 -132 c 2,8,-1
 208 960 l 2,9,10
 208 1042 208 1042 204 1053 c 0,11,12
 197 1082 197 1082 176.5 1097 c 128,-1,13
 156 1112 156 1112 95 1112 c 2,14,-1
 57 1112 l 1,15,-1
 57 1145 l 1,16,-1
 396 1145 l 1,0,-1
EndSplineSet
EndChar

StartChar: asciicircum
Encoding: 94 94 56
Width: 1005
Flags: W
LayerCount: 2
Fore
SplineSet
125 563 m 1,0,-1
 471 1169 l 1,1,-1
 540 1169 l 1,2,-1
 882 563 l 1,3,-1
 748 563 l 1,4,-1
 498 995 l 1,5,-1
 253 563 l 1,6,-1
 125 563 l 1,0,-1
EndSplineSet
EndChar

StartChar: underscore
Encoding: 95 95 57
Width: 865
Flags: W
LayerCount: 2
Fore
SplineSet
-16 -263 m 1,0,-1
 880 -263 l 1,1,-1
 880 -373 l 1,2,-1
 -16 -373 l 1,3,-1
 -16 -263 l 1,0,-1
EndSplineSet
EndChar

StartChar: grave
Encoding: 96 96 58
Width: 204
Flags: W
LayerCount: 2
Fore
SplineSet
115 962 m 1,0,1
 149 885 149 885 169 817 c 1,2,3
 176 767 176 767 165 773 c 1,4,5
 144 804 144 804 98.5 890 c 128,-1,6
 53 976 53 976 44 1007 c 1,7,8
 41 1043 41 1043 115 962 c 1,0,1
EndSplineSet
EndChar

StartChar: a
Encoding: 97 97 59
Width: 865
Flags: W
LayerCount: 2
Fore
SplineSet
494 116 m 1,0,1
 349 -11 349 -11 234 -11 c 0,2,3
 167 -11 167 -11 122.5 33.5 c 128,-1,4
 78 78 78 78 78 145 c 0,5,6
 78 234 78 234 155.5 306.5 c 128,-1,7
 233 379 233 379 494 499 c 1,8,-1
 494 579 l 2,9,10
 494 668 494 668 484.5 691.5 c 128,-1,11
 475 715 475 715 447.5 732.5 c 128,-1,12
 420 750 420 750 387 750 c 0,13,14
 331 750 331 750 297 725 c 0,15,16
 275 709 275 709 275 689 c 0,17,18
 275 672 275 672 298 645 c 0,19,20
 330 610 330 610 330 575 c 0,21,22
 330 535 330 535 299 505 c 128,-1,23
 268 475 268 475 219 475 c 0,24,25
 166 475 166 475 130 507.5 c 128,-1,26
 94 540 94 540 94 583 c 0,27,28
 94 644 94 644 142 699 c 128,-1,29
 190 754 190 754 276 783.5 c 128,-1,30
 362 813 362 813 455 813 c 0,31,32
 568 813 568 813 633.5 765.5 c 128,-1,33
 699 718 699 718 718 662 c 0,34,35
 730 627 730 627 730 499 c 2,36,-1
 730 192 l 2,37,38
 730 138 730 138 734 124.5 c 128,-1,39
 738 111 738 111 747 104 c 128,-1,40
 756 97 756 97 767 97 c 0,41,42
 788 97 788 97 811 129 c 1,43,-1
 836 108 l 1,44,45
 794 45 794 45 749 17 c 128,-1,46
 704 -11 704 -11 646 -11 c 0,47,48
 579 -11 579 -11 541 21 c 128,-1,49
 503 53 503 53 494 116 c 1,0,1
494 179 m 1,50,-1
 494 443 l 1,51,52
 392 382 392 382 342 315 c 0,53,54
 309 268 309 268 309 222 c 0,55,56
 309 183 309 183 337 155 c 0,57,58
 358 131 358 131 396 131 c 0,59,60
 439 131 439 131 494 179 c 1,50,-1
EndSplineSet
EndChar

StartChar: b
Encoding: 98 98 60
Width: 962
Flags: W
LayerCount: 2
Fore
SplineSet
365 1145 m 1,0,-1
 365 710 l 1,1,2
 464 813 464 813 582 813 c 0,3,4
 663 813 663 813 734.5 765.5 c 128,-1,5
 806 718 806 718 847 630 c 128,-1,6
 888 542 888 542 888 428 c 0,7,8
 888 298 888 298 836 192 c 128,-1,9
 784 86 784 86 698 31.5 c 128,-1,10
 612 -23 612 -23 501 -23 c 0,11,12
 437 -23 437 -23 387.5 -3 c 128,-1,13
 338 17 338 17 289 62 c 1,14,-1
 158 -23 l 1,15,-1
 130 -23 l 1,16,-1
 130 982 l 2,17,18
 130 1049 130 1049 125 1067 c 0,19,20
 116 1090 116 1090 97.5 1101.5 c 128,-1,21
 79 1113 79 1113 36 1114 c 1,22,-1
 36 1145 l 1,23,-1
 365 1145 l 1,0,-1
365 636 m 1,24,-1
 365 284 l 2,25,26
 365 177 365 177 370 147 c 0,27,28
 378 97 378 97 410 66.5 c 128,-1,29
 442 36 442 36 492 36 c 0,30,31
 535 36 535 36 565.5 60 c 128,-1,32
 596 84 596 84 616.5 157 c 128,-1,33
 637 230 637 230 637 420 c 0,34,35
 637 601 637 601 592 668 c 0,36,37
 560 717 560 717 504 717 c 0,38,39
 431 717 431 717 365 636 c 1,24,-1
EndSplineSet
EndChar

StartChar: c
Encoding: 99 99 61
Width: 768
Flags: W
LayerCount: 2
Fore
SplineSet
704 204 m 1,0,-1
 729 183 l 1,1,2
 674 78 674 78 590.5 27.5 c 128,-1,3
 507 -23 507 -23 413 -23 c 0,4,5
 255 -23 255 -23 160 95.5 c 128,-1,6
 65 214 65 214 65 382 c 0,7,8
 65 542 65 542 152 665 c 0,9,10
 255 813 255 813 439 813 c 0,11,12
 561 813 561 813 633.5 751.5 c 128,-1,13
 706 690 706 690 706 614 c 0,14,15
 706 566 706 566 676.5 537.5 c 128,-1,16
 647 509 647 509 600 509 c 0,17,18
 550 509 550 509 517.5 541.5 c 128,-1,19
 485 574 485 574 477 659 c 0,20,21
 472 711 472 711 453 732 c 0,22,23
 433 754 433 754 408 754 c 0,24,25
 367 754 367 754 338 711 c 0,26,27
 294 646 294 646 294 512 c 0,28,29
 294 400 294 400 330 298.5 c 128,-1,30
 366 197 366 197 426 147 c 0,31,32
 473 111 473 111 537 111 c 0,33,34
 578 111 578 111 615.5 130.5 c 128,-1,35
 653 150 653 150 704 204 c 1,0,-1
EndSplineSet
EndChar

StartChar: d
Encoding: 100 100 62
Width: 962
Flags: W
LayerCount: 2
Fore
SplineSet
826 1145 m 1,0,-1
 826 236 l 2,1,2
 826 145 826 145 831 128 c 0,3,4
 838 99 838 99 857 86 c 128,-1,5
 876 73 876 73 923 70 c 1,6,-1
 923 41 l 1,7,-1
 589 -23 l 1,8,-1
 589 102 l 1,9,10
 530 29 530 29 483 3 c 128,-1,11
 436 -23 436 -23 377 -23 c 0,12,13
 226 -23 226 -23 137 112 c 0,14,15
 66 222 66 222 66 381 c 0,16,17
 66 509 66 509 110.5 609.5 c 128,-1,18
 155 710 155 710 231 761.5 c 128,-1,19
 307 813 307 813 395 813 c 0,20,21
 452 813 452 813 496 791.5 c 128,-1,22
 540 770 540 770 589 715 c 1,23,-1
 589 952 l 2,24,25
 589 1044 589 1044 582 1063 c 0,26,27
 572 1087 572 1087 551.5 1098.5 c 128,-1,28
 531 1110 531 1110 475 1110 c 1,29,-1
 475 1145 l 1,30,-1
 826 1145 l 1,0,-1
589 611 m 1,31,32
 527 730 527 730 437 730 c 0,33,34
 405 730 405 730 386 713 c 0,35,36
 354 686 354 686 334.5 621 c 128,-1,37
 315 556 315 556 315 420 c 0,38,39
 315 269 315 269 336.5 197.5 c 128,-1,40
 358 126 358 126 396 94 c 0,41,42
 416 78 416 78 450 78 c 0,43,44
 524 78 524 78 589 194 c 1,45,-1
 589 611 l 1,31,32
EndSplineSet
EndChar

StartChar: e
Encoding: 101 101 63
Width: 768
Flags: W
LayerCount: 2
Fore
SplineSet
728 423 m 1,0,-1
 294 423 l 1,1,2
 302 266 302 266 378 176 c 0,3,4
 436 105 436 105 517 105 c 0,5,6
 568 105 568 105 610 133 c 128,-1,7
 652 161 652 161 699 234 c 1,8,-1
 728 217 l 1,9,10
 663 85 663 85 585.5 31 c 128,-1,11
 508 -23 508 -23 405 -23 c 0,12,13
 230 -23 230 -23 139 112 c 0,14,15
 66 221 66 221 66 382 c 0,16,17
 66 580 66 580 173.5 696.5 c 128,-1,18
 281 813 281 813 424 813 c 0,19,20
 543 813 543 813 631.5 714.5 c 128,-1,21
 720 616 720 616 728 423 c 1,0,-1
519 479 m 1,22,23
 519 615 519 615 504.5 666 c 128,-1,24
 490 717 490 717 458 743 c 0,25,26
 442 758 442 758 412 758 c 0,27,28
 368 758 368 758 340 716 c 0,29,30
 289 640 289 640 289 509 c 2,31,-1
 289 479 l 1,32,-1
 519 479 l 1,22,23
EndSplineSet
EndChar

StartChar: f
Encoding: 102 102 64
Width: 577
Flags: W
LayerCount: 2
Fore
SplineSet
404 708 m 1,0,-1
 404 158 l 2,1,2
 404 79 404 79 421 60 c 0,3,4
 449 28 449 28 521 31 c 1,5,-1
 521 0 l 1,6,-1
 56 0 l 1,7,-1
 56 31 l 1,8,9
 108 32 108 32 131.5 43 c 128,-1,10
 155 54 155 54 163 74.5 c 128,-1,11
 171 95 171 95 171 158 c 2,12,-1
 171 708 l 1,13,-1
 56 708 l 1,14,-1
 56 790 l 1,15,-1
 171 790 l 1,16,-1
 171 848 l 1,17,-1
 170 888 l 2,18,19
 170 1010 170 1010 259 1091 c 128,-1,20
 348 1172 348 1172 500 1172 c 0,21,22
 604 1172 604 1172 654.5 1133 c 128,-1,23
 705 1094 705 1094 705 1046 c 0,24,25
 705 1008 705 1008 673.5 980 c 128,-1,26
 642 952 642 952 590 952 c 0,27,28
 547 952 547 952 521 975.5 c 128,-1,29
 495 999 495 999 495 1026 c 0,30,31
 495 1034 495 1034 500 1058 c 0,32,33
 504 1071 504 1071 504 1085 c 0,34,35
 504 1102 504 1102 493 1111 c 0,36,37
 479 1123 479 1123 461 1123 c 0,38,39
 436 1123 436 1123 419.5 1103.5 c 128,-1,40
 403 1084 403 1084 403 1038 c 2,41,-1
 404 890 l 1,42,-1
 404 790 l 1,43,-1
 521 790 l 1,44,-1
 521 708 l 1,45,-1
 404 708 l 1,0,-1
EndSplineSet
EndChar

StartChar: g
Encoding: 103 103 65
Width: 865
Flags: W
LayerCount: 2
Fore
SplineSet
564 780 m 1,0,-1
 831 780 l 1,1,-1
 831 687 l 1,2,-1
 680 687 l 1,3,4
 721 646 721 646 737 612 c 0,5,6
 758 567 758 567 758 517 c 0,7,8
 758 433 758 433 711 370.5 c 128,-1,9
 664 308 664 308 583.5 273.5 c 128,-1,10
 503 239 503 239 441 239 c 0,11,12
 435 239 435 239 339 243 c 0,13,14
 300 243 300 243 275 217.5 c 128,-1,15
 250 192 250 192 250 158 c 0,16,17
 250 128 250 128 273 108 c 128,-1,18
 296 88 296 88 348 88 c 2,19,-1
 494 91 l 2,20,21
 672 91 672 91 738 52 c 0,22,23
 834 -2 834 -2 834 -115 c 0,24,25
 834 -187 834 -187 790 -245.5 c 128,-1,26
 746 -304 746 -304 674 -331 c 0,27,28
 564 -373 564 -373 423 -373 c 0,29,30
 317 -373 317 -373 229 -352 c 128,-1,31
 141 -331 141 -331 103 -295 c 128,-1,32
 65 -259 65 -259 65 -218 c 0,33,34
 65 -180 65 -180 94.5 -148.5 c 128,-1,35
 124 -117 124 -117 203 -96 c 1,36,37
 93 -42 93 -42 93 54 c 0,38,39
 93 112 93 112 137.5 167 c 128,-1,40
 182 222 182 222 279 263 c 1,41,42
 167 304 167 304 116 372 c 128,-1,43
 65 440 65 440 65 528 c 0,44,45
 65 644 65 644 159.5 728.5 c 128,-1,46
 254 813 254 813 403 813 c 0,47,48
 482 813 482 813 564 780 c 1,0,-1
420 761 m 0,49,50
 370 761 370 761 336 711.5 c 128,-1,51
 302 662 302 662 302 507 c 0,52,53
 302 381 302 381 336 334 c 128,-1,54
 370 287 370 287 415 287 c 0,55,56
 466 287 466 287 499.5 333.5 c 128,-1,57
 533 380 533 380 533 515 c 0,58,59
 533 665 533 665 495 720 c 0,60,61
 468 761 468 761 420 761 c 0,49,50
370 -116 m 0,62,63
 283 -116 283 -116 255 -131 c 0,64,65
 207 -157 207 -157 207 -202 c 0,66,67
 207 -245 207 -245 256.5 -280 c 128,-1,68
 306 -315 306 -315 444 -315 c 0,69,70
 562 -315 562 -315 629 -283.5 c 128,-1,71
 696 -252 696 -252 696 -197 c 0,72,73
 696 -176 696 -176 684 -160 c 0,74,75
 661 -135 661 -135 614.5 -125.5 c 128,-1,76
 568 -116 568 -116 370 -116 c 0,62,63
EndSplineSet
EndChar

StartChar: h
Encoding: 104 104 66
Width: 962
Flags: W
LayerCount: 2
Fore
SplineSet
381 1145 m 1,0,-1
 381 688 l 1,1,2
 445 757 445 757 499.5 785 c 128,-1,3
 554 813 554 813 612 813 c 0,4,5
 686 813 686 813 739 771 c 128,-1,6
 792 729 792 729 809.5 671.5 c 128,-1,7
 827 614 827 614 827 479 c 2,8,-1
 827 171 l 2,9,10
 827 82 827 82 844 59 c 128,-1,11
 861 36 861 36 912 31 c 1,12,-1
 912 0 l 1,13,-1
 512 0 l 1,14,-1
 512 31 l 1,15,16
 554 36 554 36 575 64 c 0,17,18
 590 86 590 86 590 171 c 2,19,-1
 590 524 l 2,20,21
 590 622 590 622 582.5 647 c 128,-1,22
 575 672 575 672 557 685.5 c 128,-1,23
 539 699 539 699 516 699 c 0,24,25
 483 699 483 699 451 676 c 128,-1,26
 419 653 419 653 381 594 c 1,27,-1
 381 171 l 2,28,29
 381 86 381 86 394 65 c 0,30,31
 410 36 410 36 460 31 c 1,32,-1
 460 0 l 1,33,-1
 60 0 l 1,34,-1
 60 31 l 1,35,36
 108 36 108 36 130 62 c 0,37,38
 145 82 145 82 145 171 c 2,39,-1
 145 973 l 2,40,41
 145 1064 145 1064 128.5 1086 c 128,-1,42
 112 1108 112 1108 60 1114 c 1,43,-1
 60 1145 l 1,44,-1
 381 1145 l 1,0,-1
EndSplineSet
EndChar

StartChar: i
Encoding: 105 105 67
Width: 481
Flags: W
LayerCount: 2
Fore
SplineSet
248 1172 m 0,0,1
 303 1172 303 1172 341 1134 c 128,-1,2
 379 1096 379 1096 379 1042 c 0,3,4
 379 987 379 987 340.5 949 c 128,-1,5
 302 911 302 911 248 911 c 256,6,7
 194 911 194 911 156 949 c 128,-1,8
 118 987 118 987 118 1042 c 0,9,10
 118 1096 118 1096 156 1134 c 128,-1,11
 194 1172 194 1172 248 1172 c 0,0,1
367 790 m 1,12,-1
 367 163 l 2,13,14
 367 81 367 81 386 57.5 c 128,-1,15
 405 34 405 34 463 31 c 1,16,-1
 463 0 l 1,17,-1
 36 0 l 1,18,-1
 36 31 l 1,19,20
 87 32 87 32 113 61 c 0,21,22
 130 81 130 81 130 163 c 2,23,-1
 130 625 l 2,24,25
 130 708 130 708 110.5 732 c 128,-1,26
 91 756 91 756 36 758 c 1,27,-1
 36 790 l 1,28,-1
 367 790 l 1,12,-1
EndSplineSet
EndChar

StartChar: j
Encoding: 106 106 68
Width: 577
Flags: W
LayerCount: 2
Fore
SplineSet
300 1172 m 0,0,1
 355 1172 355 1172 392.5 1134 c 128,-1,2
 430 1096 430 1096 430 1044 c 0,3,4
 430 990 430 990 392 952 c 128,-1,5
 354 914 354 914 300 914 c 0,6,7
 247 914 247 914 209 952 c 128,-1,8
 171 990 171 990 171 1044 c 0,9,10
 171 1096 171 1096 209 1134 c 128,-1,11
 247 1172 247 1172 300 1172 c 0,0,1
420 790 m 1,12,-1
 420 -28 l 2,13,14
 420 -143 420 -143 404 -198 c 0,15,16
 383 -276 383 -276 320 -324.5 c 128,-1,17
 257 -373 257 -373 155 -373 c 0,18,19
 51 -373 51 -373 1 -331 c 128,-1,20
 -49 -289 -49 -289 -49 -229 c 0,21,22
 -49 -192 -49 -192 -23 -164.5 c 128,-1,23
 3 -137 3 -137 38 -137 c 0,24,25
 70 -137 70 -137 89 -156.5 c 128,-1,26
 108 -176 108 -176 108 -213 c 0,27,28
 108 -223 108 -223 107 -236 c 0,29,30
 105 -254 105 -254 105 -261 c 0,31,32
 105 -291 105 -291 118 -305 c 0,33,34
 132 -319 132 -319 153 -319 c 0,35,36
 172 -319 172 -319 186.5 -302 c 128,-1,37
 201 -285 201 -285 201 -254 c 0,38,39
 201 -238 201 -238 196 -186 c 0,40,41
 187 -92 187 -92 186 -73 c 2,42,-1
 183 128 l 1,43,-1
 183 615 l 1,44,-1
 183 660 l 2,45,46
 183 713 183 713 165.5 733 c 128,-1,47
 148 753 148 753 90 758 c 1,48,-1
 90 790 l 1,49,-1
 420 790 l 1,12,-1
EndSplineSet
EndChar

StartChar: k
Encoding: 107 107 69
Width: 962
Flags: W
LayerCount: 2
Fore
SplineSet
379 1145 m 1,0,-1
 379 392 l 1,1,-1
 563 572 l 2,2,3
 619 627 619 627 633 651.5 c 128,-1,4
 647 676 647 676 647 699 c 0,5,6
 647 721 647 721 629 736.5 c 128,-1,7
 611 752 611 752 556 758 c 1,8,-1
 556 790 l 1,9,-1
 910 790 l 1,10,-1
 910 758 l 1,11,12
 859 756 859 756 821 734.5 c 128,-1,13
 783 713 783 713 673 605 c 2,14,-1
 586 520 l 1,15,-1
 772 248 l 2,16,17
 885 83 885 83 906 62 c 0,18,19
 935 34 935 34 978 31 c 1,20,-1
 978 0 l 1,21,-1
 570 0 l 1,22,-1
 570 31 l 1,23,24
 598 31 598 31 610 41 c 128,-1,25
 622 51 622 51 622 62 c 0,26,27
 622 83 622 83 586 134 c 2,28,-1
 430 363 l 1,29,-1
 379 314 l 1,30,-1
 379 171 l 2,31,32
 379 82 379 82 396 59 c 128,-1,33
 413 36 413 36 466 31 c 1,34,-1
 466 0 l 1,35,-1
 57 0 l 1,36,-1
 57 31 l 1,37,38
 108 36 108 36 129 62 c 0,39,40
 142 82 142 82 142 171 c 2,41,-1
 142 973 l 2,42,43
 142 1064 142 1064 125.5 1086 c 128,-1,44
 109 1108 109 1108 57 1114 c 1,45,-1
 57 1145 l 1,46,-1
 379 1145 l 1,0,-1
EndSplineSet
EndChar

StartChar: l
Encoding: 108 108 70
Width: 481
Flags: W
LayerCount: 2
Fore
SplineSet
368 1145 m 1,0,-1
 368 163 l 2,1,2
 368 81 368 81 387.5 57.5 c 128,-1,3
 407 34 407 34 463 31 c 1,4,-1
 463 0 l 1,5,-1
 36 0 l 1,6,-1
 36 31 l 1,7,8
 88 32 88 32 114 61 c 0,9,10
 131 81 131 81 131 163 c 2,11,-1
 131 982 l 2,12,13
 131 1065 131 1065 111.5 1088 c 128,-1,14
 92 1111 92 1111 36 1114 c 1,15,-1
 36 1145 l 1,16,-1
 368 1145 l 1,0,-1
EndSplineSet
EndChar

StartChar: m
Encoding: 109 109 71
Width: 1442
Flags: W
LayerCount: 2
Fore
SplineSet
387 790 m 1,0,-1
 387 686 l 1,1,2
 451 757 451 757 506.5 785 c 128,-1,3
 562 813 562 813 627 813 c 0,4,5
 704 813 704 813 755 777.5 c 128,-1,6
 806 742 806 742 834 669 c 1,7,8
 901 746 901 746 963.5 779.5 c 128,-1,9
 1026 813 1026 813 1094 813 c 0,10,11
 1176 813 1176 813 1225 775.5 c 128,-1,12
 1274 738 1274 738 1292.5 680.5 c 128,-1,13
 1311 623 1311 623 1311 496 c 2,14,-1
 1311 172 l 2,15,16
 1311 82 1311 82 1327.5 59 c 128,-1,17
 1344 36 1344 36 1396 31 c 1,18,-1
 1396 0 l 1,19,-1
 989 0 l 1,20,-1
 989 31 l 1,21,22
 1037 35 1037 35 1059 67 c 0,23,24
 1075 91 1075 91 1075 172 c 2,25,-1
 1075 512 l 2,26,27
 1075 617 1075 617 1066.5 646 c 128,-1,28
 1058 675 1058 675 1039.5 689.5 c 128,-1,29
 1021 704 1021 704 996 704 c 0,30,31
 961 704 961 704 923.5 676.5 c 128,-1,32
 886 649 886 649 848 596 c 1,33,-1
 848 172 l 2,34,35
 848 86 848 86 863 65 c 0,36,37
 882 34 882 34 937 31 c 1,38,-1
 937 0 l 1,39,-1
 528 0 l 1,40,-1
 528 31 l 1,41,42
 561 32 561 32 580 46.5 c 128,-1,43
 599 61 599 61 605.5 82.5 c 128,-1,44
 612 104 612 104 612 172 c 2,45,-1
 612 512 l 2,46,47
 612 619 612 619 603 646.5 c 128,-1,48
 594 674 594 674 575 689 c 128,-1,49
 556 704 556 704 532 704 c 0,50,51
 498 704 498 704 471 686 c 0,52,53
 431 660 431 660 387 596 c 1,54,-1
 387 172 l 2,55,56
 387 88 387 88 403.5 62 c 128,-1,57
 420 36 420 36 471 31 c 1,58,-1
 471 0 l 1,59,-1
 64 0 l 1,60,-1
 64 31 l 1,61,62
 114 36 114 36 135 62 c 0,63,64
 150 82 150 82 150 172 c 2,65,-1
 150 619 l 2,66,67
 150 708 150 708 133 730 c 128,-1,68
 116 752 116 752 64 758 c 1,69,-1
 64 790 l 1,70,-1
 387 790 l 1,0,-1
EndSplineSet
EndChar

StartChar: n
Encoding: 110 110 72
Width: 962
Flags: W
LayerCount: 2
Fore
SplineSet
381 790 m 1,0,-1
 381 687 l 1,1,2
 442 754 442 754 497.5 783.5 c 128,-1,3
 553 813 553 813 617 813 c 0,4,5
 695 813 695 813 745.5 771 c 128,-1,6
 796 729 796 729 813 665 c 0,7,8
 826 616 826 616 826 479 c 2,9,-1
 826 172 l 2,10,11
 826 82 826 82 842.5 59 c 128,-1,12
 859 36 859 36 911 31 c 1,13,-1
 911 0 l 1,14,-1
 512 0 l 1,15,-1
 512 31 l 1,16,17
 557 36 557 36 577 67 c 0,18,19
 589 88 589 88 589 172 c 2,20,-1
 589 524 l 2,21,22
 589 621 589 621 581.5 646.5 c 128,-1,23
 574 672 574 672 556.5 685.5 c 128,-1,24
 539 699 539 699 516 699 c 0,25,26
 444 699 444 699 381 595 c 1,27,-1
 381 172 l 2,28,29
 381 84 381 84 397.5 60 c 128,-1,30
 414 36 414 36 458 31 c 1,31,-1
 458 0 l 1,32,-1
 60 0 l 1,33,-1
 60 31 l 1,34,35
 108 36 108 36 130 62 c 0,36,37
 145 82 145 82 145 172 c 2,38,-1
 145 619 l 2,39,40
 145 708 145 708 128.5 730 c 128,-1,41
 112 752 112 752 60 758 c 1,42,-1
 60 790 l 1,43,-1
 381 790 l 1,0,-1
EndSplineSet
EndChar

StartChar: o
Encoding: 111 111 73
Width: 865
Flags: W
LayerCount: 2
Fore
SplineSet
431 813 m 0,0,1
 535 813 535 813 623 760.5 c 128,-1,2
 711 708 711 708 757.5 609.5 c 128,-1,3
 804 511 804 511 804 395 c 0,4,5
 804 226 804 226 718 113 c 0,6,7
 614 -23 614 -23 433 -23 c 0,8,9
 255 -23 255 -23 158.5 101.5 c 128,-1,10
 62 226 62 226 62 391 c 0,11,12
 62 561 62 561 161 687 c 128,-1,13
 260 813 260 813 431 813 c 0,0,1
434 754 m 0,14,15
 391 754 391 754 360 721 c 128,-1,16
 329 688 329 688 319.5 592 c 128,-1,17
 310 496 310 496 310 326 c 0,18,19
 310 235 310 235 322 157 c 0,20,21
 331 97 331 97 361.5 66 c 128,-1,22
 392 35 392 35 431 35 c 0,23,24
 468 35 468 35 494 56 c 0,25,26
 527 84 527 84 539 136 c 0,27,28
 556 217 556 217 556 461 c 0,29,30
 556 604 556 604 539 657.5 c 128,-1,31
 522 711 522 711 492 736 c 0,32,33
 470 754 470 754 434 754 c 0,14,15
EndSplineSet
EndChar

StartChar: p
Encoding: 112 112 74
Width: 962
Flags: W
LayerCount: 2
Fore
SplineSet
365 81 m 1,0,-1
 365 -213 l 2,1,2
 365 -275 365 -275 374 -297 c 128,-1,3
 383 -319 383 -319 403.5 -329 c 128,-1,4
 424 -339 424 -339 484 -339 c 1,5,-1
 484 -370 l 1,6,-1
 33 -370 l 1,7,-1
 33 -339 l 1,8,9
 85 -337 85 -337 111 -309 c 0,10,11
 128 -289 128 -289 128 -209 c 2,12,-1
 128 625 l 2,13,14
 128 708 128 708 108 732 c 128,-1,15
 88 756 88 756 33 758 c 1,16,-1
 33 790 l 1,17,-1
 365 790 l 1,18,-1
 365 686 l 1,19,20
 405 747 405 747 449 774 c 0,21,22
 510 813 510 813 583 813 c 0,23,24
 669 813 669 813 741 758.5 c 128,-1,25
 813 704 813 704 850 607 c 128,-1,26
 887 510 887 510 887 399 c 0,27,28
 887 278 887 278 848.5 179.5 c 128,-1,29
 810 81 810 81 737 29 c 128,-1,30
 664 -23 664 -23 574 -23 c 0,31,32
 509 -23 509 -23 453 5 c 0,33,34
 411 28 411 28 365 81 c 1,0,-1
365 166 m 1,35,36
 437 62 437 62 519 62 c 0,37,38
 564 62 564 62 594 111 c 0,39,40
 638 181 638 181 638 381 c 0,41,42
 638 585 638 585 590 661 c 0,43,44
 559 710 559 710 505 710 c 0,45,46
 420 710 420 710 365 588 c 1,47,-1
 365 166 l 1,35,36
EndSplineSet
EndChar

StartChar: q
Encoding: 113 113 75
Width: 962
Flags: W
LayerCount: 2
Fore
SplineSet
589 83 m 1,0,1
 538 29 538 29 492 7 c 0,2,3
 433 -23 433 -23 370 -23 c 0,4,5
 221 -23 221 -23 134 108 c 0,6,7
 65 214 65 214 65 361 c 0,8,9
 65 484 65 484 117.5 591.5 c 128,-1,10
 170 699 170 699 260.5 756 c 128,-1,11
 351 813 351 813 453 813 c 0,12,13
 520 813 520 813 573 790.5 c 128,-1,14
 626 768 626 768 664 721 c 1,15,-1
 796 813 l 1,16,-1
 826 813 l 1,17,-1
 826 -209 l 2,18,19
 826 -287 826 -287 838 -306 c 0,20,21
 861 -338 861 -338 927 -339 c 1,22,-1
 927 -370 l 1,23,-1
 471 -370 l 1,24,-1
 471 -339 l 1,25,26
 524 -339 524 -339 547.5 -327 c 128,-1,27
 571 -315 571 -315 580 -295.5 c 128,-1,28
 589 -276 589 -276 589 -217 c 2,29,-1
 589 83 l 1,0,1
589 159 m 1,30,-1
 589 485 l 2,31,32
 589 621 589 621 574.5 664.5 c 128,-1,33
 560 708 560 708 519 741 c 0,34,35
 499 757 499 757 468 757 c 0,36,37
 403 757 403 757 369 700 c 0,38,39
 313 613 313 613 313 377 c 0,40,41
 313 196 313 196 361 122 c 0,42,43
 394 72 394 72 445 72 c 0,44,45
 476 72 476 72 514.5 93 c 128,-1,46
 553 114 553 114 589 159 c 1,30,-1
EndSplineSet
EndChar

StartChar: r
Encoding: 114 114 76
Width: 768
Flags: W
LayerCount: 2
Fore
SplineSet
387 790 m 1,0,-1
 387 611 l 1,1,2
 465 732 465 732 524 772.5 c 128,-1,3
 583 813 583 813 637 813 c 0,4,5
 685 813 685 813 713 784.5 c 128,-1,6
 741 756 741 756 741 703 c 0,7,8
 741 645 741 645 713.5 614 c 128,-1,9
 686 583 686 583 648 583 c 0,10,11
 603 583 603 583 570.5 611.5 c 128,-1,12
 538 640 538 640 531 644 c 0,13,14
 522 648 522 648 512 648 c 0,15,16
 488 648 488 648 466 631 c 0,17,18
 431 602 431 602 413 548 c 0,19,20
 387 467 387 467 387 368 c 2,21,-1
 387 186 l 1,22,-1
 387 138 l 2,23,24
 387 91 387 91 393 77 c 0,25,26
 403 54 403 54 423 43.5 c 128,-1,27
 443 33 443 33 490 31 c 1,28,-1
 490 0 l 1,29,-1
 63 0 l 1,30,-1
 63 31 l 1,31,32
 115 35 115 35 133 59 c 128,-1,33
 151 83 151 83 151 186 c 2,34,-1
 151 623 l 2,35,36
 151 690 151 690 145 708 c 0,37,38
 136 732 136 732 120 743 c 128,-1,39
 104 754 104 754 63 758 c 1,40,-1
 63 790 l 1,41,-1
 387 790 l 1,0,-1
EndSplineSet
EndChar

StartChar: s
Encoding: 115 115 77
Width: 674
Flags: W
LayerCount: 2
Fore
SplineSet
558 812 m 1,0,-1
 570 542 l 1,1,-1
 541 542 l 1,2,3
 490 662 490 662 434.5 706 c 128,-1,4
 379 750 379 750 324 750 c 0,5,6
 289 750 289 750 265 727 c 128,-1,7
 241 704 241 704 241 674 c 0,8,9
 241 651 241 651 257 630 c 0,10,11
 285 594 285 594 409 510 c 128,-1,12
 533 426 533 426 572.5 367.5 c 128,-1,13
 612 309 612 309 612 236 c 0,14,15
 612 171 612 171 579 107.5 c 128,-1,16
 546 44 546 44 485.5 10.5 c 128,-1,17
 425 -23 425 -23 352 -23 c 0,18,19
 297 -23 297 -23 202 12 c 0,20,21
 177 21 177 21 167 21 c 0,22,23
 139 21 139 21 120 -21 c 1,24,-1
 93 -21 l 1,25,-1
 79 263 l 1,26,-1
 108 263 l 1,27,28
 146 151 146 151 212 95.5 c 128,-1,29
 278 40 278 40 338 40 c 0,30,31
 378 40 378 40 404 65 c 128,-1,32
 430 90 430 90 430 125 c 0,33,34
 430 166 430 166 404.5 195.5 c 128,-1,35
 379 225 379 225 292 285 c 0,36,37
 162 373 162 373 125 421 c 0,38,39
 68 492 68 492 68 574 c 0,40,41
 68 665 68 665 131 739 c 128,-1,42
 194 813 194 813 314 813 c 0,43,44
 378 813 378 813 437 782 c 0,45,46
 461 770 461 770 475 770 c 0,47,48
 490 770 490 770 499.5 776 c 128,-1,49
 509 782 509 782 529 812 c 1,50,-1
 558 812 l 1,0,-1
EndSplineSet
EndChar

StartChar: t
Encoding: 116 116 78
Width: 577
Flags: W
LayerCount: 2
Fore
SplineSet
372 1079 m 1,0,-1
 372 790 l 1,1,-1
 560 790 l 1,2,-1
 560 707 l 1,3,-1
 372 707 l 1,4,-1
 372 219 l 2,5,6
 372 150 372 150 378 130.5 c 128,-1,7
 384 111 384 111 400 98.5 c 128,-1,8
 416 86 416 86 430 86 c 0,9,10
 485 86 485 86 535 170 c 1,11,-1
 560 151 l 1,12,13
 492 -11 492 -11 337 -11 c 0,14,15
 262 -11 262 -11 210 31 c 128,-1,16
 158 73 158 73 144 125 c 0,17,18
 135 153 135 153 135 279 c 2,19,-1
 135 707 l 1,20,-1
 32 707 l 1,21,-1
 32 736 l 1,22,23
 138 811 138 811 213 894 c 128,-1,24
 288 977 288 977 345 1079 c 1,25,-1
 372 1079 l 1,0,-1
EndSplineSet
EndChar

StartChar: u
Encoding: 117 117 79
Width: 962
Flags: W
LayerCount: 2
Fore
SplineSet
822 790 m 1,0,-1
 822 171 l 2,1,2
 822 82 822 82 838.5 59 c 128,-1,3
 855 36 855 36 906 31 c 1,4,-1
 906 0 l 1,5,-1
 585 0 l 1,6,-1
 585 106 l 1,7,8
 528 38 528 38 471.5 7.5 c 128,-1,9
 415 -23 415 -23 345 -23 c 0,10,11
 277 -23 277 -23 226 18 c 128,-1,12
 175 59 175 59 156.5 113.5 c 128,-1,13
 138 168 138 168 138 305 c 2,14,-1
 138 619 l 2,15,16
 138 708 138 708 122 730 c 128,-1,17
 106 752 106 752 53 758 c 1,18,-1
 53 790 l 1,19,-1
 375 790 l 1,20,-1
 375 251 l 2,21,22
 375 166 375 166 383 141 c 128,-1,23
 391 116 391 116 408 103.5 c 128,-1,24
 425 91 425 91 449 91 c 0,25,26
 479 91 479 91 504 108 c 0,27,28
 538 129 538 129 585 197 c 1,29,-1
 585 619 l 2,30,31
 585 708 585 708 568 730 c 128,-1,32
 551 752 551 752 499 758 c 1,33,-1
 499 790 l 1,34,-1
 822 790 l 1,0,-1
EndSplineSet
EndChar

StartChar: v
Encoding: 118 118 80
Width: 865
Flags: W
LayerCount: 2
Fore
SplineSet
415 -23 m 1,0,-1
 149 589 l 2,1,2
 101 699 101 699 74 729 c 0,3,4
 54 751 54 751 15 758 c 1,5,-1
 15 790 l 1,6,-1
 436 790 l 1,7,-1
 436 758 l 1,8,9
 396 758 396 758 382 745 c 0,10,11
 361 726 361 726 361 700 c 0,12,13
 361 669 361 669 399 583 c 2,14,-1
 529 286 l 1,15,-1
 633 542 l 2,16,17
 678 653 678 653 678 698 c 0,18,19
 678 725 678 725 659 741 c 128,-1,20
 640 757 640 757 591 758 c 1,21,-1
 591 790 l 1,22,-1
 851 790 l 1,23,-1
 851 758 l 1,24,25
 813 754 813 754 789.5 731 c 128,-1,26
 766 708 766 708 718 596 c 2,27,-1
 454 -23 l 1,28,-1
 415 -23 l 1,0,-1
EndSplineSet
EndChar

StartChar: w
Encoding: 119 119 81
Width: 1249
Flags: W
LayerCount: 2
Fore
SplineSet
842 -23 m 1,0,-1
 625 556 l 1,1,-1
 413 -23 l 1,2,-1
 370 -23 l 1,3,-1
 158 549 l 2,4,5
 112 680 112 680 78 720 c 0,6,7
 57 747 57 747 14 758 c 1,8,-1
 14 790 l 1,9,-1
 413 790 l 1,10,-1
 413 758 l 1,11,12
 372 758 372 758 357 746.5 c 128,-1,13
 342 735 342 735 342 720 c 0,14,15
 342 706 342 706 370 634 c 2,16,-1
 485 325 l 1,17,-1
 596 634 l 1,18,-1
 588 654 l 2,19,20
 563 717 563 717 544 734.5 c 128,-1,21
 525 752 525 752 485 758 c 1,22,-1
 485 790 l 1,23,-1
 889 790 l 1,24,-1
 889 758 l 1,25,26
 843 756 843 756 830 745.5 c 128,-1,27
 817 735 817 735 817 716 c 256,28,29
 817 697 817 697 842 634 c 2,30,-1
 952 325 l 1,31,-1
 1054 610 l 2,32,33
 1076 669 1076 669 1076 692 c 0,34,35
 1076 725 1076 725 1060 740.5 c 128,-1,36
 1044 756 1044 756 997 758 c 1,37,-1
 997 790 l 1,38,-1
 1232 790 l 1,39,-1
 1232 758 l 1,40,41
 1193 754 1193 754 1170 731 c 128,-1,42
 1147 708 1147 708 1111 604 c 2,43,-1
 889 -23 l 1,44,-1
 842 -23 l 1,0,-1
EndSplineSet
EndChar

StartChar: x
Encoding: 120 120 82
Width: 865
Flags: W
LayerCount: 2
Fore
SplineSet
526 484 m 1,0,-1
 662 224 l 2,1,2
 732 87 732 87 775 52 c 0,3,4
 798 32 798 32 837 31 c 1,5,-1
 837 0 l 1,6,-1
 397 0 l 1,7,-1
 397 31 l 1,8,9
 449 35 449 35 461 44 c 128,-1,10
 473 53 473 53 473 70 c 0,11,12
 473 93 473 93 445 144 c 2,13,-1
 378 273 l 1,14,-1
 319 187 l 2,15,16
 279 129 279 129 275 117 c 0,17,18
 268 102 268 102 268 88 c 0,19,20
 268 70 268 70 276 56.5 c 128,-1,21
 284 43 284 43 297.5 37 c 128,-1,22
 311 31 311 31 348 31 c 1,23,-1
 348 0 l 1,24,-1
 40 0 l 1,25,-1
 40 31 l 1,26,27
 97 31 97 31 144.5 62.5 c 128,-1,28
 192 94 192 94 284 228 c 2,29,-1
 348 324 l 1,30,-1
 213 577 l 2,31,32
 146 699 146 699 113.5 727.5 c 128,-1,33
 81 756 81 756 40 758 c 1,34,-1
 40 790 l 1,35,-1
 477 790 l 1,36,-1
 477 758 l 1,37,-1
 454 758 l 1,38,-1
 411 742 l 2,39,40
 403 737 403 737 403 724 c 0,41,42
 403 710 403 710 408 697 c 0,43,44
 411 690 411 690 432 652 c 2,45,-1
 493 537 l 1,46,-1
 526 582 l 2,47,48
 593 675 593 675 593 711 c 0,49,50
 593 730 593 730 578.5 742 c 128,-1,51
 564 754 564 754 526 758 c 1,52,-1
 526 790 l 1,53,-1
 804 790 l 1,54,-1
 804 758 l 1,55,56
 754 757 754 757 709 727 c 128,-1,57
 664 697 664 697 609 611 c 2,58,-1
 526 484 l 1,0,-1
EndSplineSet
EndChar

StartChar: y
Encoding: 121 121 83
Width: 865
Flags: W
LayerCount: 2
Fore
SplineSet
420 -32 m 1,0,-1
 166 553 l 2,1,2
 108 686 108 686 80.5 716.5 c 128,-1,3
 53 747 53 747 14 758 c 1,4,-1
 14 790 l 1,5,-1
 434 790 l 1,6,-1
 434 758 l 1,7,8
 393 757 393 757 376 743 c 128,-1,9
 359 729 359 729 359 708 c 0,10,11
 359 676 359 676 401 581 c 2,12,-1
 537 273 l 1,13,-1
 628 511 l 2,14,15
 678 638 678 638 678 688 c 0,16,17
 678 720 678 720 657 738.5 c 128,-1,18
 636 757 636 757 585 758 c 1,19,-1
 585 790 l 1,20,-1
 849 790 l 1,21,-1
 849 758 l 1,22,23
 810 754 810 754 785.5 729 c 128,-1,24
 761 704 761 704 704 553 c 2,25,-1
 478 -32 l 2,26,27
 393 -252 393 -252 351 -302 c 0,28,29
 294 -373 294 -373 204 -373 c 0,30,31
 135 -373 135 -373 92 -333.5 c 128,-1,32
 49 -294 49 -294 49 -236 c 0,33,34
 49 -188 49 -188 78.5 -156 c 128,-1,35
 108 -124 108 -124 152 -124 c 0,36,37
 194 -124 194 -124 220 -151 c 128,-1,38
 246 -178 246 -178 247 -234 c 0,39,40
 247 -266 247 -266 254 -276 c 0,41,42
 261 -285 261 -285 274 -285 c 0,43,44
 294 -285 294 -285 317 -260 c 0,45,46
 350 -225 350 -225 396 -98 c 2,47,-1
 420 -32 l 1,0,-1
EndSplineSet
EndChar

StartChar: z
Encoding: 122 122 84
Width: 768
Flags: W
LayerCount: 2
Fore
SplineSet
706 0 m 1,0,-1
 18 0 l 1,1,-1
 18 19 l 1,2,-1
 452 738 l 1,3,-1
 325 738 l 2,4,5
 243 738 243 738 207.5 723 c 128,-1,6
 172 708 172 708 150.5 676 c 128,-1,7
 129 644 129 644 105 560 c 1,8,-1
 75 560 l 1,9,-1
 75 790 l 1,10,-1
 740 790 l 1,11,-1
 740 767 l 1,12,-1
 309 54 l 1,13,-1
 363 54 l 2,14,15
 526 54 526 54 597.5 100.5 c 128,-1,16
 669 147 669 147 706 271 c 1,17,-1
 729 271 l 1,18,-1
 706 0 l 1,0,-1
EndSplineSet
EndChar

StartChar: braceleft
Encoding: 123 123 85
Width: 683
Flags: W
LayerCount: 2
Fore
SplineSet
609 1172 m 1,0,-1
 609 1134 l 1,1,2
 524 1117 524 1117 484 1074 c 128,-1,3
 444 1031 444 1031 444 974 c 0,4,5
 444 919 444 919 464 834.5 c 128,-1,6
 484 750 484 750 484 687 c 0,7,8
 484 631 484 631 450 571 c 128,-1,9
 416 511 416 511 351 468 c 0,10,11
 306 440 306 440 209 413 c 1,12,13
 314 380 314 380 361 348 c 0,14,15
 423 305 423 305 454.5 246.5 c 128,-1,16
 486 188 486 188 486 136 c 0,17,18
 486 85 486 85 465 0.5 c 128,-1,19
 444 -84 444 -84 444 -146 c 0,20,21
 444 -206 444 -206 482.5 -250 c 128,-1,22
 521 -294 521 -294 609 -310 c 1,23,-1
 609 -349 l 1,24,-1
 579 -349 l 2,25,26
 492 -350 492 -350 415 -310 c 128,-1,27
 338 -270 338 -270 299 -205.5 c 128,-1,28
 260 -141 260 -141 260 -83 c 0,29,30
 260 -23 260 -23 285 78 c 0,31,32
 305 153 305 153 305 212 c 0,33,34
 305 278 305 278 263 325 c 128,-1,35
 221 372 221 372 139 387 c 1,36,-1
 139 437 l 1,37,38
 221 451 221 451 263 500 c 128,-1,39
 305 549 305 549 305 619 c 0,40,41
 305 677 305 677 286 749 c 0,42,43
 260 849 260 849 260 901 c 0,44,45
 260 957 260 957 293 1013 c 128,-1,46
 326 1069 326 1069 375.5 1104.5 c 128,-1,47
 425 1140 425 1140 485 1156 c 0,48,49
 530 1169 530 1169 609 1172 c 1,0,-1
EndSplineSet
EndChar

StartChar: bar
Encoding: 124 124 86
Width: 381
Flags: W
LayerCount: 2
Fore
SplineSet
134 -373 m 1,0,-1
 134 1172 l 1,1,-1
 244 1172 l 1,2,-1
 244 -373 l 1,3,-1
 134 -373 l 1,0,-1
EndSplineSet
EndChar

StartChar: asciitilde
Encoding: 126 126 87
Width: 900
Flags: W
LayerCount: 2
Fore
SplineSet
882 599 m 1,0,-1
 930 599 l 1,1,2
 925 465 925 465 860.5 395.5 c 128,-1,3
 796 326 796 326 704 326 c 0,4,5
 658 326 658 326 608 340.5 c 128,-1,6
 558 355 558 355 387 426 c 0,7,8
 263 478 263 478 208 478 c 0,9,10
 150 478 150 478 112 443 c 128,-1,11
 74 408 74 408 60 327 c 1,12,-1
 11 327 l 1,13,14
 17 466 17 466 79 533 c 128,-1,15
 141 600 141 600 230 600 c 0,16,17
 275 600 275 600 318 588 c 0,18,19
 403 564 403 564 553 499 c 0,20,21
 635 464 635 464 678 452 c 0,22,23
 704 445 704 445 732 445 c 0,24,25
 792 445 792 445 833.5 485 c 128,-1,26
 875 525 875 525 882 599 c 1,0,-1
EndSplineSet
EndChar

StartChar: ccedilla
Encoding: 231 231 90
Width: 805
Flags: W
LayerCount: 2
Fore
SplineSet
775 198 m 1,0,-1
 764 142 l 1,1,2
 616 37 616 37 445 -9 c 1,3,-1
 408 -65 l 1,4,5
 481 -86 481 -86 481 -146 c 0,6,7
 481 -197 481 -197 424.5 -240.5 c 128,-1,8
 368 -284 368 -284 301 -284 c 0,9,10
 272 -284 272 -284 232 -277 c 1,11,-1
 287 -201 l 1,12,13
 322 -223 322 -223 348 -223 c 0,14,15
 412 -223 412 -223 412 -172 c 0,16,17
 412 -117 412 -117 311 -111 c 1,18,-1
 376 -19 l 1,19,20
 145 5 145 5 145 228 c 0,21,22
 145 445 145 445 302 622 c 128,-1,23
 459 799 459 799 652 799 c 0,24,25
 736 799 736 799 819 762 c 1,26,-1
 770 578 l 1,27,-1
 725 578 l 1,28,-1
 728 589 l 2,29,30
 735 622 735 622 735 638 c 0,31,32
 735 737 735 737 599 737 c 0,33,34
 475 737 475 737 382.5 595 c 128,-1,35
 290 453 290 453 290 263 c 0,36,37
 290 62 290 62 446 62 c 0,38,39
 563 62 563 62 775 198 c 1,0,-1
EndSplineSet
EndChar

StartChar: icircumflex
Encoding: 238 238 95
Width: 468
Flags: W
LayerCount: 2
Fore
SplineSet
328 0 m 1,0,-1
 140 0 l 1,1,-1
 140 1117 l 1,2,-1
 328 1117 l 1,3,-1
 328 0 l 1,0,-1
521 1297 m 1,4,-1
 370 1297 l 1,5,-1
 231 1560 l 1,6,-1
 93 1297 l 1,7,-1
 -54 1297 l 1,8,-1
 120 1676 l 1,9,-1
 347 1676 l 1,10,-1
 521 1297 l 1,4,-1
EndSplineSet
EndChar

StartChar: idieresis
Encoding: 239 239 96
Width: 468
Flags: W
LayerCount: 2
Fore
SplineSet
328 0 m 1,0,-1
 140 0 l 1,1,-1
 140 1117 l 1,2,-1
 328 1117 l 1,3,-1
 328 0 l 1,0,-1
506 1304 m 1,4,-1
 317 1304 l 1,5,-1
 317 1499 l 1,6,-1
 506 1499 l 1,7,-1
 506 1304 l 1,4,-1
151 1304 m 1,8,-1
 -38 1304 l 1,9,-1
 -38 1499 l 1,10,-1
 151 1499 l 1,11,-1
 151 1304 l 1,8,-1
EndSplineSet
EndChar

StartChar: dagger
Encoding: 8224 8224 101
Width: 932
Flags: W
LayerCount: 2
Fore
SplineSet
347 -231 m 1,0,-1
 567 622 l 1,1,-1
 248 592 l 1,2,-1
 297 700 l 1,3,-1
 576 668 l 1,4,-1
 607 1066 l 1,5,-1
 755 1093 l 1,6,-1
 621 668 l 1,7,-1
 941 700 l 1,8,-1
 895 592 l 1,9,-1
 612 622 l 1,10,-1
 496 -213 l 1,11,-1
 347 -231 l 1,0,-1
EndSplineSet
EndChar

StartChar: degree
Encoding: 176 176 102
Width: 409
Flags: W
LayerCount: 2
Fore
SplineSet
395 844 m 0,0,1
 344 844 344 844 307.5 880 c 128,-1,2
 271 916 271 916 271 968 c 0,3,4
 271 1021 271 1021 307.5 1057 c 128,-1,5
 344 1093 344 1093 395 1093 c 0,6,7
 447 1093 447 1093 483 1057 c 128,-1,8
 519 1021 519 1021 519 968 c 0,9,10
 519 916 519 916 483 880 c 128,-1,11
 447 844 447 844 395 844 c 0,0,1
395 888 m 256,12,13
 427 888 427 888 450.5 912 c 128,-1,14
 474 936 474 936 474 968 c 256,15,16
 474 1000 474 1000 450.5 1024 c 128,-1,17
 427 1048 427 1048 395 1048 c 256,18,19
 363 1048 363 1048 339 1024 c 128,-1,20
 315 1000 315 1000 315 968 c 256,21,22
 315 936 315 936 339 912 c 128,-1,23
 363 888 363 888 395 888 c 256,12,13
EndSplineSet
EndChar

StartChar: cent
Encoding: 162 162 103
Width: 693
Flags: W
LayerCount: 2
Fore
SplineSet
365 -18 m 1,0,-1
 404 176 l 1,1,2
 142 195 142 195 142 355 c 0,3,4
 142 459 142 459 242 534.5 c 128,-1,5
 342 610 342 610 492 622 c 1,6,-1
 527 799 l 1,7,-1
 572 799 l 1,8,-1
 537 622 l 1,9,10
 637 617 637 617 715 601 c 1,11,-1
 689 471 l 1,12,-1
 644 471 l 1,13,14
 644 477 644 477 645 488 c 0,15,16
 648 509 648 509 648 517 c 0,17,18
 648 572 648 572 528 578 c 1,19,-1
 459 229 l 1,20,21
 567 229 567 229 661 280 c 1,22,-1
 650 229 l 1,23,24
 544 176 544 176 448 176 c 1,25,-1
 409 -18 l 1,26,-1
 365 -18 l 1,0,-1
415 232 m 1,27,-1
 484 578 l 1,28,29
 272 547 272 547 272 383 c 0,30,31
 272 255 272 255 415 232 c 1,27,-1
EndSplineSet
EndChar

StartChar: sterling
Encoding: 163 163 104
Width: 874
Flags: W
LayerCount: 2
Fore
SplineSet
17 0 m 1,0,-1
 109 88 l 1,1,-1
 122 88 l 2,2,3
 229 88 229 88 272.5 136.5 c 128,-1,4
 316 185 316 185 347 343 c 2,5,-1
 356 391 l 1,6,-1
 196 391 l 1,7,-1
 205 436 l 1,8,-1
 365 436 l 1,9,-1
 378 499 l 2,10,11
 407 642 407 642 496.5 721 c 128,-1,12
 586 800 586 800 718 800 c 0,13,14
 797 800 797 800 892 765 c 1,15,-1
 858 586 l 1,16,-1
 808 586 l 1,17,-1
 810 598 l 2,18,19
 812 608 812 608 812 620 c 0,20,21
 812 746 812 746 679 746 c 0,22,23
 614 746 614 746 584.5 710 c 128,-1,24
 555 674 555 674 535 569 c 2,25,-1
 508 436 l 1,26,-1
 748 436 l 1,27,-1
 739 391 l 1,28,-1
 499 391 l 1,29,-1
 492 359 l 2,30,31
 473 265 473 265 427.5 208 c 128,-1,32
 382 151 382 151 275 88 c 1,33,-1
 480 88 l 2,34,35
 617 88 617 88 679 102.5 c 128,-1,36
 741 117 741 117 819 167 c 1,37,-1
 808 113 l 1,38,39
 735 35 735 35 665.5 7.5 c 128,-1,40
 596 -20 596 -20 470 -20 c 1,41,-1
 442 -19 l 1,42,-1
 17 0 l 1,0,-1
EndSplineSet
EndChar

StartChar: section
Encoding: 167 167 105
Width: 932
Flags: W
LayerCount: 2
Fore
SplineSet
107 -153 m 1,0,-1
 232 -80 l 1,1,2
 348 -178 348 -178 481 -178 c 0,3,4
 564 -178 564 -178 621.5 -127.5 c 128,-1,5
 679 -77 679 -77 679 -5 c 0,6,7
 679 48 679 48 645.5 80.5 c 128,-1,8
 612 113 612 113 513 160 c 2,9,-1
 440 193 l 2,10,11
 247 283 247 283 247 409 c 0,12,13
 247 528 247 528 409 652 c 1,14,15
 328 717 328 717 328 815 c 0,16,17
 328 938 328 938 440 1015.5 c 128,-1,18
 552 1093 552 1093 727 1093 c 0,19,20
 814 1093 814 1093 933 1060 c 1,21,-1
 897 879 l 1,22,-1
 853 879 l 1,23,24
 857 904 857 904 857 916 c 0,25,26
 857 1039 857 1039 652 1039 c 0,27,28
 560 1039 560 1039 500.5 987 c 128,-1,29
 441 935 441 935 441 853 c 0,30,31
 441 798 441 798 466 774.5 c 128,-1,32
 491 751 491 751 613 686 c 2,33,-1
 674 652 l 2,34,35
 854 553 854 553 854 444 c 0,36,37
 854 319 854 319 703 200 c 1,38,39
 801 136 801 136 801 40 c 0,40,41
 801 -75 801 -75 684.5 -153 c 128,-1,42
 568 -231 568 -231 397 -231 c 0,43,44
 244 -231 244 -231 107 -153 c 1,0,-1
667 229 m 1,45,46
 747 319 747 319 747 394 c 0,47,48
 747 470 747 470 628 527 c 2,49,-1
 558 562 l 2,50,51
 495 593 495 593 445 625 c 1,52,53
 355 545 355 545 355 456 c 0,54,55
 355 382 355 382 474 326 c 2,56,-1
 571 279 l 2,57,58
 607 263 607 263 667 229 c 1,45,46
EndSplineSet
EndChar

StartChar: bullet
Encoding: 8226 8226 106
Width: 931
Flags: W
LayerCount: 2
Fore
SplineSet
817 662 m 256,0,1
 817 517 817 517 713.5 414 c 128,-1,2
 610 311 610 311 465 311 c 256,3,4
 320 311 320 311 217 414 c 128,-1,5
 114 517 114 517 114 662 c 256,6,7
 114 807 114 807 217 910 c 128,-1,8
 320 1013 320 1013 465 1013 c 256,9,10
 610 1013 610 1013 713.5 910 c 128,-1,11
 817 807 817 807 817 662 c 256,0,1
EndSplineSet
EndChar

StartChar: paragraph
Encoding: 182 182 107
Width: 932
Flags: W
LayerCount: 2
Fore
SplineSet
365 -239 m 1,0,-1
 511 496 l 1,1,2
 241 542 241 542 241 747 c 0,3,4
 241 876 241 876 346.5 968 c 128,-1,5
 452 1060 452 1060 628 1085 c 1,6,-1
 660 1244 l 1,7,-1
 704 1244 l 1,8,-1
 673 1085 l 1,9,-1
 703 1086 l 2,10,11
 744 1086 744 1086 796 1080 c 1,12,-1
 828 1244 l 1,13,-1
 873 1244 l 1,14,-1
 839 1071 l 1,15,16
 891 1057 891 1057 948 1036 c 1,17,-1
 938 988 l 1,18,19
 898 1005 898 1005 830 1024 c 1,20,-1
 742 586 l 1,21,22
 794 603 794 603 869 643 c 1,23,-1
 859 586 l 1,24,25
 794 549 794 549 732 530 c 1,26,-1
 578 -239 l 1,27,-1
 534 -239 l 1,28,-1
 684 514 l 1,29,30
 597 496 597 496 556 496 c 1,31,-1
 409 -239 l 1,32,-1
 365 -239 l 1,0,-1
695 568 m 1,33,-1
 787 1031 l 1,34,35
 738 1040 738 1040 704 1040 c 0,36,37
 691 1040 691 1040 664 1039 c 1,38,-1
 567 553 l 1,39,40
 625 553 625 553 695 568 c 1,33,-1
EndSplineSet
EndChar

StartChar: registered
Encoding: 174 174 108
Width: 897
Flags: W
LayerCount: 2
Fore
SplineSet
580 445 m 0,0,1
 448 445 448 445 354.5 538.5 c 128,-1,2
 261 632 261 632 261 764 c 256,3,4
 261 896 261 896 354.5 990 c 128,-1,5
 448 1084 448 1084 580 1084 c 0,6,7
 714 1084 714 1084 807 990 c 128,-1,8
 900 896 900 896 900 764 c 256,9,10
 900 632 900 632 806.5 538.5 c 128,-1,11
 713 445 713 445 580 445 c 0,0,1
580 484 m 0,12,13
 695 484 695 484 777.5 567 c 128,-1,14
 860 650 860 650 860 764 c 256,15,16
 860 878 860 878 777.5 961 c 128,-1,17
 695 1044 695 1044 580 1044 c 0,18,19
 466 1044 466 1044 383.5 961 c 128,-1,20
 301 878 301 878 301 764 c 256,21,22
 301 650 301 650 383.5 567 c 128,-1,23
 466 484 466 484 580 484 c 0,12,13
529 737 m 1,24,-1
 501 596 l 1,25,-1
 394 596 l 1,26,-1
 403 639 l 1,27,-1
 456 639 l 1,28,-1
 511 915 l 1,29,-1
 458 915 l 1,30,-1
 466 959 l 1,31,-1
 598 959 l 2,32,33
 751 959 751 959 751 875 c 0,34,35
 751 800 751 800 650 750 c 1,36,-1
 685 639 l 1,37,-1
 747 639 l 1,38,-1
 738 596 l 1,39,-1
 641 596 l 1,40,-1
 591 737 l 1,41,-1
 529 737 l 1,24,-1
538 782 m 1,42,-1
 574 782 l 2,43,44
 697 782 697 782 697 866 c 0,45,46
 697 915 697 915 607 915 c 2,47,-1
 564 915 l 1,48,-1
 538 782 l 1,42,-1
EndSplineSet
EndChar

StartChar: copyright
Encoding: 169 169 109
Width: 1244
Flags: W
LayerCount: 2
Fore
SplineSet
725 -27 m 0,0,1
 495 -27 495 -27 330.5 137 c 128,-1,2
 166 301 166 301 166 533 c 256,3,4
 166 765 166 765 330.5 929 c 128,-1,5
 495 1093 495 1093 725 1093 c 0,6,7
 958 1093 958 1093 1122 929 c 128,-1,8
 1286 765 1286 765 1286 533 c 256,9,10
 1286 301 1286 301 1122 137 c 128,-1,11
 958 -27 958 -27 725 -27 c 0,0,1
725 18 m 0,12,13
 939 18 939 18 1090 169 c 128,-1,14
 1241 320 1241 320 1241 533 c 256,15,16
 1241 746 1241 746 1090 897 c 128,-1,17
 939 1048 939 1048 725 1048 c 0,18,19
 513 1048 513 1048 362 897 c 128,-1,20
 211 746 211 746 211 533 c 256,21,22
 211 320 211 320 362 169 c 128,-1,23
 513 18 513 18 725 18 c 0,12,13
890 246 m 1,24,25
 785 213 785 213 704 213 c 0,26,27
 580 213 580 213 508 279.5 c 128,-1,28
 436 346 436 346 436 462 c 0,29,30
 436 625 436 625 541 734.5 c 128,-1,31
 646 844 646 844 805 844 c 0,32,33
 896 844 896 844 1003 814 c 1,34,-1
 967 675 l 1,35,-1
 915 684 l 1,36,-1
 923 766 l 1,37,38
 854 798 854 798 792 798 c 0,39,40
 688 798 688 798 616 700 c 128,-1,41
 544 602 544 602 544 462 c 0,42,43
 544 271 544 271 722 271 c 0,44,45
 823 271 823 271 902 307 c 1,46,-1
 890 246 l 1,24,25
EndSplineSet
EndChar

StartChar: trademark
Encoding: 8482 8482 110
Width: 1333
Flags: W
LayerCount: 2
Fore
SplineSet
440 1021 m 1,0,-1
 307 1021 l 1,1,-1
 288 923 l 1,2,-1
 225 923 l 1,3,-1
 254 1066 l 1,4,-1
 751 1066 l 1,5,-1
 723 923 l 1,6,-1
 661 923 l 1,7,-1
 679 1021 l 1,8,-1
 546 1021 l 1,9,-1
 456 569 l 1,10,-1
 554 569 l 1,11,-1
 545 524 l 1,12,-1
 243 524 l 1,13,-1
 253 569 l 1,14,-1
 350 569 l 1,15,-1
 440 1021 l 1,0,-1
1011 569 m 1,16,-1
 942 956 l 1,17,-1
 857 524 l 1,18,-1
 688 524 l 1,19,-1
 697 569 l 1,20,-1
 794 569 l 1,21,-1
 884 1021 l 1,22,-1
 787 1021 l 1,23,-1
 796 1066 l 1,24,-1
 1036 1066 l 1,25,-1
 1092 747 l 1,26,-1
 1265 1066 l 1,27,-1
 1481 1066 l 1,28,-1
 1473 1021 l 1,29,-1
 1375 1021 l 1,30,-1
 1285 569 l 1,31,-1
 1383 569 l 1,32,-1
 1373 524 l 1,33,-1
 1178 524 l 1,34,-1
 1270 985 l 1,35,-1
 1041 569 l 1,36,-1
 1011 569 l 1,16,-1
EndSplineSet
EndChar

StartChar: acute
Encoding: 180 180 111
Width: 256
Flags: W
LayerCount: 2
Fore
SplineSet
118 999 m 1,0,1
 195 1083 195 1083 192 1046 c 1,2,3
 183 1014 183 1014 135.5 924 c 128,-1,4
 88 834 88 834 66 802 c 1,5,6
 55 796 55 796 62 848 c 1,7,8
 83 919 83 919 118 999 c 1,0,1
EndSplineSet
EndChar

StartChar: dieresis
Encoding: 168 168 112
Width: 862
Flags: W
LayerCount: 2
Fore
SplineSet
495 923 m 1,0,-1
 408 1033 l 1,1,-1
 520 1119 l 1,2,-1
 607 1003 l 1,3,-1
 495 923 l 1,0,-1
841 923 m 1,4,-1
 752 1035 l 1,5,-1
 866 1119 l 1,6,-1
 951 1004 l 1,7,-1
 841 923 l 1,4,-1
EndSplineSet
EndChar

StartChar: plusminus
Encoding: 177 177 113
Width: 932
Flags: W
LayerCount: 2
Fore
SplineSet
76 0 m 1,0,-1
 92 80 l 1,1,-1
 873 80 l 1,2,-1
 858 0 l 1,3,-1
 76 0 l 1,0,-1
469 213 m 1,4,-1
 525 493 l 1,5,-1
 174 493 l 1,6,-1
 189 573 l 1,7,-1
 541 573 l 1,8,-1
 596 852 l 1,9,-1
 676 852 l 1,10,-1
 621 573 l 1,11,-1
 971 573 l 1,12,-1
 956 493 l 1,13,-1
 605 493 l 1,14,-1
 549 213 l 1,15,-1
 469 213 l 1,4,-1
EndSplineSet
EndChar

StartChar: yen
Encoding: 165 165 114
Width: 965
Flags: W
LayerCount: 2
Fore
SplineSet
156 0 m 1,0,-1
 247 99 l 1,1,2
 269 97 269 97 279 97 c 0,3,4
 415 97 415 97 477 257 c 1,5,-1
 272 257 l 1,6,-1
 280 301 l 1,7,-1
 489 301 l 1,8,9
 495 346 495 346 499 409 c 1,10,-1
 301 409 l 1,11,-1
 310 453 l 1,12,-1
 499 453 l 1,13,14
 499 465 499 465 499 470 c 0,15,16
 499 567 499 567 463.5 631 c 128,-1,17
 428 695 428 695 375 695 c 256,18,19
 322 695 322 695 250 638 c 128,-1,20
 178 581 178 581 139 509 c 1,21,-1
 106 534 l 1,22,23
 172 650 172 650 268.5 724.5 c 128,-1,24
 365 799 365 799 452 799 c 0,25,26
 612 799 612 799 612 518 c 1,27,-1
 611 472 l 1,28,29
 736 799 736 799 971 799 c 0,30,31
 1045 799 1045 799 1100 765 c 1,32,-1
 1016 653 l 1,33,34
 967 684 967 684 915 684 c 0,35,36
 742 684 742 684 651 453 c 1,37,-1
 835 453 l 1,38,-1
 826 409 l 1,39,-1
 643 409 l 1,40,-1
 634 369 l 2,41,42
 627 335 627 335 609 301 c 1,43,-1
 805 301 l 1,44,-1
 796 257 l 1,45,-1
 585 257 l 1,46,47
 519 138 519 138 389 91 c 1,48,-1
 624 77 l 1,49,-1
 534 -18 l 1,50,-1
 156 0 l 1,0,-1
EndSplineSet
EndChar

StartChar: mu1
Encoding: 181 181 115
Width: 992
Flags: W
LayerCount: 2
Fore
SplineSet
100 -302 m 1,0,-1
 155 -76 l 1,1,-1
 270 500 l 2,2,3
 282 560 282 560 282 611 c 0,4,5
 282 693 282 693 206 782 c 1,6,-1
 368 790 l 1,7,8
 427 740 427 740 427 623 c 0,9,10
 427 576 427 576 409 481 c 2,11,-1
 355 213 l 2,12,13
 347 176 347 176 347 161 c 0,14,15
 347 106 347 106 391 106 c 0,16,17
 446 106 446 106 553.5 229 c 128,-1,18
 661 352 661 352 753 519 c 1,19,-1
 805 782 l 1,20,-1
 958 790 l 1,21,-1
 905 569 l 1,22,-1
 834 213 l 2,23,24
 818 132 818 132 818 106 c 0,25,26
 818 53 818 53 861 53 c 0,27,28
 931 53 931 53 1075 218 c 1,29,-1
 1062 151 l 1,30,31
 905 -18 905 -18 779 -18 c 0,32,33
 675 -18 675 -18 675 91 c 0,34,35
 675 128 675 128 692 213 c 2,36,-1
 727 391 l 1,37,-1
 717 391 l 1,38,39
 517 0 517 0 312 0 c 1,40,-1
 255 -284 l 1,41,-1
 100 -302 l 1,0,-1
EndSplineSet
EndChar

StartChar: logicalnot
Encoding: 172 172 116
Width: 932
Flags: W
LayerCount: 2
Fore
SplineSet
177 510 m 1,0,-1
 193 590 l 1,1,-1
 975 590 l 1,2,-1
 906 248 l 1,3,-1
 814 248 l 1,4,-1
 866 510 l 1,5,-1
 177 510 l 1,0,-1
EndSplineSet
EndChar

StartChar: florin
Encoding: 402 402 117
Width: 679
Flags: W
LayerCount: 2
Fore
SplineSet
158 -231 m 1,0,-1
 210 -18 l 1,1,-1
 286 364 l 1,2,-1
 108 364 l 1,3,-1
 117 409 l 1,4,-1
 294 409 l 1,5,-1
 298 427 l 2,6,7
 330 586 330 586 463 692.5 c 128,-1,8
 596 799 596 799 761 799 c 0,9,10
 818 799 818 799 860 784 c 1,11,-1
 764 678 l 1,12,13
 712 729 712 729 643 729 c 0,14,15
 500 729 500 729 457 512 c 2,16,-1
 436 409 l 1,17,-1
 623 409 l 1,18,-1
 614 364 l 1,19,-1
 427 364 l 1,20,-1
 313 -213 l 1,21,-1
 158 -231 l 1,0,-1
EndSplineSet
EndChar

StartChar: ellipsis
Encoding: 8230 8230 118
Width: 1474
Flags: W
LayerCount: 2
Fore
SplineSet
178 0 m 1,0,-1
 206 142 l 1,1,-1
 348 142 l 1,2,-1
 319 0 l 1,3,-1
 178 0 l 1,0,-1
667 0 m 1,4,-1
 695 142 l 1,5,-1
 837 142 l 1,6,-1
 808 0 l 1,7,-1
 667 0 l 1,4,-1
1155 0 m 1,8,-1
 1183 142 l 1,9,-1
 1326 142 l 1,10,-1
 1297 0 l 1,11,-1
 1155 0 l 1,8,-1
EndSplineSet
EndChar

StartChar: OE
Encoding: 338 338 119
Width: 1477
Flags: W
LayerCount: 2
Fore
SplineSet
816 0 m 1,0,-1
 831 70 l 1,1,2
 711 -27 711 -27 549 -27 c 0,3,4
 371 -27 371 -27 269 81 c 128,-1,5
 167 189 167 189 167 378 c 0,6,7
 167 661 167 661 358 877 c 128,-1,8
 549 1093 549 1093 799 1093 c 0,9,10
 931 1093 931 1093 1017 1007 c 1,11,-1
 1029 1066 l 1,12,-1
 1593 1066 l 1,13,-1
 1529 862 l 1,14,-1
 1484 862 l 1,15,16
 1490 891 1490 891 1490 913 c 0,17,18
 1490 969 1490 969 1424.5 990.5 c 128,-1,19
 1359 1012 1359 1012 1187 1012 c 2,20,-1
 1165 1012 l 1,21,-1
 1082 586 l 1,22,-1
 1402 586 l 1,23,-1
 1329 512 l 1,24,25
 1165 533 1165 533 1107 533 c 2,26,-1
 1071 533 l 1,27,-1
 1012 218 l 2,28,29
 1002 167 1002 167 1002 156 c 0,30,31
 1002 80 1002 80 1228 80 c 0,32,33
 1348 80 1348 80 1453 160 c 1,34,-1
 1442 103 l 1,35,36
 1318 -23 1318 -23 1203 -23 c 0,37,38
 1183 -23 1183 -23 1161 -21 c 2,39,-1
 816 0 l 1,0,-1
888 361 m 2,40,-1
 961 723 l 2,41,42
 974 786 974 786 974 841 c 0,43,44
 974 933 974 933 916.5 990.5 c 128,-1,45
 859 1048 859 1048 769 1048 c 0,46,47
 604 1048 604 1048 466.5 844 c 128,-1,48
 329 640 329 640 329 395 c 0,49,50
 329 218 329 218 396.5 117.5 c 128,-1,51
 464 17 464 17 585 17 c 0,52,53
 818 17 818 17 888 361 c 2,40,-1
EndSplineSet
EndChar

StartChar: oe
Encoding: 339 339 120
Width: 1350
Flags: W
LayerCount: 2
Fore
SplineSet
706 145 m 1,0,1
 535 -18 535 -18 370 -18 c 0,2,3
 273 -18 273 -18 209 55 c 128,-1,4
 145 128 145 128 145 237 c 0,5,6
 145 448 145 448 302.5 623.5 c 128,-1,7
 460 799 460 799 650 799 c 0,8,9
 794 799 794 799 859 630 c 1,10,11
 1025 799 1025 799 1183 799 c 0,12,13
 1246 799 1246 799 1286.5 758 c 128,-1,14
 1327 717 1327 717 1327 651 c 0,15,16
 1327 508 1327 508 1192.5 414 c 128,-1,17
 1058 320 1058 320 841 311 c 1,18,-1
 840 278 l 1,19,20
 840 66 840 66 998 66 c 0,21,22
 1113 66 1113 66 1327 200 c 1,23,-1
 1316 146 l 1,24,25
 1083 -18 1083 -18 917 -18 c 0,26,27
 758 -18 758 -18 706 145 c 1,0,1
431 35 m 0,28,29
 544 35 544 35 636 178.5 c 128,-1,30
 728 322 728 322 728 499 c 0,31,32
 728 607 728 607 689 672 c 128,-1,33
 650 737 650 737 584 737 c 0,34,35
 472 737 472 737 382 594 c 128,-1,36
 292 451 292 451 292 272 c 0,37,38
 292 35 292 35 431 35 c 0,28,29
844 355 m 1,39,40
 1004 368 1004 368 1097.5 438.5 c 128,-1,41
 1191 509 1191 509 1191 620 c 0,42,43
 1191 733 1191 733 1110 733 c 0,44,45
 1024 733 1024 733 941.5 616 c 128,-1,46
 859 499 859 499 844 355 c 1,39,40
EndSplineSet
EndChar

StartChar: endash
Encoding: 8211 8211 121
Width: 434
Flags: W
LayerCount: 2
Fore
SplineSet
434 154 m 1,0,-1
 0 154 l 1,1,-1
 0 234 l 1,2,-1
 434 234 l 1,3,-1
 434 154 l 1,0,-1
EndSplineSet
EndChar

StartChar: emdash
Encoding: 8212 8212 122
Width: 1862
Flags: W
LayerCount: 2
Fore
SplineSet
1866 572 m 1,0,-1
 -4 572 l 1,1,-1
 -4 732 l 1,2,-1
 1866 732 l 1,3,-1
 1866 572 l 1,0,-1
EndSplineSet
EndChar

StartChar: quotedblleft
Encoding: 8220 8220 123
Width: 596
Flags: W
LayerCount: 2
Fore
SplineSet
314 1188 m 1,0,1
 295 1172 295 1172 278 1155 c 128,-1,2
 261 1138 261 1138 248 1119 c 128,-1,3
 235 1100 235 1100 227.5 1078 c 128,-1,4
 220 1056 220 1056 220 1029 c 0,5,6
 220 998 220 998 229.5 963.5 c 128,-1,7
 239 929 239 929 239 886 c 0,8,9
 239 855 239 855 220 830.5 c 128,-1,10
 201 806 201 806 172 806 c 0,11,12
 146 806 146 806 129 815 c 128,-1,13
 112 824 112 824 102 839.5 c 128,-1,14
 92 855 92 855 87.5 875.5 c 128,-1,15
 83 896 83 896 83 919 c 0,16,17
 83 965 83 965 102.5 1008.5 c 128,-1,18
 122 1052 122 1052 153 1089.5 c 128,-1,19
 184 1127 184 1127 222.5 1157 c 128,-1,20
 261 1187 261 1187 299 1206 c 1,21,-1
 314 1188 l 1,0,1
611 1188 m 1,22,23
 573 1156 573 1156 546 1119 c 128,-1,24
 519 1082 519 1082 519 1029 c 0,25,26
 519 998 519 998 527.5 963.5 c 128,-1,27
 536 929 536 929 536 886 c 0,28,29
 536 855 536 855 517.5 830.5 c 128,-1,30
 499 806 499 806 468 806 c 0,31,32
 442 806 442 806 425.5 815 c 128,-1,33
 409 824 409 824 398.5 839.5 c 128,-1,34
 388 855 388 855 384 875.5 c 128,-1,35
 380 896 380 896 380 919 c 0,36,37
 380 965 380 965 399.5 1009 c 128,-1,38
 419 1053 419 1053 450 1091 c 128,-1,39
 481 1129 481 1129 519.5 1158.5 c 128,-1,40
 558 1188 558 1188 597 1206 c 1,41,-1
 611 1188 l 1,22,23
EndSplineSet
EndChar

StartChar: quotedblright
Encoding: 8221 8221 124
Width: 736
Flags: W
LayerCount: 2
Fore
SplineSet
380 824 m 1,0,1
 399 840 399 840 416 857 c 128,-1,2
 433 874 433 874 446 893 c 128,-1,3
 459 912 459 912 466.5 934 c 128,-1,4
 474 956 474 956 474 983 c 0,5,6
 474 1014 474 1014 464.5 1048.5 c 128,-1,7
 455 1083 455 1083 455 1126 c 0,8,9
 455 1157 455 1157 474 1181.5 c 128,-1,10
 493 1206 493 1206 522 1206 c 0,11,12
 547 1206 547 1206 564.5 1197 c 128,-1,13
 582 1188 582 1188 592 1172.5 c 128,-1,14
 602 1157 602 1157 606.5 1136.5 c 128,-1,15
 611 1116 611 1116 611 1093 c 0,16,17
 611 1046 611 1046 591.5 1003 c 128,-1,18
 572 960 572 960 541 922.5 c 128,-1,19
 510 885 510 885 471.5 855 c 128,-1,20
 433 825 433 825 395 806 c 1,21,-1
 380 824 l 1,0,1
83 824 m 1,22,23
 121 856 121 856 148 893 c 128,-1,24
 175 930 175 930 175 983 c 0,25,26
 175 1014 175 1014 166.5 1048.5 c 128,-1,27
 158 1083 158 1083 158 1126 c 0,28,29
 158 1157 158 1157 176.5 1181.5 c 128,-1,30
 195 1206 195 1206 226 1206 c 0,31,32
 251 1206 251 1206 268 1197 c 128,-1,33
 285 1188 285 1188 295.5 1172.5 c 128,-1,34
 306 1157 306 1157 310 1136.5 c 128,-1,35
 314 1116 314 1116 314 1093 c 0,36,37
 314 1046 314 1046 294.5 1002.5 c 128,-1,38
 275 959 275 959 244 921 c 128,-1,39
 213 883 213 883 174.5 853.5 c 128,-1,40
 136 824 136 824 97 806 c 1,41,-1
 83 824 l 1,22,23
EndSplineSet
EndChar

StartChar: divide
Encoding: 247 247 125
Width: 1147
Flags: W
LayerCount: 2
Fore
SplineSet
656 838 m 1,0,-1
 487 838 l 1,1,-1
 487 1031 l 1,2,-1
 656 1031 l 1,3,-1
 656 838 l 1,0,-1
986 527 m 1,4,-1
 157 527 l 1,5,-1
 157 640 l 1,6,-1
 986 640 l 1,7,-1
 986 527 l 1,4,-1
656 136 m 1,8,-1
 487 136 l 1,9,-1
 487 329 l 1,10,-1
 656 329 l 1,11,-1
 656 136 l 1,8,-1
EndSplineSet
EndChar

StartChar: lozenge
Encoding: 9674 9674 126
Width: 1118
Flags: W
LayerCount: 2
Fore
SplineSet
1003 699 m 1,0,-1
 560 197 l 1,1,-1
 117 699 l 1,2,-1
 560 1202 l 1,3,-1
 1003 699 l 1,0,-1
848 699 m 1,4,-1
 560 1036 l 1,5,-1
 271 699 l 1,6,-1
 560 364 l 1,7,-1
 848 699 l 1,4,-1
EndSplineSet
EndChar

StartChar: Euro
Encoding: 8364 8364 128
Width: 812
Flags: W
LayerCount: 2
Fore
SplineSet
210 464 m 1,0,1
 252 596 252 596 371.5 697.5 c 128,-1,2
 491 799 491 799 674 799 c 0,3,4
 773 799 773 799 885 769 c 1,5,-1
 845 624 l 1,6,-1
 795 624 l 1,7,8
 801 653 801 653 801 665 c 0,9,10
 801 701 801 701 757 726 c 128,-1,11
 713 751 713 751 649 751 c 0,12,13
 445 751 445 751 349 464 c 1,14,-1
 686 464 l 1,15,-1
 677 420 l 1,16,-1
 337 420 l 2,17,18
 335 418 335 418 332 404 c 2,19,-1
 325 365 l 1,20,-1
 325 360 l 1,21,-1
 665 360 l 1,22,-1
 656 315 l 1,23,-1
 319 315 l 1,24,-1
 319 289 l 2,25,26
 319 178 319 178 370 115.5 c 128,-1,27
 421 53 421 53 512 53 c 0,28,29
 636 53 636 53 765 135 c 1,30,-1
 755 72 l 1,31,32
 604 -18 604 -18 459 -18 c 0,33,34
 324 -18 324 -18 249.5 59 c 128,-1,35
 175 136 175 136 175 274 c 0,36,37
 175 300 175 300 175 315 c 1,38,-1
 111 315 l 1,39,-1
 120 360 l 1,40,-1
 182 360 l 1,41,-1
 182 364 l 1,42,43
 189 401 189 401 194 420 c 1,44,-1
 118 420 l 1,45,-1
 127 464 l 1,46,-1
 210 464 l 1,0,1
EndSplineSet
EndChar

StartChar: guilsinglleft
Encoding: 8249 8249 129
Width: 560
Flags: W
LayerCount: 2
Fore
SplineSet
375 71 m 1,0,1
 304 237 304 237 167 391 c 1,2,3
 358 507 358 507 437 653 c 1,4,-1
 587 711 l 1,5,6
 536 589 536 589 315 441 c 1,7,8
 423 310 423 310 499 138 c 1,9,-1
 375 71 l 1,0,1
EndSplineSet
EndChar

StartChar: guilsinglright
Encoding: 8250 8250 130
Width: 560
Flags: W
LayerCount: 2
Fore
SplineSet
339 711 m 1,0,1
 410 545 410 545 546 391 c 1,2,3
 356 275 356 275 276 128 c 1,4,-1
 128 71 l 1,5,6
 178 193 178 193 400 341 c 1,7,8
 293 470 293 470 215 643 c 1,9,-1
 339 711 l 1,0,1
EndSplineSet
EndChar

StartChar: daggerdbl
Encoding: 8225 8225 133
Width: 932
Flags: W
LayerCount: 2
Fore
SplineSet
349 -231 m 1,0,-1
 481 185 l 1,1,-1
 161 154 l 1,2,-1
 211 261 l 1,3,-1
 490 229 l 1,4,-1
 567 616 l 1,5,-1
 247 586 l 1,6,-1
 297 693 l 1,7,-1
 575 661 l 1,8,-1
 608 1066 l 1,9,-1
 758 1093 l 1,10,-1
 620 661 l 1,11,-1
 940 693 l 1,12,-1
 889 586 l 1,13,-1
 611 616 l 1,14,-1
 535 229 l 1,15,-1
 855 261 l 1,16,-1
 804 154 l 1,17,-1
 525 185 l 1,18,-1
 499 -213 l 1,19,-1
 349 -231 l 1,0,-1
EndSplineSet
EndChar

StartChar: middot.001
Encoding: 8729 8729 134
Width: 620
Flags: W
LayerCount: 2
Fore
SplineSet
429 516 m 1,0,-1
 190 516 l 1,1,-1
 190 789 l 1,2,-1
 429 789 l 1,3,-1
 429 516 l 1,0,-1
EndSplineSet
EndChar

StartChar: quotesinglbase
Encoding: 8218 8218 135
Width: 418
Flags: W
LayerCount: 2
Fore
SplineSet
103 128 m 1,0,-1
 247 231 l 1,1,-1
 353 90 l 1,2,3
 345 -56 345 -56 262.5 -134.5 c 128,-1,4
 180 -213 180 -213 36 -213 c 1,5,-1
 76 -168 l 1,6,7
 189 -158 189 -158 211 -18 c 1,8,-1
 103 128 l 1,0,-1
EndSplineSet
EndChar

StartChar: quotedblbase
Encoding: 8222 8222 136
Width: 684
Flags: W
LayerCount: 2
Fore
SplineSet
91 92 m 1,0,-1
 204 178 l 1,1,-1
 292 64 l 1,2,3
 270 -213 270 -213 31 -213 c 1,4,-1
 60 -168 l 1,5,6
 166 -148 166 -148 179 -16 c 1,7,-1
 91 92 l 1,0,-1
401 92 m 1,8,-1
 516 178 l 1,9,-1
 602 64 l 1,10,11
 581 -213 581 -213 341 -213 c 1,12,-1
 372 -168 l 1,13,14
 476 -148 476 -148 490 -16 c 1,15,-1
 401 92 l 1,8,-1
EndSplineSet
EndChar

StartChar: perthousand
Encoding: 8240 8240 137
Width: 1571
Flags: W
LayerCount: 2
Fore
SplineSet
385 533 m 0,0,1
 304 533 304 533 254.5 584.5 c 128,-1,2
 205 636 205 636 205 722 c 0,3,4
 205 865 205 865 286.5 965.5 c 128,-1,5
 368 1066 368 1066 483 1066 c 0,6,7
 567 1066 567 1066 617.5 1014.5 c 128,-1,8
 668 963 668 963 668 877 c 0,9,10
 668 733 668 733 585.5 633 c 128,-1,11
 503 533 503 533 385 533 c 0,0,1
311 715 m 0,12,13
 311 578 311 578 398 578 c 0,14,15
 463 578 463 578 517 671.5 c 128,-1,16
 571 765 571 765 571 881 c 0,17,18
 571 1022 571 1022 483 1022 c 0,19,20
 416 1022 416 1022 363.5 928 c 128,-1,21
 311 834 311 834 311 715 c 0,12,13
850 0 m 0,22,23
 769 0 769 0 719.5 51.5 c 128,-1,24
 670 103 670 103 670 189 c 0,25,26
 670 331 670 331 751 432 c 128,-1,27
 832 533 832 533 947 533 c 0,28,29
 1031 533 1031 533 1081.5 481.5 c 128,-1,30
 1132 430 1132 430 1132 344 c 0,31,32
 1132 200 1132 200 1049.5 100 c 128,-1,33
 967 0 967 0 850 0 c 0,22,23
776 182 m 0,34,35
 776 44 776 44 862 44 c 0,36,37
 929 44 929 44 982 138 c 128,-1,38
 1035 232 1035 232 1035 348 c 0,39,40
 1035 490 1035 490 948 490 c 0,41,42
 880 490 880 490 828 395.5 c 128,-1,43
 776 301 776 301 776 182 c 0,34,35
131 -27 m 1,44,-1
 1111 1093 l 1,45,-1
 1206 1093 l 1,46,-1
 225 -27 l 1,47,-1
 131 -27 l 1,44,-1
1376 0 m 0,48,49
 1294 0 1294 0 1244.5 51.5 c 128,-1,50
 1195 103 1195 103 1195 189 c 0,51,52
 1195 331 1195 331 1276.5 432 c 128,-1,53
 1358 533 1358 533 1473 533 c 0,54,55
 1557 533 1557 533 1607.5 481.5 c 128,-1,56
 1658 430 1658 430 1658 344 c 0,57,58
 1658 200 1658 200 1575.5 100 c 128,-1,59
 1493 0 1493 0 1376 0 c 0,48,49
1301 183 m 0,60,61
 1301 44 1301 44 1389 44 c 0,62,63
 1453 44 1453 44 1507 138 c 128,-1,64
 1561 232 1561 232 1561 347 c 0,65,66
 1561 490 1561 490 1473 490 c 0,67,68
 1406 490 1406 490 1353.5 395.5 c 128,-1,69
 1301 301 1301 301 1301 183 c 0,60,61
EndSplineSet
EndChar

StartChar: circumflex
Encoding: 710 710 139
Width: 862
Flags: W
LayerCount: 2
Fore
SplineSet
870 976 m 1,0,-1
 783 923 l 1,1,2
 729 984 729 984 693 1082 c 1,3,4
 652 1032 652 1032 574 953 c 0,5,6
 571 949 571 949 553 931 c 1,7,-1
 452 923 l 1,8,9
 607 1037 607 1037 674 1120 c 1,10,-1
 772 1182 l 1,11,12
 805 1069 805 1069 870 976 c 1,0,-1
EndSplineSet
EndChar

StartChar: cedilla
Encoding: 184 184 140
Width: 862
Flags: W
LayerCount: 2
Fore
SplineSet
456 0 m 1,0,-1
 414 -64 l 1,1,2
 485 -86 485 -86 485 -147 c 0,3,4
 485 -198 485 -198 428.5 -241 c 128,-1,5
 372 -284 372 -284 303 -284 c 0,6,7
 272 -284 272 -284 237 -277 c 1,8,-1
 292 -201 l 1,9,10
 326 -223 326 -223 352 -223 c 0,11,12
 416 -223 416 -223 416 -171 c 0,13,14
 416 -112 416 -112 318 -112 c 1,15,-1
 394 0 l 1,16,-1
 456 0 l 1,0,-1
EndSplineSet
EndChar

StartChar: brokenbar
Encoding: 166 166 141
Width: 355
Flags: W
LayerCount: 2
Fore
SplineSet
86 -213 m 1,0,-1
 203 373 l 1,1,-1
 301 373 l 1,2,-1
 184 -213 l 1,3,-1
 86 -213 l 1,0,-1
238 551 m 1,4,-1
 355 1137 l 1,5,-1
 453 1137 l 1,6,-1
 337 551 l 1,7,-1
 238 551 l 1,4,-1
EndSplineSet
EndChar

StartChar: minus
Encoding: 8722 8722 142
Width: 1490
Flags: W
LayerCount: 2
Fore
SplineSet
1308 572 m 1,0,-1
 182 572 l 1,1,-1
 182 732 l 1,2,-1
 1308 732 l 1,3,-1
 1308 572 l 1,0,-1
EndSplineSet
EndChar

StartChar: multiply
Encoding: 215 215 143
Width: 965
Flags: W
LayerCount: 2
Fore
SplineSet
394 555 m 1,0,-1
 191 760 l 1,1,-1
 295 865 l 1,2,-1
 498 659 l 1,3,-1
 708 866 l 1,4,-1
 813 760 l 1,5,-1
 604 554 l 1,6,-1
 818 337 l 1,7,-1
 713 232 l 1,8,-1
 499 449 l 1,9,-1
 290 244 l 1,10,-1
 185 349 l 1,11,-1
 394 555 l 1,0,-1
EndSplineSet
EndChar

StartChar: onesuperior
Encoding: 185 185 144
Width: 596
Flags: W
LayerCount: 2
Fore
SplineSet
573 1093 m 1,0,-1
 487 657 l 2,1,2
 476 607 476 607 476 589 c 0,3,4
 476 570 476 570 532 563 c 1,5,-1
 591 560 l 1,6,-1
 582 516 l 1,7,-1
 210 516 l 1,8,-1
 218 560 l 1,9,-1
 279 563 l 2,10,11
 328 567 328 567 337.5 578 c 128,-1,12
 347 589 347 589 362 657 c 2,13,-1
 418 938 l 2,14,15
 423 960 423 960 423 978 c 0,16,17
 423 1004 423 1004 355 1013 c 2,18,-1
 310 1021 l 1,19,-1
 319 1066 l 1,20,-1
 573 1093 l 1,0,-1
EndSplineSet
EndChar

StartChar: twosuperior
Encoding: 178 178 145
Width: 596
Flags: W
LayerCount: 2
Fore
SplineSet
187 516 m 1,0,-1
 207 617 l 1,1,2
 362 712 362 712 454.5 803.5 c 128,-1,3
 547 895 547 895 547 952 c 0,4,5
 547 1046 547 1046 463 1046 c 0,6,7
 352 1046 352 1046 331 928 c 1,8,-1
 278 928 l 1,9,-1
 304 1059 l 1,10,11
 400 1093 400 1093 484 1093 c 0,12,13
 674 1093 674 1093 674 959 c 0,14,15
 674 887 674 887 624.5 842 c 128,-1,16
 575 797 575 797 297 617 c 1,17,-1
 607 617 l 1,18,-1
 587 516 l 1,19,-1
 187 516 l 1,0,-1
EndSplineSet
EndChar

StartChar: threesuperior
Encoding: 179 179 146
Width: 596
Flags: W
LayerCount: 2
Fore
SplineSet
185 545 m 1,0,-1
 257 620 l 1,1,2
 337 556 337 556 418 556 c 0,3,4
 460 556 460 556 490.5 587 c 128,-1,5
 521 618 521 618 521 661 c 0,6,7
 521 776 521 776 345 776 c 0,8,9
 323 776 323 776 301 773 c 1,10,-1
 331 859 l 1,11,12
 350 860 350 860 365 860 c 0,13,14
 412 860 412 860 466 849 c 1,15,16
 547 886 547 886 547 961 c 0,17,18
 547 1046 547 1046 454 1046 c 0,19,20
 365 1046 365 1046 342 941 c 1,21,-1
 289 941 l 1,22,-1
 311 1057 l 1,23,24
 398 1093 398 1093 484 1093 c 0,25,26
 662 1093 662 1093 662 984 c 0,27,28
 662 893 662 893 520 829 c 1,29,30
 625 790 625 790 625 693 c 0,31,32
 625 616 625 616 554.5 563 c 128,-1,33
 484 510 484 510 378 510 c 0,34,35
 289 510 289 510 185 545 c 1,0,-1
EndSplineSet
EndChar

StartChar: onehalf
Encoding: 189 189 147
Width: 1262
Flags: W
LayerCount: 2
Fore
SplineSet
528 1093 m 1,0,-1
 442 657 l 2,1,2
 432 606 432 606 432 589 c 0,3,4
 432 570 432 570 488 563 c 1,5,-1
 547 560 l 1,6,-1
 538 516 l 1,7,-1
 165 516 l 1,8,-1
 174 560 l 1,9,-1
 235 563 l 2,10,11
 283 567 283 567 293 578 c 128,-1,12
 303 589 303 589 318 657 c 2,13,-1
 373 938 l 2,14,15
 378 960 378 960 378 978 c 0,16,17
 378 1004 378 1004 310 1013 c 2,18,-1
 265 1021 l 1,19,-1
 274 1066 l 1,20,-1
 528 1093 l 1,0,-1
160 -27 m 1,21,-1
 1180 1093 l 1,22,-1
 1280 1093 l 1,23,-1
 257 -27 l 1,24,-1
 160 -27 l 1,21,-1
778 0 m 1,25,-1
 797 103 l 1,26,27
 952 197 952 197 1045 288 c 128,-1,28
 1138 379 1138 379 1138 436 c 0,29,30
 1138 530 1138 530 1053 530 c 0,31,32
 942 530 942 530 922 413 c 1,33,-1
 868 413 l 1,34,-1
 895 544 l 1,35,36
 989 578 989 578 1075 578 c 0,37,38
 1264 578 1264 578 1264 445 c 0,39,40
 1264 373 1264 373 1214.5 328 c 128,-1,41
 1165 283 1165 283 887 103 c 1,42,-1
 1197 103 l 1,43,-1
 1177 0 l 1,44,-1
 778 0 l 1,25,-1
EndSplineSet
EndChar

StartChar: onequarter
Encoding: 188 188 148
Width: 1262
Flags: W
LayerCount: 2
Fore
SplineSet
546 1093 m 1,0,-1
 460 657 l 2,1,2
 450 606 450 606 450 589 c 0,3,4
 450 570 450 570 506 563 c 1,5,-1
 565 560 l 1,6,-1
 556 516 l 1,7,-1
 183 516 l 1,8,-1
 192 560 l 1,9,-1
 253 563 l 2,10,11
 301 567 301 567 311 578 c 128,-1,12
 321 589 321 589 336 657 c 2,13,-1
 391 938 l 2,14,15
 396 960 396 960 396 978 c 0,16,17
 396 1004 396 1004 328 1013 c 2,18,-1
 283 1021 l 1,19,-1
 292 1066 l 1,20,-1
 546 1093 l 1,0,-1
178 -27 m 1,21,-1
 1198 1093 l 1,22,-1
 1298 1093 l 1,23,-1
 275 -27 l 1,24,-1
 178 -27 l 1,21,-1
981 164 m 1,25,-1
 732 182 l 1,26,-1
 747 261 l 1,27,-1
 1102 578 l 1,28,-1
 1170 578 l 1,29,-1
 1102 236 l 1,30,-1
 1212 229 l 1,31,-1
 1168 149 l 1,32,-1
 1086 157 l 1,33,34
 1076 102 1076 102 1076 74 c 0,35,36
 1076 52 1076 52 1129 49 c 2,37,-1
 1189 45 l 1,38,-1
 1180 0 l 1,39,-1
 820 0 l 1,40,-1
 829 45 l 1,41,-1
 886 49 l 2,42,43
 937 52 937 52 952 64 c 128,-1,44
 967 76 967 76 973 117 c 0,45,46
 976 134 976 134 981 164 c 1,25,-1
997 244 m 1,47,-1
 1038 446 l 1,48,-1
 823 255 l 1,49,-1
 997 244 l 1,47,-1
EndSplineSet
EndChar

StartChar: threequarters
Encoding: 190 190 149
Width: 1262
Flags: W
LayerCount: 2
Fore
SplineSet
174 545 m 1,0,-1
 247 620 l 1,1,2
 326 556 326 556 407 556 c 0,3,4
 448 556 448 556 478.5 587 c 128,-1,5
 509 618 509 618 509 661 c 0,6,7
 509 776 509 776 333 776 c 0,8,9
 311 776 311 776 289 773 c 1,10,-1
 319 859 l 1,11,12
 338 860 338 860 355 860 c 0,13,14
 401 860 401 860 455 849 c 1,15,16
 535 886 535 886 535 961 c 0,17,18
 535 1046 535 1046 442 1046 c 0,19,20
 354 1046 354 1046 330 941 c 1,21,-1
 277 941 l 1,22,-1
 301 1057 l 1,23,24
 387 1093 387 1093 472 1093 c 0,25,26
 651 1093 651 1093 651 984 c 0,27,28
 651 893 651 893 508 829 c 1,29,30
 614 790 614 790 614 693 c 0,31,32
 614 616 614 616 543 563 c 128,-1,33
 472 510 472 510 366 510 c 0,34,35
 277 510 277 510 174 545 c 1,0,-1
178 -27 m 1,36,-1
 1198 1093 l 1,37,-1
 1298 1093 l 1,38,-1
 275 -27 l 1,39,-1
 178 -27 l 1,36,-1
981 164 m 1,40,-1
 732 182 l 1,41,-1
 747 261 l 1,42,-1
 1102 578 l 1,43,-1
 1170 578 l 1,44,-1
 1102 236 l 1,45,-1
 1212 229 l 1,46,-1
 1168 149 l 1,47,-1
 1086 157 l 1,48,49
 1076 102 1076 102 1076 74 c 0,50,51
 1076 52 1076 52 1129 49 c 2,52,-1
 1189 45 l 1,53,-1
 1180 0 l 1,54,-1
 820 0 l 1,55,-1
 829 45 l 1,56,-1
 886 49 l 2,57,58
 938 52 938 52 952.5 64 c 128,-1,59
 967 76 967 76 973 117 c 0,60,61
 976 134 976 134 981 164 c 1,40,-1
997 244 m 1,62,-1
 1038 446 l 1,63,-1
 823 255 l 1,64,-1
 997 244 l 1,62,-1
EndSplineSet
EndChar

StartChar: macron
Encoding: 175 175 150
Width: 1118
Flags: W
LayerCount: 2
Fore
SplineSet
1134 1659 m 1,0,-1
 -16 1659 l 1,1,-1
 -16 1789 l 1,2,-1
 1134 1789 l 1,3,-1
 1134 1659 l 1,0,-1
EndSplineSet
EndChar

StartChar: periodcentered
Encoding: 183 183 151
Width: 724
Flags: W
LayerCount: 2
Fore
SplineSet
482 832 m 1,0,-1
 243 832 l 1,1,-1
 243 1117 l 1,2,-1
 482 1117 l 1,3,-1
 482 832 l 1,0,-1
EndSplineSet
EndChar

StartChar: H22073
Encoding: 9633 9633 152
Width: 1237
Flags: W
LayerCount: 2
Fore
SplineSet
146 944 m 1,0,-1
 1090 944 l 1,1,-1
 1090 0 l 1,2,-1
 146 0 l 1,3,-1
 146 944 l 1,0,-1
222 868 m 1,4,-1
 222 76 l 1,5,-1
 1014 76 l 1,6,-1
 1014 868 l 1,7,-1
 222 868 l 1,4,-1
EndSplineSet
EndChar

StartChar: H18543
Encoding: 9642 9642 153
Width: 1089
Flags: W
LayerCount: 2
Fore
SplineSet
886 994 m 1,0,-1
 886 300 l 1,1,-1
 192 300 l 1,2,-1
 192 994 l 1,3,-1
 886 994 l 1,0,-1
EndSplineSet
EndChar

StartChar: H18551
Encoding: 9643 9643 154
Width: 1089
Flags: W
LayerCount: 2
Fore
SplineSet
888 996 m 1,0,-1
 888 301 l 1,1,-1
 193 301 l 1,2,-1
 193 996 l 1,3,-1
 888 996 l 1,0,-1
774 882 m 1,4,-1
 307 882 l 1,5,-1
 307 415 l 1,6,-1
 774 415 l 1,7,-1
 774 882 l 1,4,-1
EndSplineSet
EndChar

StartChar: H18533
Encoding: 9679 9679 155
Width: 1339
Flags: W
LayerCount: 2
Fore
SplineSet
204 719 m 0,0,1
 204 920 204 920 345 1061 c 128,-1,2
 486 1202 486 1202 685 1202 c 0,3,4
 885 1202 885 1202 1026 1061 c 128,-1,5
 1167 920 1167 920 1167 719 c 0,6,7
 1167 521 1167 521 1026 380 c 128,-1,8
 885 239 885 239 685 239 c 0,9,10
 486 239 486 239 345 380 c 128,-1,11
 204 521 204 521 204 719 c 0,0,1
EndSplineSet
EndChar

StartChar: openbullet
Encoding: 9702 9702 156
Width: 1089
Flags: W
LayerCount: 2
Fore
SplineSet
544 1171 m 0,0,1
 700 1171 700 1171 810.5 1060.5 c 128,-1,2
 921 950 921 950 921 794 c 256,3,4
 921 638 921 638 810.5 528 c 128,-1,5
 700 418 700 418 544 418 c 256,6,7
 388 418 388 418 278 528 c 128,-1,8
 168 638 168 638 168 794 c 256,9,10
 168 950 168 950 277.5 1060.5 c 128,-1,11
 387 1171 387 1171 544 1171 c 0,0,1
544 1057 m 0,12,13
 435 1057 435 1057 358.5 979.5 c 128,-1,14
 282 902 282 902 282 794 c 0,15,16
 282 685 282 685 359 608.5 c 128,-1,17
 436 532 436 532 544 532 c 256,18,19
 652 532 652 532 729.5 608.5 c 128,-1,20
 807 685 807 685 807 794 c 0,21,22
 807 902 807 902 730.5 979.5 c 128,-1,23
 654 1057 654 1057 544 1057 c 0,12,13
EndSplineSet
EndChar

StartChar: currency
Encoding: 164 164 157
Width: 932
Flags: W
LayerCount: 2
Fore
SplineSet
769 322 m 1,0,-1
 879 184 l 1,1,-1
 841 153 l 1,2,-1
 732 292 l 1,3,4
 616 214 616 214 504 214 c 0,5,6
 394 214 394 214 310 292 c 1,7,-1
 145 153 l 1,8,-1
 120 184 l 1,9,-1
 286 322 l 1,10,11
 243 397 243 397 243 470 c 0,12,13
 243 613 243 613 369 743 c 1,14,-1
 259 882 l 1,15,-1
 297 913 l 1,16,-1
 407 775 l 1,17,18
 521 852 521 852 634 852 c 0,19,20
 744 852 744 852 828 775 c 1,21,-1
 994 913 l 1,22,-1
 1019 882 l 1,23,-1
 852 743 l 1,24,25
 895 668 895 668 895 596 c 0,26,27
 895 455 895 455 769 322 c 1,0,-1
818 579 m 0,28,29
 818 666 818 666 762 721.5 c 128,-1,30
 706 777 706 777 620 777 c 0,31,32
 502 777 502 777 411 688 c 128,-1,33
 320 599 320 599 320 485 c 0,34,35
 320 400 320 400 376.5 344.5 c 128,-1,36
 433 289 433 289 519 289 c 0,37,38
 635 289 635 289 726.5 377.5 c 128,-1,39
 818 466 818 466 818 579 c 0,28,29
EndSplineSet
EndChar

StartChar: uniFFFC
Encoding: 65532 65532 158
Width: 2048
Flags: W
LayerCount: 2
Fore
SplineSet
2048 1150 m 1,0,-1
 1948 1150 l 1,1,-1
 1948 1373 l 1,2,-1
 1725 1373 l 1,3,-1
 1725 1473 l 1,4,-1
 2048 1473 l 1,5,-1
 2048 1150 l 1,0,-1
1473 1373 m 1,6,-1
 1150 1373 l 1,7,-1
 1150 1473 l 1,8,-1
 1473 1473 l 1,9,-1
 1473 1373 l 1,6,-1
2048 575 m 1,10,-1
 1948 575 l 1,11,-1
 1948 898 l 1,12,-1
 2048 898 l 1,13,-1
 2048 575 l 1,10,-1
1782 611 m 2,14,15
 1782 370 1782 370 1571 370 c 0,16,17
 1485 370 1485 370 1433 415 c 1,18,-1
 1506 494 l 1,19,20
 1531 468 1531 468 1571 468 c 0,21,22
 1666 468 1666 468 1666 606 c 2,23,-1
 1666 1090 l 1,24,-1
 1782 1090 l 1,25,-1
 1782 611 l 2,14,15
898 1373 m 1,26,-1
 575 1373 l 1,27,-1
 575 1473 l 1,28,-1
 898 1473 l 1,29,-1
 898 1373 l 1,26,-1
2048 0 m 1,30,-1
 1725 0 l 1,31,-1
 1725 100 l 1,32,-1
 1948 100 l 1,33,-1
 1948 323 l 1,34,-1
 2048 323 l 1,35,-1
 2048 0 l 1,30,-1
1423 591 m 0,36,37
 1423 382 1423 382 1149 382 c 2,38,-1
 909 382 l 1,39,-1
 909 1090 l 1,40,-1
 1144 1090 l 2,41,42
 1393 1090 1393 1090 1393 904 c 0,43,44
 1393 813 1393 813 1304 759 c 1,45,46
 1423 713 1423 713 1423 591 c 0,36,37
323 1373 m 1,47,-1
 100 1373 l 1,48,-1
 100 1150 l 1,49,-1
 0 1150 l 1,50,-1
 0 1473 l 1,51,-1
 323 1473 l 1,52,-1
 323 1373 l 1,47,-1
1473 0 m 1,53,-1
 1150 0 l 1,54,-1
 1150 100 l 1,55,-1
 1473 100 l 1,56,-1
 1473 0 l 1,53,-1
854 735 m 0,57,58
 854 562 854 562 772 466 c 128,-1,59
 690 370 690 370 537 370 c 256,60,61
 384 370 384 370 303.5 466 c 128,-1,62
 223 562 223 562 223 735 c 0,63,64
 223 910 223 910 303.5 1006 c 128,-1,65
 384 1102 384 1102 537 1102 c 256,66,67
 690 1102 690 1102 772 1006 c 128,-1,68
 854 910 854 910 854 735 c 0,57,58
100 575 m 1,69,-1
 0 575 l 1,70,-1
 0 898 l 1,71,-1
 100 898 l 1,72,-1
 100 575 l 1,69,-1
898 0 m 1,73,-1
 575 0 l 1,74,-1
 575 100 l 1,75,-1
 898 100 l 1,76,-1
 898 0 l 1,73,-1
323 0 m 1,77,-1
 0 0 l 1,78,-1
 0 323 l 1,79,-1
 100 323 l 1,80,-1
 100 100 l 1,81,-1
 323 100 l 1,82,-1
 323 0 l 1,77,-1
1277 893 m 0,83,84
 1277 992 1277 992 1114 992 c 2,85,-1
 1025 992 l 1,86,-1
 1025 798 l 1,87,-1
 1126 798 l 2,88,89
 1277 798 1277 798 1277 893 c 0,83,84
1307 591 m 0,90,91
 1307 700 1307 700 1136 700 c 2,92,-1
 1025 700 l 1,93,-1
 1025 480 l 1,94,-1
 1149 480 l 2,95,96
 1307 480 1307 480 1307 591 c 0,90,91
738 735 m 0,97,98
 738 1004 738 1004 537 1004 c 0,99,100
 339 1004 339 1004 339 735 c 0,101,102
 339 468 339 468 537 468 c 0,103,104
 738 468 738 468 738 735 c 0,97,98
EndSplineSet
EndChar

StartChar: dotbelowcomb
Encoding: 65538 -1 160
Width: 0
Flags: W
LayerCount: 2
Fore
SplineSet
666 -382 m 1,0,-1
 452 -382 l 1,1,-1
 452 -187 l 1,2,-1
 666 -187 l 1,3,-1
 666 -382 l 1,0,-1
EndSplineSet
EndChar

StartChar: zerowidthnonjoiner
Encoding: 8204 8204 175
Width: 0
GlyphClass: 2
Flags: W
LayerCount: 2
Fore
SplineSet
36 1289 m 1,0,-1
 36 -275 l 1,1,-1
 -36 -275 l 1,2,-1
 -36 1289 l 1,3,-1
 36 1289 l 1,0,-1
EndSplineSet
EndChar

StartChar: zerowidthjoiner
Encoding: 8205 8205 176
Width: 0
GlyphClass: 2
Flags: W
LayerCount: 2
Fore
SplineSet
36 -275 m 1,0,-1
 -36 -275 l 1,1,-1
 -36 1114 l 1,2,-1
 -170 978 l 1,3,-1
 -219 1027 l 1,4,-1
 -48 1196 l 1,5,-1
 -219 1364 l 1,6,-1
 -170 1413 l 1,7,-1
 0 1242 l 1,8,-1
 170 1413 l 1,9,-1
 219 1364 l 1,10,-1
 48 1196 l 1,11,-1
 219 1027 l 1,12,-1
 170 978 l 1,13,-1
 36 1114 l 1,14,-1
 36 -275 l 1,0,-1
EndSplineSet
EndChar

StartChar: lefttorightmark
Encoding: 8206 8206 177
Width: 0
GlyphClass: 2
Flags: W
LayerCount: 2
Fore
SplineSet
430 1198 m 1,0,-1
 213 984 l 1,1,-1
 164 1033 l 1,2,-1
 301 1163 l 1,3,-1
 35 1163 l 1,4,-1
 35 -275 l 1,5,-1
 -36 -275 l 1,6,-1
 -36 1234 l 1,7,-1
 301 1234 l 1,8,-1
 164 1364 l 1,9,-1
 213 1413 l 1,10,-1
 430 1198 l 1,0,-1
EndSplineSet
EndChar

StartChar: righttoleftmark
Encoding: 8207 8207 178
Width: 0
GlyphClass: 2
Flags: W
LayerCount: 2
Fore
SplineSet
35 -275 m 1,0,-1
 -36 -275 l 1,1,-1
 -36 1163 l 1,2,-1
 -302 1163 l 1,3,-1
 -165 1033 l 1,4,-1
 -214 984 l 1,5,-1
 -431 1198 l 1,6,-1
 -214 1413 l 1,7,-1
 -165 1364 l 1,8,-1
 -302 1234 l 1,9,-1
 35 1234 l 1,10,-1
 35 -275 l 1,0,-1
EndSplineSet
EndChar

StartChar: afii57388.001
Encoding: 1644 1644 179
Width: 353
GlyphClass: 2
Flags: W
LayerCount: 2
Fore
SplineSet
210 654 m 0,0,1
 200 627 200 627 185 603 c 0,2,3
 180 597 180 597 173.5 593.5 c 128,-1,4
 167 590 167 590 162 590 c 128,-1,5
 157 590 157 590 154.5 593 c 128,-1,6
 152 596 152 596 155 603 c 0,7,8
 187 660 187 660 202.5 713.5 c 128,-1,9
 218 767 218 767 218 800 c 1,10,11
 194 806 194 806 179 816 c 128,-1,12
 164 826 164 826 155 837.5 c 128,-1,13
 146 849 146 849 143 859 c 128,-1,14
 140 869 140 869 140 874 c 0,15,16
 140 890 140 890 145.5 907 c 128,-1,17
 151 924 151 924 160.5 937.5 c 128,-1,18
 170 951 170 951 183.5 959.5 c 128,-1,19
 197 968 197 968 213 968 c 0,20,21
 272 968 272 968 272 874 c 0,22,23
 272 859 272 859 268 835 c 128,-1,24
 264 811 264 811 256 781.5 c 128,-1,25
 248 752 248 752 236.5 719.5 c 128,-1,26
 225 687 225 687 210 654 c 0,0,1
EndSplineSet
EndChar

StartChar: afii57409
Encoding: 1569 1569 180
Width: 859
GlyphClass: 2
Flags: W
AnchorPoint: "Anchor-1" 510 -345 basechar 0
AnchorPoint: "Anchor-0" 420 795 basechar 0
LayerCount: 2
Fore
SplineSet
773 336 m 2,0,-1
 702 213 l 1,1,2
 379 106 379 106 172 -42 c 1,3,4
 157 -7 157 -7 157 19 c 0,5,6
 157 36 157 36 165 46 c 0,7,8
 205 94 205 94 334 180 c 1,9,10
 286 204 286 204 240 254 c 0,11,12
 188 310 188 310 188 351 c 0,13,14
 188 442 188 442 305 544 c 0,15,16
 420 644 420 644 513 644 c 0,17,18
 594 644 594 644 657 559 c 0,19,20
 683 524 683 524 683 504 c 0,21,22
 683 481 683 481 649 481 c 0,23,24
 631 481 631 481 607 487 c 0,25,26
 544 501 544 501 490 501 c 0,27,28
 444 501 444 501 398 487 c 0,29,30
 334 467 334 467 334 431 c 0,31,32
 334 400 334 400 395 350 c 0,33,34
 450 305 450 305 487 292 c 1,35,36
 631 344 631 344 730 370 c 0,37,38
 747 374 747 374 760 374 c 0,39,40
 781 374 781 374 781 360 c 0,41,42
 781 349 781 349 773 336 c 2,0,-1
EndSplineSet
EndChar

StartChar: afii57440
Encoding: 1600 1600 181
Width: 406
GlyphClass: 2
Flags: W
LayerCount: 2
Fore
SplineSet
436 0 m 1,0,-1
 -30 0 l 1,1,-1
 -28 317 l 1,2,-1
 435 317 l 1,3,-1
 436 0 l 1,0,-1
EndSplineSet
EndChar

StartChar: afii57453
Encoding: 1613 1613 182
Width: 0
GlyphClass: 4
Flags: W
AnchorPoint: "Anchor-3" 0 0 mark 0
AnchorPoint: "Anchor-1" 0 0 mark 0
LayerCount: 2
Fore
SplineSet
213 260 m 1,0,-1
 204 177 l 1,1,-1
 -207 15 l 1,2,-1
 -205 96 l 1,3,-1
 213 260 l 1,0,-1
220 124 m 1,4,-1
 213 43 l 1,5,-1
 -203 -122 l 1,6,-1
 -197 -41 l 1,7,-1
 220 124 l 1,4,-1
EndSplineSet
EndChar

StartChar: afii57455.001
Encoding: 65539 -1 183
Width: 456
GlyphClass: 4
Flags: W
LayerCount: 2
Fore
SplineSet
377 1276 m 0,0,1
 377 1190 377 1190 254 1099 c 0,2,3
 139 1016 139 1016 50 1016 c 1,4,-1
 41 1083 l 1,5,6
 165 1120 165 1120 213 1164 c 1,7,8
 157 1195 157 1195 157 1264 c 0,9,10
 157 1315 157 1315 189.5 1354.5 c 128,-1,11
 222 1394 222 1394 270 1394 c 256,12,13
 318 1394 318 1394 347.5 1359 c 128,-1,14
 377 1324 377 1324 377 1276 c 0,0,1
309 1267 m 0,15,16
 309 1309 309 1309 266 1309 c 0,17,18
 226 1309 226 1309 226 1269 c 0,19,20
 226 1230 226 1230 270 1230 c 0,21,22
 309 1230 309 1230 309 1267 c 0,15,16
EndSplineSet
EndChar

StartChar: afii57458.001
Encoding: 65540 -1 184
Width: 0
GlyphClass: 4
Flags: W
LayerCount: 2
Fore
SplineSet
148 1012 m 0,0,1
 148 856 148 856 -9 856 c 0,2,3
 -150 856 -150 856 -153 972 c 0,4,5
 -153 1027 -153 1027 -108 1119 c 1,6,7
 -64 1224 -64 1224 -18 1224 c 0,8,9
 65 1224 65 1224 112 1154 c 0,10,11
 148 1097 148 1097 148 1012 c 0,0,1
105 995 m 0,12,13
 107 1106 107 1106 -22 1106 c 0,14,15
 -42 1106 -42 1106 -62 1058 c 1,16,17
 -81 1023 -81 1023 -79 995 c 0,18,19
 -79 949 -79 949 0 949 c 0,20,21
 105 949 105 949 105 995 c 0,12,13
EndSplineSet
EndChar

StartChar: afii57381
Encoding: 1642 1642 185
Width: 922
GlyphClass: 2
Flags: W
LayerCount: 2
Fore
SplineSet
198 -119 m 1,0,-1
 703 1201 l 1,1,-1
 780 1171 l 1,2,-1
 276 -149 l 1,3,-1
 198 -119 l 1,0,-1
845 47 m 0,4,5
 845 10 845 10 818.5 -16.5 c 128,-1,6
 792 -43 792 -43 755 -43 c 0,7,8
 717 -43 717 -43 690.5 -16.5 c 128,-1,9
 664 10 664 10 664 48 c 0,10,11
 664 85 664 85 690.5 111.5 c 128,-1,12
 717 138 717 138 754 138 c 0,13,14
 793 138 793 138 819 111.5 c 128,-1,15
 845 85 845 85 845 47 c 0,4,5
289 1021 m 0,16,17
 289 985 289 985 262.5 958.5 c 128,-1,18
 236 932 236 932 199 932 c 0,19,20
 161 932 161 932 134.5 958.5 c 128,-1,21
 108 985 108 985 108 1023 c 0,22,23
 108 1060 108 1060 134.5 1086.5 c 128,-1,24
 161 1113 161 1113 198 1113 c 0,25,26
 237 1113 237 1113 263 1086.5 c 128,-1,27
 289 1060 289 1060 289 1021 c 0,16,17
EndSplineSet
EndChar

StartChar: afii57461
Encoding: 1643 1643 186
Width: 886
GlyphClass: 2
Flags: W
LayerCount: 2
Fore
SplineSet
106 -469 m 1,0,-1
 694 452 l 1,1,-1
 796 452 l 1,2,-1
 209 -469 l 1,3,-1
 106 -469 l 1,0,-1
EndSplineSet
EndChar

StartChar: afii63167
Encoding: 1645 1645 187
Width: 1118
GlyphClass: 2
Flags: W
LayerCount: 2
Fore
SplineSet
694 729 m 1,0,-1
 1057 733 l 1,1,-1
 1057 610 l 1,2,-1
 702 612 l 1,3,-1
 971 352 l 1,4,-1
 883 264 l 1,5,-1
 616 539 l 1,6,-1
 623 168 l 1,7,-1
 498 168 l 1,8,-1
 502 539 l 1,9,-1
 236 264 l 1,10,-1
 147 352 l 1,11,-1
 422 614 l 1,12,-1
 63 610 l 1,13,-1
 63 733 l 1,14,-1
 420 729 l 1,15,-1
 170 975 l 1,16,-1
 258 1065 l 1,17,-1
 502 817 l 1,18,-1
 498 1176 l 1,19,-1
 623 1176 l 1,20,-1
 616 813 l 1,21,-1
 860 1065 l 1,22,-1
 948 975 l 1,23,-1
 694 729 l 1,0,-1
EndSplineSet
EndChar

StartChar: afii57459
Encoding: 65541 -1 188
Width: 661
GlyphClass: 2
Flags: W
LayerCount: 2
Fore
SplineSet
642 540 m 0,0,1
 647 293 647 293 514 148 c 0,2,3
 376 0 376 0 114 0 c 2,4,-1
 -30 0 l 1,5,-1
 -28 317 l 1,6,-1
 105 317 l 2,7,8
 517 315 517 315 512 420 c 1,9,10
 339 401 339 401 262 401 c 0,11,12
 169 401 169 401 107 440 c 0,13,14
 40 487 40 487 40 575 c 0,15,16
 40 723 40 723 115 860 c 128,-1,17
 190 997 190 997 310 994 c 0,18,19
 475 994 475 994 568 823 c 1,20,21
 640 707 640 707 642 540 c 0,0,1
457 647 m 1,22,23
 357 770 357 770 260 770 c 0,24,25
 223 770 223 770 196 747 c 128,-1,26
 169 724 169 724 169 684 c 0,27,28
 169 626 169 626 302 626 c 1,29,30
 299 626 299 626 429 636 c 1,31,32
 438 642 438 642 457 647 c 1,22,23
EndSplineSet
EndChar

StartChar: afii57543
Encoding: 65542 -1 189
Width: 579
Flags: W
LayerCount: 2
Fore
SplineSet
608 0 m 1,0,-1
 533 0 l 2,1,2
 424 0 424 0 369 53 c 0,3,4
 324 94 324 94 285 202 c 1,5,6
 216 0 216 0 59 0 c 2,7,-1
 -30 0 l 1,8,-1
 -28 317 l 1,9,10
 95 317 95 317 152.5 362.5 c 128,-1,11
 210 408 210 408 239 538 c 0,12,13
 256 608 256 608 290 608 c 0,14,15
 326 608 326 608 336 538 c 0,16,17
 359 398 359 398 413 354 c 0,18,19
 464 317 464 317 607 317 c 1,20,-1
 608 0 l 1,0,-1
EndSplineSet
EndChar

StartChar: afii57534
Encoding: 1749 1749 190
Width: 971
GlyphClass: 2
Flags: W
LayerCount: 2
Fore
SplineSet
886 455 m 0,0,1
 886 269 886 269 772 137 c 0,2,3
 647 -7 647 -7 468 -7 c 0,4,5
 140 -7 140 -7 140 287 c 0,6,7
 140 501 140 501 262 741 c 0,8,9
 336 883 336 883 385 883 c 0,10,11
 520 883 520 883 700 737 c 0,12,13
 886 584 886 584 886 455 c 0,0,1
776 394 m 0,14,15
 776 433 776 433 580 533 c 0,16,17
 391 628 391 628 341 628 c 0,18,19
 311 628 311 628 290 564 c 0,20,21
 271 508 271 508 271 472 c 0,22,23
 271 308 271 308 507 308 c 0,24,25
 776 308 776 308 776 394 c 0,14,15
EndSplineSet
EndChar

StartChar: afii64240
Encoding: 65543 -1 191
Width: 496
Flags: W
LayerCount: 2
Fore
SplineSet
400 153 m 0,0,1
 398 148 398 148 335 80 c 0,2,3
 269 10 269 10 250 3 c 1,4,5
 234 4 234 4 166.5 73 c 128,-1,6
 99 142 99 142 94 153 c 1,7,8
 99 166 99 166 157 227 c 0,9,10
 220 297 220 297 241 306 c 1,11,12
 274 292 274 292 335 231 c 128,-1,13
 396 170 396 170 400 153 c 0,0,1
EndSplineSet
EndChar

StartChar: afii64241
Encoding: 65544 -1 192
Width: 643
Flags: W
LayerCount: 2
Fore
SplineSet
589 141 m 1,0,1
 584 132 584 132 526 74 c 0,2,3
 468 11 468 11 445 4 c 1,4,5
 440 7 440 7 315 127 c 1,6,7
 269 72 269 72 188 4 c 1,8,9
 177 7 177 7 111.5 69.5 c 128,-1,10
 46 132 46 132 44 141 c 1,11,12
 48 157 48 157 108.5 218.5 c 128,-1,13
 169 280 169 280 184 285 c 1,14,15
 193 283 193 283 313 160 c 1,16,17
 367 219 367 219 440 285 c 1,18,19
 455 278 455 278 522 216.5 c 128,-1,20
 589 155 589 155 589 141 c 1,0,1
EndSplineSet
EndChar

StartChar: afii63954
Encoding: 65545 -1 193
Width: 679
Flags: W
LayerCount: 2
Fore
SplineSet
620 149 m 0,0,1
 616 135 616 135 551 70 c 0,2,3
 488 10 488 10 477 6 c 1,4,5
 458 13 458 13 410 65 c 0,6,7
 381 96 381 96 346 133 c 1,8,9
 291 70 291 70 219 6 c 1,10,11
 210 6 210 6 145 68 c 0,12,13
 78 133 78 133 71 148 c 1,14,15
 78 161 78 161 138 224.5 c 128,-1,16
 198 288 198 288 215 292 c 1,17,-1
 340 166 l 1,18,19
 395 223 395 223 473 292 c 1,20,21
 486 288 486 288 553 222.5 c 128,-1,22
 620 157 620 157 620 149 c 0,0,1
484 420 m 1,23,-1
 477 403 l 1,24,25
 419 343 419 343 342 278 c 1,26,27
 338 280 338 280 211 401 c 1,28,-1
 204 418 l 1,29,30
 213 440 213 440 272 499 c 0,31,32
 328 551 328 551 338 558 c 1,33,34
 347 554 347 554 479 429 c 1,35,-1
 484 420 l 1,23,-1
EndSplineSet
EndChar

StartChar: afii57382
Encoding: 65546 -1 194
Width: 715
Flags: W
LayerCount: 2
Fore
SplineSet
643 -143 m 1,0,1
 633 -169 633 -169 575 -229 c 0,2,3
 522 -280 522 -280 506 -289 c 1,4,5
 478 -273 478 -273 437 -229 c 0,6,7
 408 -199 408 -199 374 -164 c 1,8,9
 321 -221 321 -221 246 -289 c 1,10,11
 218 -273 218 -273 158 -213 c 128,-1,12
 98 -153 98 -153 98 -143 c 1,13,14
 103 -134 103 -134 166 -69.5 c 128,-1,15
 229 -5 229 -5 242 -4 c 1,16,17
 262 -13 262 -13 306 -60 c 0,18,19
 339 -92 339 -92 371 -127 c 1,20,21
 428 -68 428 -68 501 -4 c 1,22,23
 513 -7 513 -7 577.5 -70.5 c 128,-1,24
 642 -134 642 -134 643 -143 c 1,0,1
522 -410 m 1,25,26
 512 -425 512 -425 453 -486.5 c 128,-1,27
 394 -548 394 -548 383 -550 c 1,28,29
 361 -545 361 -545 297 -481 c 0,30,31
 239 -419 239 -419 238 -410 c 0,32,33
 238 -403 238 -403 302.5 -338.5 c 128,-1,34
 367 -274 367 -274 376 -272 c 0,35,36
 387 -274 387 -274 452.5 -337.5 c 128,-1,37
 518 -401 518 -401 522 -410 c 1,25,26
EndSplineSet
EndChar

StartChar: afii64242
Encoding: 65547 -1 195
Width: 519
Flags: W
LayerCount: 2
Fore
SplineSet
472 454 m 0,0,1
 472 274 472 274 389 148 c 0,2,3
 297 0 297 0 129 0 c 2,4,-1
 -18 0 l 1,5,-1
 -16 317 l 1,6,7
 181 317 181 317 201 320 c 0,8,9
 320 330 320 330 320 380 c 0,10,11
 320 426 320 426 137 607 c 1,12,-1
 283 833 l 1,13,-1
 302 846 l 1,14,15
 376 805 376 805 429 670 c 0,16,17
 472 553 472 553 472 454 c 0,0,1
EndSplineSet
EndChar

StartChar: afii62881
Encoding: 59416 59416 196
Width: 0
GlyphClass: 4
Flags: W
AnchorPoint: "Anchor-2" 0 0 mark 0
AnchorPoint: "Anchor-0" 0 0 mark 0
LayerCount: 2
Fore
SplineSet
192 709 m 1,0,-1
 183 627 l 1,1,-1
 -246 460 l 1,2,-1
 -244 541 l 1,3,-1
 192 709 l 1,0,-1
200 573 m 1,4,-1
 192 492 l 1,5,-1
 -242 323 l 1,6,-1
 -236 404 l 1,7,-1
 200 573 l 1,4,-1
159 260 m 0,8,9
 159 83 159 83 58 83 c 0,10,11
 22 83 22 83 -25 130 c 1,12,13
 -66 57 -66 57 -80 44 c 0,14,15
 -115 -2 -115 -2 -171 -2 c 0,16,17
 -208 -2 -208 -2 -233 48 c 1,18,19
 -245 85 -245 85 -245 127 c 0,20,21
 -245 250 -245 250 -178 265 c 1,22,23
 -199 127 -199 127 -150 127 c 0,24,25
 -103 127 -103 127 -80 192 c 1,26,27
 -71 248 -71 248 -66 301 c 1,28,29
 -44 311 -44 311 -11 324 c 1,30,31
 -13 210 -13 210 41 210 c 0,32,33
 107 210 107 210 107 374 c 1,34,-1
 140 392 l 1,35,36
 159 333 159 333 159 260 c 0,8,9
EndSplineSet
Ligature2: "'ccmp' Glyph Composition/Decomposition in Arabic lookup 4 subtable" afii57457 afii57451
EndChar

StartChar: afii57373
Encoding: 65548 -1 200
Width: 0
Flags: W
LayerCount: 2
Fore
SplineSet
580 1139 m 1,0,-1
 582 1114 l 1,1,-1
 580 1064 l 2,2,3
 580 1040 580 1040 570 1029 c 1,4,-1
 413 985 l 1,5,-1
 297 939 l 1,6,-1
 174 887 l 1,7,-1
 174 970 l 1,8,-1
 225 998 l 1,9,-1
 278 1021 l 1,10,11
 258 1035 258 1035 225 1073 c 128,-1,12
 192 1111 192 1111 188 1146 c 1,13,14
 188 1197 188 1197 264.5 1275.5 c 128,-1,15
 341 1354 341 1354 409 1354 c 0,16,17
 450 1354 450 1354 488.5 1325 c 128,-1,18
 527 1296 527 1296 533 1269 c 1,19,20
 533 1250 533 1250 526 1237 c 1,21,22
 508 1225 508 1225 498 1225 c 2,23,-1
 450 1239 l 2,24,25
 424 1250 424 1250 385 1255 c 1,26,27
 352 1255 352 1255 322.5 1237 c 128,-1,28
 293 1219 293 1219 290 1197 c 0,29,30
 290 1169 290 1169 326 1130 c 1,31,32
 367 1095 367 1095 409 1095 c 0,33,34
 435 1095 435 1095 449 1098.5 c 128,-1,35
 463 1102 463 1102 499 1114 c 2,36,-1
 580 1139 l 1,0,-1
EndSplineSet
EndChar

StartChar: afii57374
Encoding: 65549 -1 201
Width: 728
GlyphClass: 2
Flags: W
LayerCount: 2
Fore
SplineSet
758 0 m 1,0,-1
 667 0 l 2,1,2
 473 0 473 0 367 105 c 1,3,4
 238 0 238 0 74 0 c 2,5,-1
 -30 0 l 1,6,-1
 -28 317 l 1,7,-1
 137 317 l 1,8,9
 59 376 59 376 59 455 c 0,10,11
 59 570 59 570 187 696.5 c 128,-1,12
 315 823 315 823 435 823 c 0,13,14
 529 823 529 823 599 735 c 1,15,16
 658 649 658 649 658 553 c 0,17,18
 658 396 658 396 575 317 c 1,19,-1
 756 317 l 1,20,-1
 758 0 l 1,0,-1
536 459 m 0,21,22
 536 498 536 498 464 535 c 0,23,24
 404 564 404 564 357 564 c 0,25,26
 306 564 306 564 256 547 c 0,27,28
 184 527 184 527 184 489 c 0,29,30
 184 415 184 415 363 352 c 1,31,32
 415 363 415 363 468 387 c 0,33,34
 536 417 536 417 536 459 c 0,21,22
EndSplineSet
EndChar

StartChar: afii57375
Encoding: 1619 1619 202
Width: 886
GlyphClass: 2
Flags: W
LayerCount: 2
Fore
SplineSet
870 1210 m 0,0,1
 870 1197 870 1197 854 1183 c 0,2,3
 780 1105 780 1105 633 1056 c 0,4,5
 495 1009 495 1009 384 1011 c 0,6,7
 303 1009 303 1009 142 1035 c 0,8,9
 128 1037 128 1037 93.5 1011 c 128,-1,10
 59 985 59 985 45 985 c 0,11,12
 24 985 24 985 24 1017 c 256,13,14
 24 1049 24 1049 60 1118.5 c 128,-1,15
 96 1188 96 1188 133 1205.5 c 128,-1,16
 170 1223 170 1223 214 1221 c 0,17,18
 255 1219 255 1219 341 1201.5 c 128,-1,19
 427 1184 427 1184 467 1180 c 0,20,21
 557 1168 557 1168 679 1195 c 0,22,23
 699 1197 699 1197 764 1210 c 0,24,25
 819 1221 819 1221 850 1221 c 0,26,27
 870 1221 870 1221 870 1210 c 0,0,1
EndSplineSet
EndChar

StartChar: afii57471
Encoding: 65550 -1 203
Width: 2065
Flags: W
LayerCount: 2
Fore
SplineSet
2092 0 m 1,0,-1
 2017 0 l 2,1,2
 1790 0 1790 0 1740 225 c 1,3,4
 1417 -162 1417 -162 754 -162 c 0,5,6
 183 -162 183 -162 183 295 c 0,7,8
 183 369 183 369 206 459 c 0,9,10
 239 579 239 579 287 579 c 0,11,12
 326 579 326 579 320 527 c 0,13,14
 308 431 308 431 308 422 c 0,15,16
 308 243 308 243 501 186 c 0,17,18
 607 158 607 158 842 158 c 0,19,20
 1344 158 1344 158 1635 367 c 1,21,22
 1678 404 1678 404 1762 479 c 0,23,24
 1813 524 1813 524 1836 524 c 0,25,26
 1869 524 1869 524 1869 479 c 0,27,28
 1869 463 1869 463 1858 436 c 128,-1,29
 1847 409 1847 409 1847 394 c 0,30,31
 1847 334 1847 334 1952 319 c 0,32,33
 1966 317 1966 317 2092 317 c 1,34,-1
 2092 0 l 1,0,-1
EndSplineSet
EndChar

StartChar: afii52258
Encoding: 65551 -1 204
Width: 2047
GlyphClass: 2
Flags: W
LayerCount: 2
Fore
SplineSet
2077 0 m 1,0,-1
 2017 0 l 2,1,2
 1847 0 1847 0 1716 100 c 1,3,4
 1338 -166 1338 -166 823 -166 c 0,5,6
 520 -166 520 -166 378 -90 c 0,7,8
 183 11 183 11 183 295 c 0,9,10
 183 369 183 369 206 459 c 0,11,12
 239 579 239 579 287 579 c 0,13,14
 326 579 326 579 320 527 c 0,15,16
 308 431 308 431 308 422 c 0,17,18
 308 247 308 247 516 183 c 0,19,20
 634 148 634 148 860 148 c 0,21,22
 1219 148 1219 148 1511 262 c 1,23,24
 1467 290 1467 290 1433.5 349 c 128,-1,25
 1400 408 1400 408 1400 461 c 0,26,27
 1400 573 1400 573 1521 696.5 c 128,-1,28
 1642 820 1642 820 1755 820 c 0,29,30
 1866 820 1866 820 1934 743.5 c 128,-1,31
 2002 667 2002 667 2002 556 c 0,32,33
 2002 409 2002 409 1915 317 c 1,34,-1
 2075 317 l 1,35,-1
 2077 0 l 1,0,-1
1880 470 m 0,36,37
 1880 508 1880 508 1806 544 c 0,38,39
 1741 573 1741 573 1694 573 c 0,40,41
 1650 573 1650 573 1587 553 c 0,42,43
 1513 527 1513 527 1513 490 c 0,44,45
 1513 455 1513 455 1592 400 c 0,46,47
 1653 361 1653 361 1708 343 c 1,48,49
 1880 398 1880 398 1880 470 c 0,36,37
EndSplineSet
EndChar

StartChar: afii62889
Encoding: 65552 -1 210
Width: 1666
Flags: W
LayerCount: 2
Fore
SplineSet
1694 0 m 1,0,-1
 1478 0 l 1,1,2
 1476 -304 1476 -304 1282 -470 c 0,3,4
 1101 -626 1101 -626 793 -626 c 0,5,6
 183 -626 183 -626 183 -144 c 0,7,8
 183 -63 183 -63 225 77 c 0,9,10
 278 243 278 243 336 243 c 0,11,12
 367 243 367 243 367 206 c 0,13,14
 367 179 367 179 343.5 102.5 c 128,-1,15
 320 26 320 26 320 -16 c 0,16,17
 320 -311 320 -311 756 -311 c 0,18,19
 1187 -311 1187 -311 1318 -137 c 0,20,21
 1366 -70 1366 -70 1366 -2 c 1,22,-1
 1246 -2 l 2,23,24
 848 -2 848 -2 848 210 c 0,25,26
 848 341 848 341 934 536 c 0,27,28
 1036 765 1036 765 1152 765 c 0,29,30
 1298 765 1298 765 1386 608 c 0,31,32
 1449 490 1449 490 1472 317 c 1,33,-1
 1690 317 l 1,34,-1
 1694 0 l 1,0,-1
1312 311 m 1,35,36
 1226 479 1226 479 1106 479 c 0,37,38
 1071 479 1071 479 1036 455 c 1,39,40
 1003 427 1003 427 1003 394 c 0,41,42
 1003 304 1003 304 1165 304 c 2,43,-1
 1215 304 l 1,44,-1
 1312 311 l 1,35,36
EndSplineSet
EndChar

StartChar: afii62887
Encoding: 65553 -1 211
Width: 1871
Flags: W
LayerCount: 2
Fore
SplineSet
1819 616 m 0,0,1
 1819 234 1819 234 1550 94 c 0,2,3
 1362 0 1362 0 934 0 c 0,4,5
 589 0 589 0 436 57 c 0,6,7
 183 155 183 155 183 436 c 0,8,9
 183 654 183 654 256 758 c 1,10,11
 269 767 269 767 283 767 c 0,12,13
 313 767 313 767 313 728 c 0,14,15
 313 712 313 712 308.5 679.5 c 128,-1,16
 304 647 304 647 304 630 c 0,17,18
 304 538 304 538 326 489 c 0,19,20
 417 315 417 315 929 315 c 0,21,22
 1147 315 1147 315 1331 334 c 0,23,24
 1666 373 1666 373 1666 461 c 0,25,26
 1666 535 1666 535 1469 667 c 1,27,28
 1504 748 1504 748 1546 828 c 1,29,30
 1598 949 1598 949 1624 969 c 1,31,32
 1703 942 1703 942 1762 820 c 0,33,34
 1819 709 1819 709 1819 616 c 0,0,1
EndSplineSet
EndChar

StartChar: afii62888
Encoding: 1697 1697 212
Width: 1750
GlyphClass: 2
Flags: W
LayerCount: 2
Fore
SplineSet
1712 472 m 0,0,1
 1715 0 1715 0 852 0 c 0,2,3
 256 0 256 0 141 220 c 0,4,5
 103 287 103 287 103 415 c 0,6,7
 103 498 103 498 132 612 c 0,8,9
 166 765 166 765 222 765 c 0,10,11
 246 765 246 765 246 721 c 0,12,13
 246 702 246 702 239.5 659 c 128,-1,14
 233 616 233 616 233 589 c 0,15,16
 233 315 233 315 803 315 c 0,17,18
 841 315 841 315 900 316 c 128,-1,19
 959 317 959 317 978 317 c 0,20,21
 1582 317 1582 317 1582 446 c 1,22,23
 1429 426 1429 426 1330 426 c 0,24,25
 1107 426 1107 426 1107 599 c 0,26,27
 1107 739 1107 739 1174 885 c 0,28,29
 1256 1054 1256 1054 1378 1054 c 0,30,31
 1712 1054 1712 1054 1712 472 c 0,0,1
1527 686 m 1,32,33
 1429 811 1429 811 1334 811 c 256,34,35
 1239 811 1239 811 1239 723 c 0,36,37
 1239 667 1239 667 1378 667 c 2,38,-1
 1408 667 l 2,39,40
 1429 667 1429 667 1527 686 c 1,32,33
EndSplineSet
Substitution2: "'fina' Terminal Forms in Arabic lookup 3 subtable" afii52258
Substitution2: "'medi' Medial Forms in Arabic lookup 2 subtable" afii57374
Substitution2: "'init' Initial Forms in Arabic lookup 0 subtable" afii57459
EndChar

StartChar: afii57567
Encoding: 1705 1705 219
Width: 1876
GlyphClass: 2
Flags: W
AnchorPoint: "Anchor-1" 780 -465 basechar 0
AnchorPoint: "Anchor-0" 675 1245 basechar 0
LayerCount: 2
Fore
SplineSet
1821 1358 m 1,0,-1
 1762 1103 l 1,1,-1
 1222 944 l 1,2,3
 1267 904 1267 904 1327.5 831 c 128,-1,4
 1388 758 1388 758 1435.5 651.5 c 128,-1,5
 1483 545 1483 545 1487 427 c 1,6,7
 1485 295 1485 295 1448 213.5 c 128,-1,8
 1411 132 1411 132 1336 94 c 1,9,10
 1289 65 1289 65 1075 22 c 1,11,-1
 901 7 l 1,12,-1
 739 0 l 1,13,14
 389 0 389 0 253.5 87.5 c 128,-1,15
 118 175 118 175 118 389 c 0,16,17
 118 494 118 494 174 593 c 1,18,19
 229 673 229 673 255 684 c 0,20,21
 287 695 287 695 293 661 c 1,22,23
 279 620 279 620 271.5 588.5 c 128,-1,24
 264 557 264 557 262 531 c 0,25,26
 262 431 262 431 320 373 c 0,27,28
 365 330 365 330 470 310 c 1,29,-1
 562 302 l 1,30,-1
 679 297 l 1,31,-1
 748 297 l 1,32,-1
 785 299 l 1,33,34
 1115 301 1115 301 1235 328 c 0,35,36
 1329 346 1329 346 1329 404 c 0,37,38
 1329 472 1329 472 1224 598 c 128,-1,39
 1119 724 1119 724 1047.5 781.5 c 128,-1,40
 976 839 976 839 955 853 c 1,41,-1
 1045 1126 l 1,42,-1
 1821 1358 l 1,0,-1
EndSplineSet
Substitution2: "'fina' Terminal Forms in Arabic lookup 3 subtable" afii62964
Substitution2: "'medi' Medial Forms in Arabic lookup 2 subtable" afii52306
Substitution2: "'init' Initial Forms in Arabic lookup 0 subtable" afii52305
EndChar

StartChar: afii62964
Encoding: 64399 64399 220
Width: 2065
GlyphClass: 2
Flags: W
AnchorPoint: "Anchor-1" 795 -480 basechar 0
AnchorPoint: "Anchor-0" 780 1305 basechar 0
LayerCount: 2
Fore
SplineSet
2114 0 m 1,0,-1
 1954 0 l 2,1,2
 1884 0 1884 0 1808 46 c 0,3,4
 1777 63 1777 63 1727 105 c 2,5,-1
 1664 164 l 1,6,-1
 1506 337 l 1,7,8
 1504 239 1504 239 1478.5 184.5 c 128,-1,9
 1453 130 1453 130 1381 81.5 c 128,-1,10
 1309 33 1309 33 1097 2 c 1,11,-1
 923 -13 l 1,12,-1
 761 -21 l 1,13,14
 411 -21 411 -21 275.5 67 c 128,-1,15
 140 155 140 155 140 369 c 0,16,17
 140 473 140 473 195 619 c 1,18,19
 245 709 245 709 276 709 c 0,20,21
 317 709 317 709 317 665 c 1,22,-1
 295 591 l 1,23,-1
 283 526 l 1,24,25
 283 426 283 426 343 367 c 0,26,27
 387 324 387 324 492 304 c 1,28,-1
 584 297 l 1,29,30
 640 297 640 297 695.5 296 c 128,-1,31
 751 295 751 295 807 295 c 0,32,33
 1174 293 1174 293 1296 322 c 0,34,35
 1390 341 1390 341 1390 398 c 0,36,37
 1390 466 1390 466 1259 607 c 1,38,39
 1203 656 1203 656 1144 699 c 128,-1,40
 1085 742 1085 742 1064 758 c 1,41,-1
 1115 1030 l 1,42,-1
 1915 1323 l 1,43,-1
 1859 1075 l 1,44,-1
 1270 872 l 1,45,46
 1407 751 1407 751 1590 570 c 1,47,48
 1734 417 1734 417 1790 376 c 0,49,50
 1867 317 1867 317 1950 317 c 2,51,-1
 2114 317 l 1,52,-1
 2114 0 l 1,0,-1
EndSplineSet
EndChar

StartChar: afii52305
Encoding: 64400 64400 221
Width: 932
GlyphClass: 2
Flags: W
AnchorPoint: "Anchor-1" 330 -570 basechar 0
AnchorPoint: "Anchor-0" 390 1470 basechar 0
LayerCount: 2
Fore
SplineSet
872 1353 m 1,0,-1
 827 1103 l 1,1,-1
 317 913 l 1,2,3
 445 751 445 751 499 632.5 c 128,-1,4
 553 514 553 514 553 426 c 0,5,6
 553 243 553 243 458 127 c 0,7,8
 349 0 349 0 92 0 c 2,9,-1
 -28 0 l 1,10,-1
 -28 317 l 1,11,-1
 55 317 l 2,12,13
 285 317 285 317 351 334.5 c 128,-1,14
 417 352 417 352 417 398 c 0,15,16
 417 461 417 461 322 565.5 c 128,-1,17
 227 670 227 670 158.5 727.5 c 128,-1,18
 90 785 90 785 67 800 c 1,19,-1
 118 1073 l 1,20,-1
 872 1353 l 1,0,-1
EndSplineSet
EndChar

StartChar: afii52306
Encoding: 64401 64401 222
Width: 1131
GlyphClass: 2
Flags: W
AnchorPoint: "Anchor-1" 480 -600 basechar 0
AnchorPoint: "Anchor-0" 375 1485 basechar 0
LayerCount: 2
Fore
SplineSet
1168 0 m 1,0,-1
 978 0 l 2,1,2
 911 0 911 0 835 46 c 0,3,4
 802 63 802 63 752 105 c 2,5,-1
 689 164 l 1,6,-1
 533 337 l 1,7,8
 533 177 533 177 426.5 88.5 c 128,-1,9
 320 0 320 0 139 0 c 2,10,-1
 -28 0 l 1,11,-1
 -28 317 l 1,12,-1
 160 317 l 2,13,14
 262 317 262 317 301 324 c 0,15,16
 415 341 415 341 415 398 c 0,17,18
 415 472 415 472 283 616 c 0,19,20
 175 735 175 735 65 802 c 1,21,-1
 116 1075 l 1,22,-1
 916 1368 l 1,23,-1
 862 1116 l 1,24,-1
 275 913 l 1,25,26
 443 758 443 758 617 571 c 1,27,-1
 739 445 l 1,28,-1
 813 378 l 1,29,30
 890 317 890 317 976 317 c 2,31,-1
 1168 317 l 1,32,-1
 1168 0 l 1,0,-1
EndSplineSet
EndChar

StartChar: afii57509
Encoding: 1711 1711 223
Width: 1882
GlyphClass: 2
Flags: W
AnchorPoint: "Anchor-1" 795 -465 basechar 0
AnchorPoint: "Anchor-0" 660 1320 basechar 0
LayerCount: 2
Fore
SplineSet
1873 1546 m 0,0,1
 1871 1543 1871 1543 1843 1454 c 1,2,-1
 1062 1207 l 1,3,4
 1058 1213 1058 1213 1057 1217 c 0,5,6
 1057 1237 1057 1237 1069 1284 c 0,7,8
 1082 1331 1082 1331 1099 1335 c 2,9,-1
 1856 1563 l 2,10,11
 1869 1567 1869 1567 1873 1546 c 0,0,1
1821 1358 m 1,12,-1
 1762 1103 l 1,13,-1
 1222 944 l 1,14,15
 1267 904 1267 904 1327.5 831 c 128,-1,16
 1388 758 1388 758 1435.5 651.5 c 128,-1,17
 1483 545 1483 545 1487 427 c 1,18,19
 1485 295 1485 295 1448 213.5 c 128,-1,20
 1411 132 1411 132 1336 94 c 1,21,22
 1289 65 1289 65 1075 22 c 1,23,-1
 901 7 l 1,24,-1
 739 0 l 1,25,26
 389 0 389 0 253.5 87.5 c 128,-1,27
 118 175 118 175 118 389 c 0,28,29
 118 494 118 494 174 593 c 1,30,31
 229 673 229 673 255 684 c 0,32,33
 287 695 287 695 293 661 c 1,34,35
 279 620 279 620 271.5 588.5 c 128,-1,36
 264 557 264 557 262 531 c 0,37,38
 262 431 262 431 320 373 c 0,39,40
 365 330 365 330 470 310 c 1,41,-1
 562 302 l 1,42,-1
 679 297 l 1,43,-1
 748 297 l 1,44,-1
 785 299 l 1,45,46
 1115 301 1115 301 1235 328 c 0,47,48
 1329 346 1329 346 1329 404 c 0,49,50
 1329 472 1329 472 1224 598 c 128,-1,51
 1119 724 1119 724 1047.5 781.5 c 128,-1,52
 976 839 976 839 955 853 c 1,53,-1
 1045 1126 l 1,54,-1
 1821 1358 l 1,12,-1
EndSplineSet
Substitution2: "'fina' Terminal Forms in Arabic lookup 3 subtable" afii62967
Substitution2: "'medi' Medial Forms in Arabic lookup 2 subtable" afii62966
Substitution2: "'init' Initial Forms in Arabic lookup 0 subtable" afii62965
EndChar

StartChar: afii62967
Encoding: 64403 64403 224
Width: 2047
GlyphClass: 2
Flags: W
AnchorPoint: "Anchor-1" 780 -510 basechar 0
AnchorPoint: "Anchor-0" 690 1230 basechar 0
LayerCount: 2
Fore
SplineSet
1919 1511 m 0,0,1
 1917 1507 1917 1507 1889 1419 c 1,2,-1
 1108 1131 l 1,3,4
 1104 1138 1104 1138 1102 1141 c 0,5,6
 1102 1161 1102 1161 1115 1209 c 0,7,8
 1128 1255 1128 1255 1145 1259 c 2,9,-1
 1903 1528 l 2,10,11
 1915 1532 1915 1532 1919 1511 c 0,0,1
2114 0 m 1,12,-1
 1954 0 l 2,13,14
 1884 0 1884 0 1808 46 c 0,15,16
 1777 63 1777 63 1727 105 c 2,17,-1
 1664 164 l 1,18,-1
 1506 337 l 1,19,20
 1504 239 1504 239 1478.5 184.5 c 128,-1,21
 1453 130 1453 130 1381 81.5 c 128,-1,22
 1309 33 1309 33 1097 2 c 1,23,-1
 923 -13 l 1,24,-1
 761 -21 l 1,25,26
 411 -21 411 -21 275.5 67 c 128,-1,27
 140 155 140 155 140 369 c 0,28,29
 140 473 140 473 195 619 c 1,30,31
 245 709 245 709 276 709 c 0,32,33
 317 709 317 709 317 665 c 1,34,-1
 295 591 l 1,35,-1
 283 526 l 1,36,37
 283 426 283 426 343 367 c 0,38,39
 387 324 387 324 492 304 c 1,40,-1
 584 297 l 1,41,42
 640 297 640 297 695.5 296 c 128,-1,43
 751 295 751 295 807 295 c 0,44,45
 1174 293 1174 293 1296 322 c 0,46,47
 1390 341 1390 341 1390 398 c 0,48,49
 1390 466 1390 466 1259 607 c 1,50,51
 1203 656 1203 656 1144 699 c 128,-1,52
 1085 742 1085 742 1064 758 c 1,53,-1
 1115 1030 l 1,54,-1
 1915 1323 l 1,55,-1
 1859 1075 l 1,56,-1
 1270 872 l 1,57,58
 1407 751 1407 751 1590 570 c 1,59,60
 1734 417 1734 417 1790 376 c 0,61,62
 1867 317 1867 317 1950 317 c 2,63,-1
 2114 317 l 1,64,-1
 2114 0 l 1,12,-1
EndSplineSet
EndChar

StartChar: afii62965
Encoding: 64404 64404 225
Width: 932
GlyphClass: 2
Flags: W
AnchorPoint: "Anchor-1" 315 -510 basechar 0
AnchorPoint: "Anchor-0" 345 1680 basechar 0
LayerCount: 2
Fore
SplineSet
916 1556 m 0,0,1
 914 1552 914 1552 888 1463 c 1,2,-1
 114 1159 l 1,3,4
 109 1163 109 1163 107 1166 c 0,5,6
 107 1187 107 1187 118 1235 c 0,7,8
 130 1281 130 1281 148 1287 c 2,9,-1
 897 1572 l 2,10,11
 911 1576 911 1576 916 1556 c 0,0,1
872 1353 m 1,12,-1
 827 1103 l 1,13,-1
 317 913 l 1,14,15
 445 751 445 751 499 632.5 c 128,-1,16
 553 514 553 514 553 426 c 0,17,18
 553 243 553 243 458 127 c 0,19,20
 349 0 349 0 92 0 c 2,21,-1
 -28 0 l 1,22,-1
 -28 317 l 1,23,-1
 55 317 l 2,24,25
 285 317 285 317 351 334.5 c 128,-1,26
 417 352 417 352 417 398 c 0,27,28
 417 461 417 461 322 565.5 c 128,-1,29
 227 670 227 670 158.5 727.5 c 128,-1,30
 90 785 90 785 67 800 c 1,31,-1
 118 1073 l 1,32,-1
 872 1353 l 1,12,-1
EndSplineSet
EndChar

StartChar: afii62966
Encoding: 64405 64405 226
Width: 1131
GlyphClass: 2
Flags: W
AnchorPoint: "Anchor-1" 525 -675 basechar 0
AnchorPoint: "Anchor-0" 405 1680 basechar 0
LayerCount: 2
Fore
SplineSet
957 1570 m 0,0,1
 955 1567 955 1567 929 1478 c 1,2,-1
 155 1174 l 1,3,4
 149 1178 149 1178 148 1182 c 0,5,6
 148 1201 148 1201 158 1250 c 0,7,8
 171 1296 171 1296 188 1301 c 2,9,-1
 938 1587 l 2,10,11
 951 1590 951 1590 957 1570 c 0,0,1
1168 0 m 1,12,-1
 978 0 l 2,13,14
 911 0 911 0 835 46 c 0,15,16
 802 63 802 63 752 105 c 2,17,-1
 689 164 l 1,18,-1
 533 337 l 1,19,20
 533 177 533 177 426.5 88.5 c 128,-1,21
 320 0 320 0 139 0 c 2,22,-1
 -28 0 l 1,23,-1
 -28 317 l 1,24,-1
 160 317 l 2,25,26
 262 317 262 317 301 330 c 1,27,28
 415 343 415 343 415 400 c 0,29,30
 415 472 415 472 283 616 c 0,31,32
 175 735 175 735 65 802 c 1,33,-1
 116 1075 l 1,34,-1
 916 1368 l 1,35,-1
 862 1116 l 1,36,-1
 275 913 l 1,37,38
 443 758 443 758 617 571 c 1,39,-1
 739 445 l 1,40,-1
 813 378 l 1,41,42
 890 319 890 319 976 317 c 2,43,-1
 1168 317 l 1,44,-1
 1168 0 l 1,12,-1
EndSplineSet
EndChar

StartChar: afii57555
Encoding: 1740 1740 227
Width: 1620
GlyphClass: 2
Flags: W
AnchorPoint: "Anchor-1" 705 -975 basechar 0
AnchorPoint: "Anchor-0" 585 1050 basechar 0
LayerCount: 2
Fore
SplineSet
1567 670 m 0,0,1
 1567 628 1567 628 1532 628 c 1,2,3
 1412 707 1412 707 1238 707 c 0,4,5
 1015 707 1015 707 922 556 c 0,6,7
 894 507 894 507 894 481 c 0,8,9
 894 440 894 440 1006 424 c 2,10,-1
 1235 394 l 2,11,12
 1364 378 1364 378 1423 341 c 0,13,14
 1509 287 1509 287 1509 175 c 1,15,16
 1520 -14 1520 -14 1438 -140 c 0,17,18
 1246 -424 1246 -424 669 -420 c 1,19,20
 424 -413 424 -413 264.5 -312.5 c 128,-1,21
 105 -212 105 -212 105 22 c 0,22,23
 105 129 105 129 153 304 c 0,24,25
 210 524 210 524 283 524 c 0,26,27
 310 524 310 524 310 483 c 0,28,29
 310 473 310 473 302 440 c 0,30,31
 292 387 292 387 278.5 330.5 c 128,-1,32
 265 274 265 274 265 214 c 0,33,34
 265 -129 265 -129 857 -129 c 0,35,36
 1027 -129 1027 -129 1180 -100 c 0,37,38
 1386 -61 1386 -61 1389 26 c 0,39,40
 1389 63 1389 63 1291 76 c 0,41,42
 1247 83 1247 83 1027 114 c 0,43,44
 870 139 870 139 823 164 c 0,45,46
 739 212 739 212 739 343 c 0,47,48
 739 413 739 413 802 553 c 0,49,50
 877 714 877 714 981 822 c 0,51,52
 1113 962 1113 962 1257 962 c 0,53,54
 1364 962 1364 962 1465.5 869 c 128,-1,55
 1567 776 1567 776 1567 670 c 0,0,1
EndSplineSet
Substitution2: "'fina' Terminal Forms in Arabic lookup 3 subtable" afii52364
Substitution2: "'medi' Medial Forms in Arabic lookup 2 subtable" afii62832
Substitution2: "'init' Initial Forms in Arabic lookup 0 subtable" uniFBFE
EndChar

StartChar: afii52364
Encoding: 64509 64509 228
Width: 1539
GlyphClass: 2
Flags: W
AnchorPoint: "Anchor-1" 750 -1185 basechar 0
AnchorPoint: "Anchor-0" 615 705 basechar 0
LayerCount: 2
Fore
SplineSet
1572 0 m 1,0,-1
 1124 0 l 2,1,2
 909 0 909 0 907 -55 c 0,3,4
 907 -81 907 -81 966 -92 c 0,5,6
 1023 -102 1023 -102 1093 -104 c 0,7,8
 1141 -107 1141 -107 1220 -102 c 0,9,10
 1316 -100 1316 -100 1349 -100 c 0,11,12
 1515 -100 1515 -100 1515 -241 c 0,13,14
 1515 -632 1515 -632 733 -630 c 0,15,16
 483 -630 483 -630 328 -553 c 0,17,18
 123 -450 123 -450 123 -223 c 0,19,20
 123 21 123 21 234 186 c 0,21,22
 262 230 262 230 292 230 c 0,23,24
 320 230 320 230 320 192 c 0,25,26
 320 171 320 171 303.5 122.5 c 128,-1,27
 287 74 287 74 274 -28 c 1,28,29
 276 -221 276 -221 431 -301.5 c 128,-1,30
 586 -382 586 -382 839 -382 c 0,31,32
 985 -383 985 -383 1183 -362 c 128,-1,33
 1381 -341 1381 -341 1381 -295 c 0,34,35
 1381 -273 1381 -273 1307 -273 c 2,36,-1
 1021 -273 l 2,37,38
 769 -273 769 -273 769 -131 c 0,39,40
 769 7 769 7 949 157 c 0,41,42
 1073 258 1073 258 1244 293 c 0,43,44
 1364 317 1364 317 1572 317 c 1,45,-1
 1572 0 l 1,0,-1
EndSplineSet
EndChar

StartChar: afii62945
Encoding: 65554 -1 234
Width: 1708
GlyphClass: 3
Flags: W
LayerCount: 2
Fore
SplineSet
1713 986 m 1,0,1
 1713 969 1713 969 1676 969 c 2,2,-1
 1615 975 l 1,3,-1
 1615 373 l 2,4,5
 1615 223 1615 223 1546 118 c 1,6,7
 1467 9 1467 9 1347 0 c 1,8,-1
 1247 0 l 1,9,10
 1097 7 1097 7 1034 139 c 1,11,12
 1012 81 1012 81 951 40 c 0,13,14
 897 0 897 0 841 0 c 2,15,-1
 735 0 l 1,16,17
 612 4 612 4 553 92 c 0,18,19
 514 149 514 149 473 297 c 1,20,21
 424 169 424 169 385 169 c 0,22,23
 306 169 306 169 174 225 c 0,24,25
 22 290 22 290 22 354 c 0,26,27
 22 398 22 398 59 479 c 0,28,29
 92 545 92 545 121 579 c 0,30,31
 148 607 148 607 221 645 c 2,32,-1
 406 746 l 1,33,-1
 389 865 l 1,34,35
 545 1080 545 1080 561 1080 c 0,36,37
 575 1080 575 1080 582 1039 c 2,38,-1
 649 554 l 2,39,40
 665 450 665 450 684 406 c 0,41,42
 717 320 717 320 793 320 c 1,43,44
 842 324 842 324 870 339 c 0,45,46
 931 373 931 373 931 459 c 2,47,-1
 931 978 l 1,48,49
 1141 1170 1141 1170 1156 1170 c 0,50,51
 1180 1170 1180 1170 1178 1126 c 0,52,53
 1147 520 1147 520 1147 505 c 0,54,55
 1147 389 1147 389 1189 350 c 0,56,57
 1220 322 1220 322 1310 317 c 1,58,59
 1362 320 1362 320 1375 324 c 0,60,61
 1454 341 1454 341 1454 415 c 0,62,63
 1454 723 1454 723 1331 1117 c 1,64,65
 1532 1335 1532 1335 1546 1335 c 0,66,67
 1567 1335 1567 1335 1631 1180 c 0,68,69
 1672 1082 1672 1082 1713 986 c 1,0,1
426 610 m 1,70,71
 308 566 308 566 210 477 c 1,72,73
 302 415 302 415 461 398 c 1,74,-1
 426 610 l 1,70,71
EndSplineSet
EndChar

StartChar: afii64184
Encoding: 65010 65010 235
Width: 1865
GlyphClass: 3
Flags: W
AnchorPoint: "Anchor-3" 1545 -375 baselig 0
AnchorPoint: "Anchor-2" 1515 1470 baselig 0
AnchorPoint: "Anchor-3" 975 -420 baselig 1
AnchorPoint: "Anchor-2" 1095 1200 baselig 1
AnchorPoint: "Anchor-3" 435 -405 baselig 2
AnchorPoint: "Anchor-2" 315 1050 baselig 2
LayerCount: 2
Fore
SplineSet
1801 986 m 1,0,1
 1801 969 1801 969 1764 969 c 2,2,-1
 1703 975 l 1,3,-1
 1703 373 l 2,4,5
 1703 223 1703 223 1634 118 c 1,6,7
 1555 9 1555 9 1435 0 c 1,8,-1
 1335 0 l 1,9,10
 1185 7 1185 7 1122 139 c 1,11,12
 1100 81 1100 81 1039 40 c 0,13,14
 985 0 985 0 929 0 c 2,15,-1
 823 0 l 1,16,17
 700 4 700 4 641 92 c 0,18,19
 602 149 602 149 561 297 c 1,20,21
 512 169 512 169 473 169 c 0,22,23
 394 169 394 169 262 225 c 0,24,25
 110 290 110 290 110 354 c 0,26,27
 110 398 110 398 147 479 c 0,28,29
 180 545 180 545 209 579 c 0,30,31
 236 607 236 607 309 645 c 2,32,-1
 494 746 l 1,33,-1
 477 865 l 1,34,35
 633 1080 633 1080 649 1080 c 0,36,37
 663 1080 663 1080 670 1039 c 2,38,-1
 737 554 l 2,39,40
 753 450 753 450 772 406 c 0,41,42
 805 320 805 320 881 320 c 1,43,44
 930 324 930 324 958 339 c 0,45,46
 1019 373 1019 373 1019 459 c 2,47,-1
 1019 978 l 1,48,49
 1229 1170 1229 1170 1244 1170 c 0,50,51
 1268 1170 1268 1170 1266 1126 c 0,52,53
 1235 520 1235 520 1235 505 c 0,54,55
 1235 389 1235 389 1277 350 c 0,56,57
 1308 322 1308 322 1398 317 c 1,58,59
 1450 320 1450 320 1463 324 c 0,60,61
 1542 341 1542 341 1542 415 c 0,62,63
 1542 723 1542 723 1419 1117 c 1,64,65
 1620 1335 1620 1335 1634 1335 c 0,66,67
 1655 1335 1655 1335 1719 1180 c 0,68,69
 1760 1082 1760 1082 1801 986 c 1,0,1
1325 1445 m 0,70,71
 1325 1270 1325 1270 1222 1270 c 0,72,73
 1185 1270 1185 1270 1138 1316 c 1,74,75
 1100 1242 1100 1242 1082 1228 c 1,76,77
 1045 1183 1045 1183 992 1183 c 0,78,79
 953 1183 953 1183 929 1233 c 1,80,81
 916 1270 916 1270 916 1312 c 0,82,83
 916 1435 916 1435 983 1449 c 1,84,85
 964 1312 964 1312 1013 1312 c 0,86,87
 1057 1312 1057 1312 1082 1375 c 1,88,89
 1092 1432 1092 1432 1100 1484 c 1,90,91
 1118 1495 1118 1495 1150 1509 c 1,92,93
 1150 1393 1150 1393 1205 1393 c 0,94,95
 1270 1393 1270 1393 1270 1558 c 1,96,-1
 1305 1576 l 1,97,98
 1325 1519 1325 1519 1325 1445 c 0,70,71
514 610 m 1,99,100
 396 566 396 566 298 477 c 1,101,102
 390 415 390 415 549 398 c 1,103,-1
 514 610 l 1,99,100
1170 1706 m 2,104,105
 1168 1629 1168 1629 1113 1613 c 1,106,107
 1103 1616 1103 1616 1105 1631 c 2,108,-1
 1105 1841 l 2,109,110
 1105 1845 1105 1845 1131 1866 c 0,111,112
 1159 1884 1159 1884 1170 1887 c 1,113,-1
 1170 1706 l 2,104,105
EndSplineSet
Ligature2: "'rlig' Required Ligatures in Arabic lookup 6 subtable" afii62817 afii62818 uniFC63 afii62828
Ligature2: "'rlig' Required Ligatures in Arabic lookup 6 subtable" afii62817 afii62818 afii57457 uni0670 afii62828
EndChar

StartChar: afii57415.001
Encoding: 1575 1575 249
Width: 512
GlyphClass: 2
Flags: W
AnchorPoint: "Anchor-1" 390 -420 basechar 0
AnchorPoint: "Anchor-0" 375 1365 basechar 0
LayerCount: 2
Fore
SplineSet
448 1300 m 1,0,-1
 448 1294 l 1,1,-1
 351 83 l 2,2,3
 343 -7 343 -7 306 -7 c 0,4,5
 260 -7 260 -7 249 105 c 2,6,-1
 130 1119 l 1,7,8
 255 1220 255 1220 437 1340 c 1,9,10
 452 1321 452 1321 448 1300 c 1,0,-1
EndSplineSet
Substitution2: "'fina' Terminal Forms in Arabic lookup 3 subtable" afii62760
EndChar

StartChar: afii62760.001
Encoding: 65555 -1 250
Width: 562
GlyphClass: 2
Flags: W
LayerCount: 2
Fore
SplineSet
588 0 m 1,0,-1
 489 0 l 2,1,2
 320 0 320 0 253 149 c 0,3,4
 214 243 214 243 210 446 c 0,5,6
 206 535 206 535 202 712 c 0,7,8
 184 1170 184 1170 184 1192 c 1,9,10
 409 1354 409 1354 417 1354 c 0,11,12
 435 1354 435 1354 435 1300 c 2,13,-1
 435 468 l 2,14,15
 435 385 435 385 468 351 c 128,-1,16
 501 317 501 317 584 317 c 1,17,-1
 588 0 l 1,0,-1
EndSplineSet
EndChar

StartChar: afii57421
Encoding: 1581 1581 269
Width: 1537
GlyphClass: 2
Flags: W
AnchorPoint: "Anchor-1" 795 -1125 basechar 0
AnchorPoint: "Anchor-0" 870 1110 basechar 0
LayerCount: 2
Fore
SplineSet
1309 463 m 0,0,1
 1307 464 1307 464 1226 464 c 1,2,3
 1152 472 1152 472 1045 454 c 0,4,5
 818 409 818 409 667 280 c 1,6,7
 499 130 499 130 499 -88 c 0,8,9
 499 -284 499 -284 677 -392 c 0,10,11
 823 -482 823 -482 1034 -482 c 0,12,13
 1054 -482 1054 -482 1226 -472 c 0,14,15
 1254 -470 1254 -470 1326 -461 c 0,16,17
 1386 -454 1386 -454 1421 -454 c 0,18,19
 1482 -454 1482 -454 1482 -491 c 0,20,21
 1482 -553 1482 -553 1238 -598 c 1,22,23
 1052 -628 1052 -628 929 -628 c 0,24,25
 640 -628 640 -628 445 -527 c 0,26,27
 192 -398 192 -398 192 -140 c 0,28,29
 192 127 192 127 424 308 c 0,30,31
 608 452 608 452 904 524 c 1,32,33
 654 564 654 564 536 564 c 0,34,35
 463 564 463 564 405.5 496.5 c 128,-1,36
 348 429 348 429 322 429 c 0,37,38
 287 429 287 429 287 473 c 0,39,40
 287 503 287 503 334 603 c 0,41,42
 443 826 443 826 608 826 c 0,43,44
 686 826 686 826 791 796 c 1,45,46
 948 760 948 760 1029.5 751 c 128,-1,47
 1111 742 1111 742 1345 730 c 0,48,49
 1474 721 1474 721 1474 700 c 256,50,51
 1474 679 1474 679 1449 642 c 2,52,-1
 1354 492 l 2,53,54
 1340 468 1340 468 1309 463 c 0,0,1
EndSplineSet
Substitution2: "'fina' Terminal Forms in Arabic lookup 3 subtable" afii62776
Substitution2: "'medi' Medial Forms in Arabic lookup 2 subtable" afii62775
Substitution2: "'init' Initial Forms in Arabic lookup 0 subtable" afii62774
EndChar

StartChar: afii62776
Encoding: 65186 65186 270
Width: 1548
GlyphClass: 2
Flags: W
AnchorPoint: "Anchor-1" 840 -1140 basechar 0
AnchorPoint: "Anchor-0" 855 1170 basechar 0
LayerCount: 2
Fore
SplineSet
1576 0 m 1,0,-1
 1423 0 l 2,1,2
 1205 0 1205 0 1113 121 c 0,3,4
 1034 225 1034 225 1034 454 c 1,5,6
 802 413 802 413 656 283 c 0,7,8
 492 137 492 137 492 -88 c 0,9,10
 492 -284 492 -284 667 -389 c 1,11,12
 814 -482 814 -482 1025 -482 c 0,13,14
 1110 -482 1110 -482 1211 -472 c 0,15,16
 1238 -470 1238 -470 1316 -461 c 0,17,18
 1375 -452 1375 -452 1417 -452 c 0,19,20
 1469 -452 1469 -452 1469 -491 c 0,21,22
 1469 -553 1469 -553 1228 -598 c 1,23,24
 1041 -628 1041 -628 920 -628 c 0,25,26
 628 -628 628 -628 435 -527 c 0,27,28
 183 -398 183 -398 183 -140 c 0,29,30
 183 127 183 127 415 308 c 0,31,32
 603 454 603 454 894 524 c 1,33,34
 665 561 665 561 545 561 c 0,35,36
 473 561 473 561 417 489.5 c 128,-1,37
 361 418 361 418 330 418 c 0,38,39
 297 418 297 418 297 463 c 0,40,41
 297 498 297 498 343 591 c 0,42,43
 448 813 448 813 610 813 c 0,44,45
 686 813 686 813 769 793 c 1,46,47
 942 763 942 763 1010 754.5 c 128,-1,48
 1078 746 1078 746 1175.5 739 c 128,-1,49
 1273 732 1273 732 1364 728 c 1,50,51
 1486 717 1486 717 1486 698 c 0,52,53
 1486 673 1486 673 1418.5 567 c 128,-1,54
 1351 461 1351 461 1326 461 c 0,55,56
 1192 470 1192 470 1138 463 c 1,57,58
 1138 317 1138 317 1338 317 c 2,59,-1
 1574 317 l 1,60,-1
 1576 0 l 1,0,-1
EndSplineSet
EndChar

StartChar: afii62774
Encoding: 65187 65187 271
Width: 1404
GlyphClass: 2
Flags: W
AnchorPoint: "Anchor-1" 660 -525 basechar 0
AnchorPoint: "Anchor-0" 720 1230 basechar 0
LayerCount: 2
Fore
SplineSet
1358 573 m 0,0,1
 1358 553 1358 553 1306 453.5 c 128,-1,2
 1254 354 1254 354 1233 343 c 0,3,4
 1217 339 1217 339 1115 339 c 0,5,6
 1034 339 1034 339 868 251 c 0,7,8
 612 112 612 112 551 86 c 0,9,10
 348 0 348 0 169 0 c 2,11,-1
 -11 0 l 1,12,-1
 -11 317 l 1,13,14
 260 317 260 317 382 334 c 0,15,16
 545 354 545 354 758 443 c 1,17,18
 714 454 714 454 526 529 c 0,19,20
 422 571 422 571 365 573 c 0,21,22
 293 573 293 573 243 518 c 128,-1,23
 193 463 193 463 164 463 c 0,24,25
 132 463 132 463 132 507 c 0,26,27
 132 599 132 599 241 714.5 c 128,-1,28
 350 830 350 830 440 830 c 0,29,30
 496 830 496 830 647 772 c 0,31,32
 911 670 911 670 932 665 c 0,33,34
 1152 601 1152 601 1310 601 c 0,35,36
 1358 601 1358 601 1358 573 c 0,0,1
EndSplineSet
EndChar

StartChar: afii62775
Encoding: 65188 65188 272
Width: 1393
GlyphClass: 2
Flags: W
AnchorPoint: "Anchor-1" 645 -525 basechar 0
AnchorPoint: "Anchor-0" 765 1200 basechar 0
LayerCount: 2
Fore
SplineSet
1421 0 m 1,0,-1
 1233 0 l 2,1,2
 1025 0 1025 0 949 94 c 1,3,4
 892 177 892 177 892 389 c 1,5,6
 658 186 658 186 551 121 c 0,7,8
 350 0 350 0 140 0 c 2,9,-1
 -30 0 l 1,10,-1
 -28 317 l 1,11,12
 229 317 229 317 385 354 c 1,13,14
 535 394 535 394 769 516 c 1,15,16
 473 601 473 601 352 601 c 0,17,18
 293 601 293 601 242.5 545.5 c 128,-1,19
 192 490 192 490 169 490 c 0,20,21
 137 490 137 490 137 533 c 0,22,23
 137 564 137 564 188 663 c 0,24,25
 302 868 302 868 446 868 c 0,26,27
 522 868 522 868 634 837 c 0,28,29
 642 835 642 835 732 809 c 0,30,31
 901 763 901 763 1069 739 c 2,32,-1
 1263 712 l 2,33,34
 1310 704 1310 704 1310 686 c 0,35,36
 1310 670 1310 670 1183 455 c 1,37,38
 1089 461 1089 461 1071 461 c 0,39,40
 990 461 990 461 990 415 c 0,41,42
 990 317 990 317 1226 317 c 2,43,-1
 1419 317 l 1,44,-1
 1421 0 l 1,0,-1
EndSplineSet
EndChar

StartChar: afii57423
Encoding: 1583 1583 277
Width: 1103
GlyphClass: 2
Flags: W
AnchorPoint: "Anchor-1" 630 -480 basechar 0
AnchorPoint: "Anchor-0" 645 1365 basechar 0
LayerCount: 2
Fore
SplineSet
1032 483 m 0,0,1
 1032 313 1032 313 1006 230 c 0,2,3
 966 100 966 100 846 44 c 0,4,5
 760 0 760 0 652 0 c 2,6,-1
 443 0 l 2,7,8
 322 0 322 0 252.5 74 c 128,-1,9
 183 148 183 148 183 267 c 0,10,11
 183 501 183 501 253 501 c 0,12,13
 285 501 285 501 302 454 c 0,14,15
 320 389 320 389 345 369 c 0,16,17
 408 317 408 317 570 317 c 0,18,19
 938 317 938 317 938 400 c 0,20,21
 938 452 938 452 755.5 586.5 c 128,-1,22
 573 721 573 721 413 758 c 1,23,24
 413 772 413 772 517 1032 c 0,25,26
 533 1064 533 1064 564 1064 c 0,27,28
 626 1064 626 1064 767 932 c 0,29,30
 1032 682 1032 682 1032 483 c 0,0,1
EndSplineSet
Substitution2: "'fina' Terminal Forms in Arabic lookup 3 subtable" afii62780
PairPos2: "'kern' Horizontal Kerning in Arabic lookup 0 subtable" uniFC5D dx=0 dy=0 dh=0 dv=0 dx=0 dy=0 dh=-50 dv=0
PairPos2: "'kern' Horizontal Kerning in Arabic lookup 0 subtable" afii57415 dx=0 dy=0 dh=0 dv=0 dx=0 dy=0 dh=-80 dv=0
PairPos2: "'kern' Horizontal Kerning in Arabic lookup 0 subtable" uni068A dx=0 dy=0 dh=0 dv=0 dx=0 dy=0 dh=-50 dv=0
PairPos2: "'kern' Horizontal Kerning in Arabic lookup 0 subtable" uni06FB.init dx=0 dy=0 dh=0 dv=0 dx=0 dy=0 dh=-50 dv=0
PairPos2: "'kern' Horizontal Kerning in Arabic lookup 0 subtable" uni06FB dx=0 dy=0 dh=0 dv=0 dx=0 dy=0 dh=-40 dv=0
PairPos2: "'kern' Horizontal Kerning in Arabic lookup 0 subtable" uni06FA.init dx=0 dy=0 dh=0 dv=0 dx=0 dy=0 dh=-50 dv=0
PairPos2: "'kern' Horizontal Kerning in Arabic lookup 0 subtable" uni06FA dx=0 dy=0 dh=0 dv=0 dx=0 dy=0 dh=-40 dv=0
PairPos2: "'kern' Horizontal Kerning in Arabic lookup 0 subtable" uni06D1 dx=0 dy=0 dh=0 dv=0 dx=0 dy=0 dh=-50 dv=0
PairPos2: "'kern' Horizontal Kerning in Arabic lookup 0 subtable" uni06D0 dx=0 dy=0 dh=0 dv=0 dx=0 dy=0 dh=-50 dv=0
PairPos2: "'kern' Horizontal Kerning in Arabic lookup 0 subtable" uni06CE dx=0 dy=0 dh=0 dv=0 dx=0 dy=0 dh=-50 dv=0
PairPos2: "'kern' Horizontal Kerning in Arabic lookup 0 subtable" uni06CD dx=0 dy=0 dh=0 dv=0 dx=0 dy=0 dh=-50 dv=0
PairPos2: "'kern' Horizontal Kerning in Arabic lookup 0 subtable" uni06BF.init dx=0 dy=0 dh=0 dv=0 dx=0 dy=0 dh=-50 dv=0
PairPos2: "'kern' Horizontal Kerning in Arabic lookup 0 subtable" uni06B8 dx=0 dy=0 dh=0 dv=0 dx=0 dy=0 dh=-80 dv=0
PairPos2: "'kern' Horizontal Kerning in Arabic lookup 0 subtable" uni06B7.init dx=0 dy=0 dh=0 dv=0 dx=0 dy=0 dh=-80 dv=0
PairPos2: "'kern' Horizontal Kerning in Arabic lookup 0 subtable" uni06B7 dx=0 dy=0 dh=0 dv=0 dx=0 dy=0 dh=-80 dv=0
PairPos2: "'kern' Horizontal Kerning in Arabic lookup 0 subtable" uni06B6.init dx=0 dy=0 dh=0 dv=0 dx=0 dy=0 dh=-80 dv=0
PairPos2: "'kern' Horizontal Kerning in Arabic lookup 0 subtable" uni06B6 dx=0 dy=0 dh=0 dv=0 dx=0 dy=0 dh=-80 dv=0
PairPos2: "'kern' Horizontal Kerning in Arabic lookup 0 subtable" uni06B5.init dx=0 dy=0 dh=0 dv=0 dx=0 dy=0 dh=-80 dv=0
PairPos2: "'kern' Horizontal Kerning in Arabic lookup 0 subtable" uni06B5 dx=0 dy=0 dh=0 dv=0 dx=0 dy=0 dh=-80 dv=0
PairPos2: "'kern' Horizontal Kerning in Arabic lookup 0 subtable" uni06B4.init dx=0 dy=0 dh=0 dv=0 dx=0 dy=0 dh=-280 dv=0
PairPos2: "'kern' Horizontal Kerning in Arabic lookup 0 subtable" uni06B4 dx=0 dy=0 dh=0 dv=0 dx=0 dy=0 dh=-280 dv=0
PairPos2: "'kern' Horizontal Kerning in Arabic lookup 0 subtable" uniFB98 dx=0 dy=0 dh=0 dv=0 dx=0 dy=0 dh=-280 dv=0
PairPos2: "'kern' Horizontal Kerning in Arabic lookup 0 subtable" uni06B3 dx=0 dy=0 dh=0 dv=0 dx=0 dy=0 dh=-280 dv=0
PairPos2: "'kern' Horizontal Kerning in Arabic lookup 0 subtable" uni06B2.init dx=0 dy=0 dh=0 dv=0 dx=0 dy=0 dh=-280 dv=0
PairPos2: "'kern' Horizontal Kerning in Arabic lookup 0 subtable" uniFB9C dx=0 dy=0 dh=0 dv=0 dx=0 dy=0 dh=-280 dv=0
PairPos2: "'kern' Horizontal Kerning in Arabic lookup 0 subtable" uni06B1 dx=0 dy=0 dh=0 dv=0 dx=0 dy=0 dh=-280 dv=0
PairPos2: "'kern' Horizontal Kerning in Arabic lookup 0 subtable" uni06B0.init dx=0 dy=0 dh=0 dv=0 dx=0 dy=0 dh=-280 dv=0
PairPos2: "'kern' Horizontal Kerning in Arabic lookup 0 subtable" uni06B0 dx=0 dy=0 dh=0 dv=0 dx=0 dy=0 dh=-280 dv=0
PairPos2: "'kern' Horizontal Kerning in Arabic lookup 0 subtable" uni06AE.init dx=0 dy=0 dh=0 dv=0 dx=0 dy=0 dh=-280 dv=0
PairPos2: "'kern' Horizontal Kerning in Arabic lookup 0 subtable" uni06AE dx=0 dy=0 dh=0 dv=0 dx=0 dy=0 dh=-80 dv=0
PairPos2: "'kern' Horizontal Kerning in Arabic lookup 0 subtable" uniFBD5 dx=0 dy=0 dh=0 dv=0 dx=0 dy=0 dh=-280 dv=0
PairPos2: "'kern' Horizontal Kerning in Arabic lookup 0 subtable" uni06AD dx=0 dy=0 dh=0 dv=0 dx=0 dy=0 dh=-80 dv=0
PairPos2: "'kern' Horizontal Kerning in Arabic lookup 0 subtable" uni06AB.init dx=0 dy=0 dh=0 dv=0 dx=0 dy=0 dh=-280 dv=0
PairPos2: "'kern' Horizontal Kerning in Arabic lookup 0 subtable" uni06AB dx=0 dy=0 dh=0 dv=0 dx=0 dy=0 dh=-80 dv=0
PairPos2: "'kern' Horizontal Kerning in Arabic lookup 0 subtable" uni06AB.init dx=0 dy=0 dh=0 dv=0 dx=0 dy=0 dh=-280 dv=0
PairPos2: "'kern' Horizontal Kerning in Arabic lookup 0 subtable" uni06AB.001 dx=0 dy=0 dh=0 dv=0 dx=0 dy=0 dh=-280 dv=0
PairPos2: "'kern' Horizontal Kerning in Arabic lookup 0 subtable" uni069E.init dx=0 dy=0 dh=0 dv=0 dx=0 dy=0 dh=-50 dv=0
PairPos2: "'kern' Horizontal Kerning in Arabic lookup 0 subtable" uni069E dx=0 dy=0 dh=0 dv=0 dx=0 dy=0 dh=-40 dv=0
PairPos2: "'kern' Horizontal Kerning in Arabic lookup 0 subtable" uni069D.init dx=0 dy=0 dh=0 dv=0 dx=0 dy=0 dh=-50 dv=0
PairPos2: "'kern' Horizontal Kerning in Arabic lookup 0 subtable" uni069D dx=0 dy=0 dh=0 dv=0 dx=0 dy=0 dh=-40 dv=0
PairPos2: "'kern' Horizontal Kerning in Arabic lookup 0 subtable" uni069C.init dx=0 dy=0 dh=0 dv=0 dx=0 dy=0 dh=-50 dv=0
PairPos2: "'kern' Horizontal Kerning in Arabic lookup 0 subtable" uni069C dx=0 dy=0 dh=0 dv=0 dx=0 dy=0 dh=-40 dv=0
PairPos2: "'kern' Horizontal Kerning in Arabic lookup 0 subtable" uni069B.init dx=0 dy=0 dh=0 dv=0 dx=0 dy=0 dh=-50 dv=0
PairPos2: "'kern' Horizontal Kerning in Arabic lookup 0 subtable" uni069B dx=0 dy=0 dh=0 dv=0 dx=0 dy=0 dh=-40 dv=0
PairPos2: "'kern' Horizontal Kerning in Arabic lookup 0 subtable" uni069A.init dx=0 dy=0 dh=0 dv=0 dx=0 dy=0 dh=-50 dv=0
PairPos2: "'kern' Horizontal Kerning in Arabic lookup 0 subtable" uni069A dx=0 dy=0 dh=0 dv=0 dx=0 dy=0 dh=-40 dv=0
PairPos2: "'kern' Horizontal Kerning in Arabic lookup 0 subtable" uni068e dx=0 dy=0 dh=0 dv=0 dx=0 dy=0 dh=-50 dv=0
PairPos2: "'kern' Horizontal Kerning in Arabic lookup 0 subtable" uni068d dx=0 dy=0 dh=0 dv=0 dx=0 dy=0 dh=-50 dv=0
PairPos2: "'kern' Horizontal Kerning in Arabic lookup 0 subtable" uni068c dx=0 dy=0 dh=0 dv=0 dx=0 dy=0 dh=-50 dv=0
PairPos2: "'kern' Horizontal Kerning in Arabic lookup 0 subtable" uni068b dx=0 dy=0 dh=0 dv=0 dx=0 dy=0 dh=-50 dv=0
PairPos2: "'kern' Horizontal Kerning in Arabic lookup 0 subtable" uni0689 dx=0 dy=0 dh=0 dv=0 dx=0 dy=0 dh=-50 dv=0
PairPos2: "'kern' Horizontal Kerning in Arabic lookup 0 subtable" uniFB80 dx=0 dy=0 dh=0 dv=0 dx=0 dy=0 dh=-50 dv=0
PairPos2: "'kern' Horizontal Kerning in Arabic lookup 0 subtable" uni0687 dx=0 dy=0 dh=0 dv=0 dx=0 dy=0 dh=-50 dv=0
PairPos2: "'kern' Horizontal Kerning in Arabic lookup 0 subtable" uni0685.init dx=0 dy=0 dh=0 dv=0 dx=0 dy=0 dh=-50 dv=0
PairPos2: "'kern' Horizontal Kerning in Arabic lookup 0 subtable" uni0685 dx=0 dy=0 dh=0 dv=0 dx=0 dy=0 dh=-50 dv=0
PairPos2: "'kern' Horizontal Kerning in Arabic lookup 0 subtable" uniFB74 dx=0 dy=0 dh=0 dv=0 dx=0 dy=0 dh=-50 dv=0
PairPos2: "'kern' Horizontal Kerning in Arabic lookup 0 subtable" uni0684 dx=0 dy=0 dh=0 dv=0 dx=0 dy=0 dh=-50 dv=0
PairPos2: "'kern' Horizontal Kerning in Arabic lookup 0 subtable" uniFB78 dx=0 dy=0 dh=0 dv=0 dx=0 dy=0 dh=-50 dv=0
PairPos2: "'kern' Horizontal Kerning in Arabic lookup 0 subtable" uni0683 dx=0 dy=0 dh=0 dv=0 dx=0 dy=0 dh=-50 dv=0
PairPos2: "'kern' Horizontal Kerning in Arabic lookup 0 subtable" uni0682.init dx=0 dy=0 dh=0 dv=0 dx=0 dy=0 dh=-50 dv=0
PairPos2: "'kern' Horizontal Kerning in Arabic lookup 0 subtable" uni0682 dx=0 dy=0 dh=0 dv=0 dx=0 dy=0 dh=-50 dv=0
PairPos2: "'kern' Horizontal Kerning in Arabic lookup 0 subtable" uni0681.init dx=0 dy=0 dh=0 dv=0 dx=0 dy=0 dh=-50 dv=0
PairPos2: "'kern' Horizontal Kerning in Arabic lookup 0 subtable" uni0681 dx=0 dy=0 dh=0 dv=0 dx=0 dy=0 dh=-50 dv=0
PairPos2: "'kern' Horizontal Kerning in Arabic lookup 0 subtable" uni0678 dx=0 dy=0 dh=0 dv=0 dx=0 dy=0 dh=-50 dv=0
PairPos2: "'kern' Horizontal Kerning in Arabic lookup 0 subtable" uni0675 dx=0 dy=0 dh=0 dv=0 dx=0 dy=0 dh=-80 dv=0
PairPos2: "'kern' Horizontal Kerning in Arabic lookup 0 subtable" uni0673 dx=0 dy=0 dh=0 dv=0 dx=0 dy=0 dh=-80 dv=0
PairPos2: "'kern' Horizontal Kerning in Arabic lookup 0 subtable" uni0672 dx=0 dy=0 dh=0 dv=0 dx=0 dy=0 dh=-80 dv=0
PairPos2: "'kern' Horizontal Kerning in Arabic lookup 0 subtable" uniFBA6 dx=0 dy=0 dh=0 dv=0 dx=0 dy=0 dh=-50 dv=0
PairPos2: "'kern' Horizontal Kerning in Arabic lookup 0 subtable" uni06D3 dx=0 dy=0 dh=0 dv=0 dx=0 dy=0 dh=-50 dv=0
PairPos2: "'kern' Horizontal Kerning in Arabic lookup 0 subtable" uni06D2 dx=0 dy=0 dh=0 dv=0 dx=0 dy=0 dh=-50 dv=0
PairPos2: "'kern' Horizontal Kerning in Arabic lookup 0 subtable" uni0688 dx=0 dy=0 dh=0 dv=0 dx=0 dy=0 dh=-50 dv=0
PairPos2: "'kern' Horizontal Kerning in Arabic lookup 0 subtable" uniFBA4 dx=0 dy=0 dh=0 dv=0 dx=0 dy=0 dh=-50 dv=0
PairPos2: "'kern' Horizontal Kerning in Arabic lookup 0 subtable" uni06C0 dx=0 dy=0 dh=0 dv=0 dx=0 dy=0 dh=-50 dv=0
PairPos2: "'kern' Horizontal Kerning in Arabic lookup 0 subtable" afii62840 dx=0 dy=0 dh=0 dv=0 dx=0 dy=0 dh=-100 dv=0
PairPos2: "'kern' Horizontal Kerning in Arabic lookup 0 subtable" afii62838 dx=0 dy=0 dh=0 dv=0 dx=0 dy=0 dh=-100 dv=0
PairPos2: "'kern' Horizontal Kerning in Arabic lookup 0 subtable" afii62836 dx=0 dy=0 dh=0 dv=0 dx=0 dy=0 dh=-100 dv=0
PairPos2: "'kern' Horizontal Kerning in Arabic lookup 0 subtable" afii62834 dx=0 dy=0 dh=0 dv=0 dx=0 dy=0 dh=-100 dv=0
PairPos2: "'kern' Horizontal Kerning in Arabic lookup 0 subtable" afii57450 dx=0 dy=0 dh=0 dv=0 dx=0 dy=0 dh=-50 dv=0
PairPos2: "'kern' Horizontal Kerning in Arabic lookup 0 subtable" afii57449 dx=0 dy=0 dh=0 dv=0 dx=0 dy=0 dh=-50 dv=0
PairPos2: "'kern' Horizontal Kerning in Arabic lookup 0 subtable" afii57447 dx=0 dy=0 dh=0 dv=0 dx=0 dy=0 dh=-50 dv=0
PairPos2: "'kern' Horizontal Kerning in Arabic lookup 0 subtable" afii57445 dx=0 dy=0 dh=0 dv=0 dx=0 dy=0 dh=-50 dv=0
PairPos2: "'kern' Horizontal Kerning in Arabic lookup 0 subtable" afii62817 dx=0 dy=0 dh=0 dv=0 dx=0 dy=0 dh=-80 dv=0
PairPos2: "'kern' Horizontal Kerning in Arabic lookup 0 subtable" afii57444 dx=0 dy=0 dh=0 dv=0 dx=0 dy=0 dh=-80 dv=0
PairPos2: "'kern' Horizontal Kerning in Arabic lookup 0 subtable" afii57410 dx=0 dy=0 dh=0 dv=0 dx=0 dy=0 dh=-280 dv=0
PairPos2: "'kern' Horizontal Kerning in Arabic lookup 0 subtable" afii57443 dx=0 dy=0 dh=0 dv=0 dx=0 dy=0 dh=-80 dv=0
PairPos2: "'kern' Horizontal Kerning in Arabic lookup 0 subtable" afii62793 dx=0 dy=0 dh=0 dv=0 dx=0 dy=0 dh=-50 dv=0
PairPos2: "'kern' Horizontal Kerning in Arabic lookup 0 subtable" afii57430 dx=0 dy=0 dh=0 dv=0 dx=0 dy=0 dh=-40 dv=0
PairPos2: "'kern' Horizontal Kerning in Arabic lookup 0 subtable" afii62790 dx=0 dy=0 dh=0 dv=0 dx=0 dy=0 dh=-50 dv=0
PairPos2: "'kern' Horizontal Kerning in Arabic lookup 0 subtable" afii57429 dx=0 dy=0 dh=0 dv=0 dx=0 dy=0 dh=-40 dv=0
PairPos2: "'kern' Horizontal Kerning in Arabic lookup 0 subtable" afii62787 dx=0 dy=0 dh=0 dv=0 dx=0 dy=0 dh=-50 dv=0
PairPos2: "'kern' Horizontal Kerning in Arabic lookup 0 subtable" afii57428 dx=0 dy=0 dh=0 dv=0 dx=0 dy=0 dh=-40 dv=0
PairPos2: "'kern' Horizontal Kerning in Arabic lookup 0 subtable" afii62784 dx=0 dy=0 dh=0 dv=0 dx=0 dy=0 dh=-50 dv=0
PairPos2: "'kern' Horizontal Kerning in Arabic lookup 0 subtable" afii57427 dx=0 dy=0 dh=0 dv=0 dx=0 dy=0 dh=-40 dv=0
PairPos2: "'kern' Horizontal Kerning in Arabic lookup 0 subtable" afii57424 dx=0 dy=0 dh=0 dv=0 dx=0 dy=0 dh=-50 dv=0
PairPos2: "'kern' Horizontal Kerning in Arabic lookup 0 subtable" afii57423 dx=0 dy=0 dh=0 dv=0 dx=0 dy=0 dh=-50 dv=0
PairPos2: "'kern' Horizontal Kerning in Arabic lookup 0 subtable" afii62777 dx=0 dy=0 dh=0 dv=0 dx=0 dy=0 dh=-50 dv=0
PairPos2: "'kern' Horizontal Kerning in Arabic lookup 0 subtable" afii57422 dx=0 dy=0 dh=0 dv=0 dx=0 dy=0 dh=-50 dv=0
PairPos2: "'kern' Horizontal Kerning in Arabic lookup 0 subtable" afii62774 dx=0 dy=0 dh=0 dv=0 dx=0 dy=0 dh=-50 dv=0
PairPos2: "'kern' Horizontal Kerning in Arabic lookup 0 subtable" afii57421 dx=0 dy=0 dh=0 dv=0 dx=0 dy=0 dh=-50 dv=0
PairPos2: "'kern' Horizontal Kerning in Arabic lookup 0 subtable" afii62771 dx=0 dy=0 dh=0 dv=0 dx=0 dy=0 dh=-50 dv=0
PairPos2: "'kern' Horizontal Kerning in Arabic lookup 0 subtable" afii57420 dx=0 dy=0 dh=0 dv=0 dx=0 dy=0 dh=-50 dv=0
PairPos2: "'kern' Horizontal Kerning in Arabic lookup 0 subtable" afii57417 dx=0 dy=0 dh=0 dv=0 dx=0 dy=0 dh=-50 dv=0
PairPos2: "'kern' Horizontal Kerning in Arabic lookup 0 subtable" afii57415.001 dx=0 dy=0 dh=0 dv=0 dx=0 dy=0 dh=-80 dv=0
PairPos2: "'kern' Horizontal Kerning in Arabic lookup 0 subtable" afii57414 dx=0 dy=0 dh=0 dv=0 dx=0 dy=0 dh=-50 dv=0
PairPos2: "'kern' Horizontal Kerning in Arabic lookup 0 subtable" afii57413 dx=0 dy=0 dh=0 dv=0 dx=0 dy=0 dh=-80 dv=0
PairPos2: "'kern' Horizontal Kerning in Arabic lookup 0 subtable" afii57411 dx=0 dy=0 dh=0 dv=0 dx=0 dy=0 dh=-80 dv=0
PairPos2: "'kern' Horizontal Kerning in Arabic lookup 0 subtable" afii57555 dx=0 dy=0 dh=0 dv=0 dx=0 dy=0 dh=-50 dv=0
PairPos2: "'kern' Horizontal Kerning in Arabic lookup 0 subtable" afii62965 dx=0 dy=0 dh=0 dv=0 dx=0 dy=0 dh=-280 dv=0
PairPos2: "'kern' Horizontal Kerning in Arabic lookup 0 subtable" afii57509 dx=0 dy=0 dh=0 dv=0 dx=0 dy=0 dh=-280 dv=0
PairPos2: "'kern' Horizontal Kerning in Arabic lookup 0 subtable" afii52305 dx=0 dy=0 dh=0 dv=0 dx=0 dy=0 dh=-280 dv=0
PairPos2: "'kern' Horizontal Kerning in Arabic lookup 0 subtable" afii57567 dx=0 dy=0 dh=0 dv=0 dx=0 dy=0 dh=-280 dv=0
PairPos2: "'kern' Horizontal Kerning in Arabic lookup 0 subtable" afii62959 dx=0 dy=0 dh=0 dv=0 dx=0 dy=0 dh=-50 dv=0
PairPos2: "'kern' Horizontal Kerning in Arabic lookup 0 subtable" afii57507 dx=0 dy=0 dh=0 dv=0 dx=0 dy=0 dh=-50 dv=0
PairPos2: "'kern' Horizontal Kerning in Arabic lookup 0 subtable" afii57534 dx=0 dy=0 dh=0 dv=0 dx=0 dy=0 dh=-50 dv=0
EndChar

StartChar: afii62780
Encoding: 65194 65194 278
Width: 1298
GlyphClass: 2
Flags: W
AnchorPoint: "Anchor-1" 465 -495 basechar 0
AnchorPoint: "Anchor-0" 825 1320 basechar 0
LayerCount: 2
Fore
SplineSet
1329 0 m 1,0,-1
 1247 0 l 2,1,2
 1119 0 1119 0 1043 114 c 0,3,4
 1013 158 1013 158 962 285 c 1,5,6
 776 -7 776 -7 443 -7 c 0,7,8
 326 -7 326 -7 258 49 c 0,9,10
 183 109 183 109 183 223 c 0,11,12
 183 297 183 297 212 404 c 0,13,14
 238 501 238 501 290 501 c 0,15,16
 326 501 326 501 336 464 c 1,17,18
 328 424 328 424 328 415 c 0,19,20
 328 302 328 302 514 302 c 0,21,22
 746 302 746 302 904 443 c 1,23,-1
 744 877 l 1,24,25
 796 942 796 942 913 1052 c 1,26,27
 929 1039 929 1039 931 1030 c 2,28,-1
 1101 510 l 2,29,30
 1138 404 1138 404 1178 367 c 0,31,32
 1226 317 1226 317 1327 317 c 1,33,-1
 1329 0 l 1,0,-1
EndSplineSet
PairPos2: "'kern' Horizontal Kerning in Arabic lookup 0 subtable" uniFC5D dx=0 dy=0 dh=0 dv=0 dx=0 dy=0 dh=-50 dv=0
PairPos2: "'kern' Horizontal Kerning in Arabic lookup 0 subtable" afii57415 dx=0 dy=0 dh=0 dv=0 dx=0 dy=0 dh=-80 dv=0
PairPos2: "'kern' Horizontal Kerning in Arabic lookup 0 subtable" uni068A dx=0 dy=0 dh=0 dv=0 dx=0 dy=0 dh=-50 dv=0
PairPos2: "'kern' Horizontal Kerning in Arabic lookup 0 subtable" uni06FB.init dx=0 dy=0 dh=0 dv=0 dx=0 dy=0 dh=-50 dv=0
PairPos2: "'kern' Horizontal Kerning in Arabic lookup 0 subtable" uni06FB dx=0 dy=0 dh=0 dv=0 dx=0 dy=0 dh=-50 dv=0
PairPos2: "'kern' Horizontal Kerning in Arabic lookup 0 subtable" uni06FA.init dx=0 dy=0 dh=0 dv=0 dx=0 dy=0 dh=-50 dv=0
PairPos2: "'kern' Horizontal Kerning in Arabic lookup 0 subtable" uni06FA dx=0 dy=0 dh=0 dv=0 dx=0 dy=0 dh=-50 dv=0
PairPos2: "'kern' Horizontal Kerning in Arabic lookup 0 subtable" uni06D1 dx=0 dy=0 dh=0 dv=0 dx=0 dy=0 dh=-50 dv=0
PairPos2: "'kern' Horizontal Kerning in Arabic lookup 0 subtable" uni06D0 dx=0 dy=0 dh=0 dv=0 dx=0 dy=0 dh=-50 dv=0
PairPos2: "'kern' Horizontal Kerning in Arabic lookup 0 subtable" uni06CE dx=0 dy=0 dh=0 dv=0 dx=0 dy=0 dh=-50 dv=0
PairPos2: "'kern' Horizontal Kerning in Arabic lookup 0 subtable" uni06CD dx=0 dy=0 dh=0 dv=0 dx=0 dy=0 dh=-50 dv=0
PairPos2: "'kern' Horizontal Kerning in Arabic lookup 0 subtable" uni06BF.init dx=0 dy=0 dh=0 dv=0 dx=0 dy=0 dh=-50 dv=0
PairPos2: "'kern' Horizontal Kerning in Arabic lookup 0 subtable" uni06B8.init dx=0 dy=0 dh=0 dv=0 dx=0 dy=0 dh=-80 dv=0
PairPos2: "'kern' Horizontal Kerning in Arabic lookup 0 subtable" uni06B8 dx=0 dy=0 dh=0 dv=0 dx=0 dy=0 dh=-130 dv=0
PairPos2: "'kern' Horizontal Kerning in Arabic lookup 0 subtable" uni06B7.init dx=0 dy=0 dh=0 dv=0 dx=0 dy=0 dh=-80 dv=0
PairPos2: "'kern' Horizontal Kerning in Arabic lookup 0 subtable" uni06B7 dx=0 dy=0 dh=0 dv=0 dx=0 dy=0 dh=-130 dv=0
PairPos2: "'kern' Horizontal Kerning in Arabic lookup 0 subtable" uni06B6.init dx=0 dy=0 dh=0 dv=0 dx=0 dy=0 dh=-80 dv=0
PairPos2: "'kern' Horizontal Kerning in Arabic lookup 0 subtable" uni06B6 dx=0 dy=0 dh=0 dv=0 dx=0 dy=0 dh=-130 dv=0
PairPos2: "'kern' Horizontal Kerning in Arabic lookup 0 subtable" uni06B5.init dx=0 dy=0 dh=0 dv=0 dx=0 dy=0 dh=-80 dv=0
PairPos2: "'kern' Horizontal Kerning in Arabic lookup 0 subtable" uni06B5 dx=0 dy=0 dh=0 dv=0 dx=0 dy=0 dh=-130 dv=0
PairPos2: "'kern' Horizontal Kerning in Arabic lookup 0 subtable" uni06B4.init dx=0 dy=0 dh=0 dv=0 dx=0 dy=0 dh=-300 dv=0
PairPos2: "'kern' Horizontal Kerning in Arabic lookup 0 subtable" uni06B4 dx=0 dy=0 dh=0 dv=0 dx=0 dy=0 dh=-350 dv=0
PairPos2: "'kern' Horizontal Kerning in Arabic lookup 0 subtable" uniFB98 dx=0 dy=0 dh=0 dv=0 dx=0 dy=0 dh=-300 dv=0
PairPos2: "'kern' Horizontal Kerning in Arabic lookup 0 subtable" uni06B3 dx=0 dy=0 dh=0 dv=0 dx=0 dy=0 dh=-350 dv=0
PairPos2: "'kern' Horizontal Kerning in Arabic lookup 0 subtable" uni06B2.init dx=0 dy=0 dh=0 dv=0 dx=0 dy=0 dh=-300 dv=0
PairPos2: "'kern' Horizontal Kerning in Arabic lookup 0 subtable" uniFB9C dx=0 dy=0 dh=0 dv=0 dx=0 dy=0 dh=-300 dv=0
PairPos2: "'kern' Horizontal Kerning in Arabic lookup 0 subtable" uni06B1 dx=0 dy=0 dh=0 dv=0 dx=0 dy=0 dh=-350 dv=0
PairPos2: "'kern' Horizontal Kerning in Arabic lookup 0 subtable" uni06B0.init dx=0 dy=0 dh=0 dv=0 dx=0 dy=0 dh=-300 dv=0
PairPos2: "'kern' Horizontal Kerning in Arabic lookup 0 subtable" uni06B0 dx=0 dy=0 dh=0 dv=0 dx=0 dy=0 dh=-350 dv=0
PairPos2: "'kern' Horizontal Kerning in Arabic lookup 0 subtable" uni06AE.init dx=0 dy=0 dh=0 dv=0 dx=0 dy=0 dh=-300 dv=0
PairPos2: "'kern' Horizontal Kerning in Arabic lookup 0 subtable" uni06AE dx=0 dy=0 dh=0 dv=0 dx=0 dy=0 dh=-80 dv=0
PairPos2: "'kern' Horizontal Kerning in Arabic lookup 0 subtable" uniFBD5 dx=0 dy=0 dh=0 dv=0 dx=0 dy=0 dh=-300 dv=0
PairPos2: "'kern' Horizontal Kerning in Arabic lookup 0 subtable" uni06AD dx=0 dy=0 dh=0 dv=0 dx=0 dy=0 dh=-80 dv=0
PairPos2: "'kern' Horizontal Kerning in Arabic lookup 0 subtable" uni06AB.init dx=0 dy=0 dh=0 dv=0 dx=0 dy=0 dh=-300 dv=0
PairPos2: "'kern' Horizontal Kerning in Arabic lookup 0 subtable" uni06AB dx=0 dy=0 dh=0 dv=0 dx=0 dy=0 dh=-80 dv=0
PairPos2: "'kern' Horizontal Kerning in Arabic lookup 0 subtable" uni06AB.init dx=0 dy=0 dh=0 dv=0 dx=0 dy=0 dh=-300 dv=0
PairPos2: "'kern' Horizontal Kerning in Arabic lookup 0 subtable" uni06AB.001 dx=0 dy=0 dh=0 dv=0 dx=0 dy=0 dh=-340 dv=0
PairPos2: "'kern' Horizontal Kerning in Arabic lookup 0 subtable" uni06A6 dx=0 dy=0 dh=0 dv=0 dx=0 dy=0 dh=-50 dv=0
PairPos2: "'kern' Horizontal Kerning in Arabic lookup 0 subtable" uni06A5 dx=0 dy=0 dh=0 dv=0 dx=0 dy=0 dh=-50 dv=0
PairPos2: "'kern' Horizontal Kerning in Arabic lookup 0 subtable" uni06A3 dx=0 dy=0 dh=0 dv=0 dx=0 dy=0 dh=-50 dv=0
PairPos2: "'kern' Horizontal Kerning in Arabic lookup 0 subtable" uni06A2 dx=0 dy=0 dh=0 dv=0 dx=0 dy=0 dh=-50 dv=0
PairPos2: "'kern' Horizontal Kerning in Arabic lookup 0 subtable" uni069F dx=0 dy=0 dh=0 dv=0 dx=0 dy=0 dh=-80 dv=0
PairPos2: "'kern' Horizontal Kerning in Arabic lookup 0 subtable" uni069E.init dx=0 dy=0 dh=0 dv=0 dx=0 dy=0 dh=-50 dv=0
PairPos2: "'kern' Horizontal Kerning in Arabic lookup 0 subtable" uni069E dx=0 dy=0 dh=0 dv=0 dx=0 dy=0 dh=-50 dv=0
PairPos2: "'kern' Horizontal Kerning in Arabic lookup 0 subtable" uni069D.init dx=0 dy=0 dh=0 dv=0 dx=0 dy=0 dh=-50 dv=0
PairPos2: "'kern' Horizontal Kerning in Arabic lookup 0 subtable" uni069D dx=0 dy=0 dh=0 dv=0 dx=0 dy=0 dh=-50 dv=0
PairPos2: "'kern' Horizontal Kerning in Arabic lookup 0 subtable" uni069C.init dx=0 dy=0 dh=0 dv=0 dx=0 dy=0 dh=-50 dv=0
PairPos2: "'kern' Horizontal Kerning in Arabic lookup 0 subtable" uni069C dx=0 dy=0 dh=0 dv=0 dx=0 dy=0 dh=-50 dv=0
PairPos2: "'kern' Horizontal Kerning in Arabic lookup 0 subtable" uni069B.init dx=0 dy=0 dh=0 dv=0 dx=0 dy=0 dh=-50 dv=0
PairPos2: "'kern' Horizontal Kerning in Arabic lookup 0 subtable" uni069B dx=0 dy=0 dh=0 dv=0 dx=0 dy=0 dh=-50 dv=0
PairPos2: "'kern' Horizontal Kerning in Arabic lookup 0 subtable" uni069A.init dx=0 dy=0 dh=0 dv=0 dx=0 dy=0 dh=-50 dv=0
PairPos2: "'kern' Horizontal Kerning in Arabic lookup 0 subtable" uni069A dx=0 dy=0 dh=0 dv=0 dx=0 dy=0 dh=-50 dv=0
PairPos2: "'kern' Horizontal Kerning in Arabic lookup 0 subtable" uni068e dx=0 dy=0 dh=0 dv=0 dx=0 dy=0 dh=-50 dv=0
PairPos2: "'kern' Horizontal Kerning in Arabic lookup 0 subtable" uni068d dx=0 dy=0 dh=0 dv=0 dx=0 dy=0 dh=-50 dv=0
PairPos2: "'kern' Horizontal Kerning in Arabic lookup 0 subtable" uni068c dx=0 dy=0 dh=0 dv=0 dx=0 dy=0 dh=-50 dv=0
PairPos2: "'kern' Horizontal Kerning in Arabic lookup 0 subtable" uni068b dx=0 dy=0 dh=0 dv=0 dx=0 dy=0 dh=-50 dv=0
PairPos2: "'kern' Horizontal Kerning in Arabic lookup 0 subtable" uni0689 dx=0 dy=0 dh=0 dv=0 dx=0 dy=0 dh=-50 dv=0
PairPos2: "'kern' Horizontal Kerning in Arabic lookup 0 subtable" uniFB80 dx=0 dy=0 dh=0 dv=0 dx=0 dy=0 dh=-50 dv=0
PairPos2: "'kern' Horizontal Kerning in Arabic lookup 0 subtable" uni0687 dx=0 dy=0 dh=0 dv=0 dx=0 dy=0 dh=-80 dv=0
PairPos2: "'kern' Horizontal Kerning in Arabic lookup 0 subtable" uni0685.init dx=0 dy=0 dh=0 dv=0 dx=0 dy=0 dh=-50 dv=0
PairPos2: "'kern' Horizontal Kerning in Arabic lookup 0 subtable" uni0685 dx=0 dy=0 dh=0 dv=0 dx=0 dy=0 dh=-80 dv=0
PairPos2: "'kern' Horizontal Kerning in Arabic lookup 0 subtable" uniFB74 dx=0 dy=0 dh=0 dv=0 dx=0 dy=0 dh=-50 dv=0
PairPos2: "'kern' Horizontal Kerning in Arabic lookup 0 subtable" uni0684 dx=0 dy=0 dh=0 dv=0 dx=0 dy=0 dh=-80 dv=0
PairPos2: "'kern' Horizontal Kerning in Arabic lookup 0 subtable" uniFB78 dx=0 dy=0 dh=0 dv=0 dx=0 dy=0 dh=-50 dv=0
PairPos2: "'kern' Horizontal Kerning in Arabic lookup 0 subtable" uni0683 dx=0 dy=0 dh=0 dv=0 dx=0 dy=0 dh=-80 dv=0
PairPos2: "'kern' Horizontal Kerning in Arabic lookup 0 subtable" uni0682.init dx=0 dy=0 dh=0 dv=0 dx=0 dy=0 dh=-50 dv=0
PairPos2: "'kern' Horizontal Kerning in Arabic lookup 0 subtable" uni0682 dx=0 dy=0 dh=0 dv=0 dx=0 dy=0 dh=-80 dv=0
PairPos2: "'kern' Horizontal Kerning in Arabic lookup 0 subtable" uni0681.init dx=0 dy=0 dh=0 dv=0 dx=0 dy=0 dh=-50 dv=0
PairPos2: "'kern' Horizontal Kerning in Arabic lookup 0 subtable" uni0681 dx=0 dy=0 dh=0 dv=0 dx=0 dy=0 dh=-80 dv=0
PairPos2: "'kern' Horizontal Kerning in Arabic lookup 0 subtable" uni0680 dx=0 dy=0 dh=0 dv=0 dx=0 dy=0 dh=-50 dv=0
PairPos2: "'kern' Horizontal Kerning in Arabic lookup 0 subtable" uni067F dx=0 dy=0 dh=0 dv=0 dx=0 dy=0 dh=-50 dv=0
PairPos2: "'kern' Horizontal Kerning in Arabic lookup 0 subtable" uni067D dx=0 dy=0 dh=0 dv=0 dx=0 dy=0 dh=-50 dv=0
PairPos2: "'kern' Horizontal Kerning in Arabic lookup 0 subtable" uni067C dx=0 dy=0 dh=0 dv=0 dx=0 dy=0 dh=-50 dv=0
PairPos2: "'kern' Horizontal Kerning in Arabic lookup 0 subtable" uni067B dx=0 dy=0 dh=0 dv=0 dx=0 dy=0 dh=-50 dv=0
PairPos2: "'kern' Horizontal Kerning in Arabic lookup 0 subtable" uni067A dx=0 dy=0 dh=0 dv=0 dx=0 dy=0 dh=-50 dv=0
PairPos2: "'kern' Horizontal Kerning in Arabic lookup 0 subtable" uni0678 dx=0 dy=0 dh=0 dv=0 dx=0 dy=0 dh=-50 dv=0
PairPos2: "'kern' Horizontal Kerning in Arabic lookup 0 subtable" uni0675 dx=0 dy=0 dh=0 dv=0 dx=0 dy=0 dh=-80 dv=0
PairPos2: "'kern' Horizontal Kerning in Arabic lookup 0 subtable" uni0673 dx=0 dy=0 dh=0 dv=0 dx=0 dy=0 dh=-80 dv=0
PairPos2: "'kern' Horizontal Kerning in Arabic lookup 0 subtable" uni0672 dx=0 dy=0 dh=0 dv=0 dx=0 dy=0 dh=-80 dv=0
PairPos2: "'kern' Horizontal Kerning in Arabic lookup 0 subtable" uniFBA6 dx=0 dy=0 dh=0 dv=0 dx=0 dy=0 dh=-80 dv=0
PairPos2: "'kern' Horizontal Kerning in Arabic lookup 0 subtable" uni06D3 dx=0 dy=0 dh=0 dv=0 dx=0 dy=0 dh=-80 dv=0
PairPos2: "'kern' Horizontal Kerning in Arabic lookup 0 subtable" uni06D2 dx=0 dy=0 dh=0 dv=0 dx=0 dy=0 dh=-80 dv=0
PairPos2: "'kern' Horizontal Kerning in Arabic lookup 0 subtable" uni0688 dx=0 dy=0 dh=0 dv=0 dx=0 dy=0 dh=-50 dv=0
PairPos2: "'kern' Horizontal Kerning in Arabic lookup 0 subtable" uni0679 dx=0 dy=0 dh=0 dv=0 dx=0 dy=0 dh=-50 dv=0
PairPos2: "'kern' Horizontal Kerning in Arabic lookup 0 subtable" uniFBA4 dx=0 dy=0 dh=0 dv=0 dx=0 dy=0 dh=-80 dv=0
PairPos2: "'kern' Horizontal Kerning in Arabic lookup 0 subtable" uni06C0 dx=0 dy=0 dh=0 dv=0 dx=0 dy=0 dh=-80 dv=0
PairPos2: "'kern' Horizontal Kerning in Arabic lookup 0 subtable" afii62840 dx=0 dy=0 dh=0 dv=0 dx=0 dy=0 dh=-100 dv=0
PairPos2: "'kern' Horizontal Kerning in Arabic lookup 0 subtable" afii62838 dx=0 dy=0 dh=0 dv=0 dx=0 dy=0 dh=-100 dv=0
PairPos2: "'kern' Horizontal Kerning in Arabic lookup 0 subtable" afii62836 dx=0 dy=0 dh=0 dv=0 dx=0 dy=0 dh=-100 dv=0
PairPos2: "'kern' Horizontal Kerning in Arabic lookup 0 subtable" afii62834 dx=0 dy=0 dh=0 dv=0 dx=0 dy=0 dh=-100 dv=0
PairPos2: "'kern' Horizontal Kerning in Arabic lookup 0 subtable" afii57450 dx=0 dy=0 dh=0 dv=0 dx=0 dy=0 dh=-50 dv=0
PairPos2: "'kern' Horizontal Kerning in Arabic lookup 0 subtable" afii57449 dx=0 dy=0 dh=0 dv=0 dx=0 dy=0 dh=-50 dv=0
PairPos2: "'kern' Horizontal Kerning in Arabic lookup 0 subtable" afii57447 dx=0 dy=0 dh=0 dv=0 dx=0 dy=0 dh=-80 dv=0
PairPos2: "'kern' Horizontal Kerning in Arabic lookup 0 subtable" afii57445 dx=0 dy=0 dh=0 dv=0 dx=0 dy=0 dh=-80 dv=0
PairPos2: "'kern' Horizontal Kerning in Arabic lookup 0 subtable" afii62817 dx=0 dy=0 dh=0 dv=0 dx=0 dy=0 dh=-80 dv=0
PairPos2: "'kern' Horizontal Kerning in Arabic lookup 0 subtable" afii57444 dx=0 dy=0 dh=0 dv=0 dx=0 dy=0 dh=-130 dv=0
PairPos2: "'kern' Horizontal Kerning in Arabic lookup 0 subtable" afii57410 dx=0 dy=0 dh=0 dv=0 dx=0 dy=0 dh=-300 dv=0
PairPos2: "'kern' Horizontal Kerning in Arabic lookup 0 subtable" afii57443 dx=0 dy=0 dh=0 dv=0 dx=0 dy=0 dh=-80 dv=0
PairPos2: "'kern' Horizontal Kerning in Arabic lookup 0 subtable" afii57441 dx=0 dy=0 dh=0 dv=0 dx=0 dy=0 dh=-50 dv=0
PairPos2: "'kern' Horizontal Kerning in Arabic lookup 0 subtable" afii62799 dx=0 dy=0 dh=0 dv=0 dx=0 dy=0 dh=-80 dv=0
PairPos2: "'kern' Horizontal Kerning in Arabic lookup 0 subtable" afii57432 dx=0 dy=0 dh=0 dv=0 dx=0 dy=0 dh=-80 dv=0
PairPos2: "'kern' Horizontal Kerning in Arabic lookup 0 subtable" afii62796 dx=0 dy=0 dh=0 dv=0 dx=0 dy=0 dh=-80 dv=0
PairPos2: "'kern' Horizontal Kerning in Arabic lookup 0 subtable" afii57431 dx=0 dy=0 dh=0 dv=0 dx=0 dy=0 dh=-80 dv=0
PairPos2: "'kern' Horizontal Kerning in Arabic lookup 0 subtable" afii62793 dx=0 dy=0 dh=0 dv=0 dx=0 dy=0 dh=-50 dv=0
PairPos2: "'kern' Horizontal Kerning in Arabic lookup 0 subtable" afii57430 dx=0 dy=0 dh=0 dv=0 dx=0 dy=0 dh=-50 dv=0
PairPos2: "'kern' Horizontal Kerning in Arabic lookup 0 subtable" afii62790 dx=0 dy=0 dh=0 dv=0 dx=0 dy=0 dh=-50 dv=0
PairPos2: "'kern' Horizontal Kerning in Arabic lookup 0 subtable" afii57429 dx=0 dy=0 dh=0 dv=0 dx=0 dy=0 dh=-50 dv=0
PairPos2: "'kern' Horizontal Kerning in Arabic lookup 0 subtable" afii62787 dx=0 dy=0 dh=0 dv=0 dx=0 dy=0 dh=-50 dv=0
PairPos2: "'kern' Horizontal Kerning in Arabic lookup 0 subtable" afii57428 dx=0 dy=0 dh=0 dv=0 dx=0 dy=0 dh=-50 dv=0
PairPos2: "'kern' Horizontal Kerning in Arabic lookup 0 subtable" afii62784 dx=0 dy=0 dh=0 dv=0 dx=0 dy=0 dh=-50 dv=0
PairPos2: "'kern' Horizontal Kerning in Arabic lookup 0 subtable" afii57427 dx=0 dy=0 dh=0 dv=0 dx=0 dy=0 dh=-50 dv=0
PairPos2: "'kern' Horizontal Kerning in Arabic lookup 0 subtable" afii57424 dx=0 dy=0 dh=0 dv=0 dx=0 dy=0 dh=-50 dv=0
PairPos2: "'kern' Horizontal Kerning in Arabic lookup 0 subtable" afii57423 dx=0 dy=0 dh=0 dv=0 dx=0 dy=0 dh=-50 dv=0
PairPos2: "'kern' Horizontal Kerning in Arabic lookup 0 subtable" afii62777 dx=0 dy=0 dh=0 dv=0 dx=0 dy=0 dh=-50 dv=0
PairPos2: "'kern' Horizontal Kerning in Arabic lookup 0 subtable" afii57422 dx=0 dy=0 dh=0 dv=0 dx=0 dy=0 dh=-80 dv=0
PairPos2: "'kern' Horizontal Kerning in Arabic lookup 0 subtable" afii62774 dx=0 dy=0 dh=0 dv=0 dx=0 dy=0 dh=-50 dv=0
PairPos2: "'kern' Horizontal Kerning in Arabic lookup 0 subtable" afii57421 dx=0 dy=0 dh=0 dv=0 dx=0 dy=0 dh=-80 dv=0
PairPos2: "'kern' Horizontal Kerning in Arabic lookup 0 subtable" afii62771 dx=0 dy=0 dh=0 dv=0 dx=0 dy=0 dh=-50 dv=0
PairPos2: "'kern' Horizontal Kerning in Arabic lookup 0 subtable" afii57420 dx=0 dy=0 dh=0 dv=0 dx=0 dy=0 dh=-80 dv=0
PairPos2: "'kern' Horizontal Kerning in Arabic lookup 0 subtable" afii57419 dx=0 dy=0 dh=0 dv=0 dx=0 dy=0 dh=-50 dv=0
PairPos2: "'kern' Horizontal Kerning in Arabic lookup 0 subtable" afii57418 dx=0 dy=0 dh=0 dv=0 dx=0 dy=0 dh=-50 dv=0
PairPos2: "'kern' Horizontal Kerning in Arabic lookup 0 subtable" afii57417 dx=0 dy=0 dh=0 dv=0 dx=0 dy=0 dh=-80 dv=0
PairPos2: "'kern' Horizontal Kerning in Arabic lookup 0 subtable" afii57416 dx=0 dy=0 dh=0 dv=0 dx=0 dy=0 dh=-50 dv=0
PairPos2: "'kern' Horizontal Kerning in Arabic lookup 0 subtable" afii57415.001 dx=0 dy=0 dh=0 dv=0 dx=0 dy=0 dh=-80 dv=0
PairPos2: "'kern' Horizontal Kerning in Arabic lookup 0 subtable" afii57414 dx=0 dy=0 dh=0 dv=0 dx=0 dy=0 dh=-50 dv=0
PairPos2: "'kern' Horizontal Kerning in Arabic lookup 0 subtable" afii57413 dx=0 dy=0 dh=0 dv=0 dx=0 dy=0 dh=-80 dv=0
PairPos2: "'kern' Horizontal Kerning in Arabic lookup 0 subtable" afii57411 dx=0 dy=0 dh=0 dv=0 dx=0 dy=0 dh=-80 dv=0
PairPos2: "'kern' Horizontal Kerning in Arabic lookup 0 subtable" afii57555 dx=0 dy=0 dh=0 dv=0 dx=0 dy=0 dh=-50 dv=0
PairPos2: "'kern' Horizontal Kerning in Arabic lookup 0 subtable" afii62965 dx=0 dy=0 dh=0 dv=0 dx=0 dy=0 dh=-300 dv=0
PairPos2: "'kern' Horizontal Kerning in Arabic lookup 0 subtable" afii57509 dx=0 dy=0 dh=0 dv=0 dx=0 dy=0 dh=-350 dv=0
PairPos2: "'kern' Horizontal Kerning in Arabic lookup 0 subtable" afii52305 dx=0 dy=0 dh=0 dv=0 dx=0 dy=0 dh=-300 dv=0
PairPos2: "'kern' Horizontal Kerning in Arabic lookup 0 subtable" afii57567 dx=0 dy=0 dh=0 dv=0 dx=0 dy=0 dh=-340 dv=0
PairPos2: "'kern' Horizontal Kerning in Arabic lookup 0 subtable" afii62959 dx=0 dy=0 dh=0 dv=0 dx=0 dy=0 dh=-50 dv=0
PairPos2: "'kern' Horizontal Kerning in Arabic lookup 0 subtable" afii57507 dx=0 dy=0 dh=0 dv=0 dx=0 dy=0 dh=-80 dv=0
PairPos2: "'kern' Horizontal Kerning in Arabic lookup 0 subtable" afii57505 dx=0 dy=0 dh=0 dv=0 dx=0 dy=0 dh=-50 dv=0
PairPos2: "'kern' Horizontal Kerning in Arabic lookup 0 subtable" afii57506 dx=0 dy=0 dh=0 dv=0 dx=0 dy=0 dh=-50 dv=0
PairPos2: "'kern' Horizontal Kerning in Arabic lookup 0 subtable" afii57534 dx=0 dy=0 dh=0 dv=0 dx=0 dy=0 dh=-80 dv=0
EndChar

